SplineFontDB: 3.2
FontName: Mikhak-Thin
FullName: Mikhak Thin
FamilyName: Mikhak Thin
Weight: Thin
Copyright: Copyright 2022 The Mikhak Project Authors (https://github.com/aminabedi68/Mikhak)
Version: 3.30
ItalicAngle: 0
UnderlinePosition: -600
UnderlineWidth: 120
Ascent: 1638
Descent: 410
InvalidEm: 0
LayerCount: 3
Layer: 0 0 "Back" 1
Layer: 1 0 "Fore" 0
Layer: 2 0 "Stroke" 0
PreferredKerning: 4
StyleMap: 0x0040
FSType: 0
OS2Version: 0
OS2_WeightWidthSlopeOnly: 0
OS2_UseTypoMetrics: 1
CreationTime: 1497005464
ModificationTime: 1654007186
PfmFamily: 33
TTFWeight: 100
TTFWidth: 5
LineGap: 0
VLineGap: 0
OS2TypoAscent: 2200
OS2TypoAOffset: 0
OS2TypoDescent: -1200
OS2TypoDOffset: 0
OS2TypoLinegap: 0
OS2WinAscent: 2553
OS2WinAOffset: 0
OS2WinDescent: 1444
OS2WinDOffset: 0
HheadAscent: 2200
HheadAOffset: 0
HheadDescent: -1200
HheadDOffset: 0
OS2SubXSize: 1277
OS2SubYSize: 1185
OS2SubXOff: 0
OS2SubYOff: 256
OS2SupXSize: 1277
OS2SupYSize: 1185
OS2SupXOff: 0
OS2SupYOff: 870
OS2StrikeYSize: 91
OS2StrikeYPos: 766
OS2CapHeight: 1400
OS2XHeight: 1012
OS2Vendor: 'amin'
Lookup: 6 9 0 "'ccmp' Glyph Composition/Decomposition in Arabic lookup 73" { "'ccmp' Glyph Composition/Decomposition in Arabic lookup 73 contextual 0"  "'ccmp' Glyph Composition/Decomposition in Arabic lookup 73 contextual 1"  "'ccmp' Glyph Composition/Decomposition in Arabic lookup 73 contextual 2"  } ['ccmp' ('arab' <'FAR ' 'MLY ' 'SND ' 'URD ' 'dflt' > ) ]
Lookup: 4 1 0 "'ccmp' Glyph Composition/Decomposition in Arabic lookup 0" { "'ccmp' Glyph Composition/Decomposition in Arabic lookup 0 subtable 0"  } ['ccmp' ('arab' <'FAR ' 'KUR ' 'URD ' 'dflt' > ) ]
Lookup: 1 8 0 "'locl' Localized Forms lookup 17" { "'locl' Localized Forms lookup 17 subtable"  } ['locl' ('arab' <'URD ' > ) ]
Lookup: 1 0 0 "'locl' Localized Forms in Latin lookup 1" { "'locl' Localized Forms in Latin lookup 1 subtable"  } ['locl' ('DFLT' <'dflt' > 'latn' <'dflt' > ) ]

StartChar: a
Encoding: 97 97 0
GlifName: a
Width: 1309
Flags: HMW
LayerCount: 3
Fore
SplineSet
969 480 m 0
 978 479 986 471 985 461 c 0
 980 402 979 353 982 293 c 0
 989 167 1018 62 1157 62 c 0
 1167 62 1175 55 1176 45 c 0
 1177 35 1169 28 1159 28 c 0
 990 28 955 167 948 293 c 0
 945 355 946 413 951 465 c 0
 952 474 960 481 969 480 c 0
571 32 m 0
 840 32 935 277 956 521 c 2
 996 988 l 2
 997 997 1005 1004 1014 1003 c 0
 1023 1002 1031 993 1030 984 c 2
 991 517 l 2
 970 271 870 -2 573 -2 c 0
 322 -2 184 198 172 419 c 0
 158 683 327 1018 648 1018 c 0
 740 1018 812 985 855 957 c 0
 863 952 867 940 862 932 c 0
 857 924 845 922 837 927 c 0
 798 953 734 984 650 984 c 0
 357 984 195 671 208 419 c 0
 219 210 344 32 571 32 c 0
EndSplineSet
Layer: 2
SplineSet
846 942 m 1
 805 969 737 1001 649 1001 c 0
 342 1001 176.797848246 677.042057016 190 419 c 0
 201 204 333 15 572 15 c 1
 855 15 952.014880126 273.998725471 973 519 c 2
 1013 986 l 1025
1013 986 m 1
 968 463 l 2
 964 408 962 354 965 293 c 0
 972 167 1004 45 1158 45 c 1033
EndSplineSet
EndChar

StartChar: c
Encoding: 99 99 1
GlifName: c
Width: 1071
Flags: HMW
LayerCount: 3
Fore
SplineSet
893 896 m 0
 887 889 876 888 869 894 c 0
 805 950 728 984 636 984 c 0
 371 984 203 665 203 411 c 0
 203 220 292 32 553 32 c 0
 690 32 793 71 887 128 c 0
 895 133 906 130 911 122 c 0
 916 114 913 103 905 98 c 0
 807 39 696 -2 553 -2 c 0
 268 -2 167 210 167 411 c 0
 167 673 341 1018 636 1018 c 0
 738 1018 821 980 891 920 c 0
 898 914 899 903 893 896 c 0
EndSplineSet
Layer: 2
SplineSet
880 907 m 0
 813 965 733 1001 636 1001 c 0
 356 1001 185 669 185 411 c 0
 185 215 280 15 553 15 c 0
 693 15 800 55 896 113 c 1024
EndSplineSet
EndChar

StartChar: e
Encoding: 101 101 2
GlifName: e
Width: 1191
Flags: HMW
LayerCount: 3
Fore
SplineSet
728 984 m 0
 455 984 257 716 257 440 c 0
 257 137 412 32 635 32 c 0
 762 32 883 61 974 144 c 0
 981 150 993 150 999 143 c 0
 1005 136 1005 124 998 118 c 0
 897 27 766 -2 635 -2 c 0
 398 -2 223 119 223 440 c 0
 223 730 429 1018 728 1018 c 0
 855 1018 981 940 981 805 c 0
 981 683 876 609 802 565 c 0
 613 453 396 385 176 370 c 0
 166 369 159 376 158 386 c 0
 157 396 164 403 174 404 c 0
 388 419 599 485 784 595 c 0
 858 639 947 705 947 805 c 0
 947 914 843 984 728 984 c 0
EndSplineSet
Layer: 2
SplineSet
175 387 m 0
 392 402 606 469 793 580 c 0
 867 624 964 694 964 805 c 0
 964 927 849 1001 728 1001 c 0
 442 1001 240 723 240 440 c 0
 240 128 405 15 635 15 c 0
 764 15 890 44 986 131 c 1032
EndSplineSet
EndChar

StartChar: f
Encoding: 102 102 3
GlifName: f
Width: 813
Flags: HMW
LayerCount: 3
Fore
SplineSet
544 1626 m 0
 579 1626 615 1606 650 1566 c 0
 656 1559 656 1547 649 1541 c 0
 642 1535 630 1535 624 1542 c 0
 591 1578 565 1592 544 1592 c 0
 480 1592 418 1466 405 1307 c 0
 374 962 366 348 366 -4 c 0
 366 -14 358 -21 348 -21 c 0
 338 -21 331 -14 331 -4 c 0
 331 348 340 964 371 1311 c 0
 384 1464 440 1626 544 1626 c 0
168 828 m 0
 167 838 174 845 184 846 c 0
 238 850 287 852 337 852 c 0
 440 852 537 845 640 833 c 0
 649 832 656 823 655 814 c 0
 654 805 645 798 636 799 c 0
 535 811 438 816 337 816 c 0
 287 816 238 816 186 812 c 0
 176 811 169 818 168 828 c 0
EndSplineSet
Layer: 2
SplineSet
637 1554 m 17
 603 1592 572 1609 544 1609 c 0
 460 1609 401 1465 388 1309 c 0
 357 963 348 348 348 -4 c 1025
185 829 m 17
 238 833 287 834 337 834 c 0
 439 834 536 828 638 816 c 1033
EndSplineSet
EndChar

StartChar: g
Encoding: 103 103 4
GlifName: g
Width: 1258
Flags: HMW
LayerCount: 3
Fore
SplineSet
593 32 m 0
 828 32 968 232 974 521 c 2
 984 988 l 2
 985 997 993 1004 1002 1003 c 0
 1011 1002 1019 993 1018 984 c 2
 1009 517 l 2
 1003 226 858 -2 587 -2 c 0
 310 -2 172 198 160 419 c 0
 146 683 315 1018 636 1018 c 0
 728 1018 801 985 844 957 c 0
 852 952 855 940 850 932 c 0
 845 924 833 922 825 927 c 0
 786 953 722 984 638 984 c 0
 345 984 183 671 196 419 c 0
 207 210 332 32 593 32 c 0
1002 1003 m 0
 1012 1001 1018 994 1018 984 c 0
 1006 -156 960 -458 548 -458 c 0
 434 -458 298 -403 202 -297 c 0
 196 -290 196 -278 203 -272 c 0
 210 -266 222 -268 228 -275 c 0
 313 -373 440 -422 547 -422 c 0
 928 -422 975 -130 984 988 c 0
 984 998 992 1005 1002 1003 c 0
EndSplineSet
Layer: 2
SplineSet
836 942 m 0
 776 974 717 1001 613 1001 c 0
 349 1001 163 684 177 420 c 0
 191 147 367 15 563 15 c 0
 895 15 958 269 990 477 c 1025
1002 985 m 0
 980 -63 967 -440 566 -440 c 0
 437 -440 304 -389 215 -286 c 1024
EndSplineSet
EndChar

StartChar: o
Encoding: 111 111 5
GlifName: o
Width: 1159
Flags: HMW
LayerCount: 3
Fore
SplineSet
592 984 m 0
 339 984 203 742 203 486 c 0
 203 244 348 32 565 32 c 0
 801 32 957 285 957 538 c 0
 957 763 823 984 592 984 c 0
592 1018 m 0
 851 1018 991 773 991 538 c 0
 991 275 829 -2 565 -2 c 0
 322 -2 167 232 167 486 c 0
 167 750 311 1018 592 1018 c 0
EndSplineSet
Layer: 2
SplineSet
592 1001 m 0
 837 1001 974 768 974 538 c 0
 974 280 815 15 565 15 c 0
 335 15 185 238 185 486 c 0
 185 746 325 1001 592 1001 c 0
EndSplineSet
EndChar

StartChar: s
Encoding: 115 115 6
GlifName: s
Width: 1020
Flags: HMW
LayerCount: 3
Fore
SplineSet
838 799 m 0
 830 797 820 800 817 810 c 0
 785 913 672 985 532 985 c 0
 375 985 249 874 249 747 c 0
 249 604 412 552 547 512 c 0
 683 472 862 413 862 255 c 0
 862 104 708 -2 513 -2 c 0
 378 -2 226 49 171 132 c 0
 165 141 168 149 175 154 c 0
 182 159 193 159 199 150 c 0
 247 78 393 32 513 32 c 0
 698 32 828 132 828 255 c 0
 828 391 667 441 537 480 c 0
 396 522 215 582 215 747 c 0
 215 898 361 1019 532 1019 c 0
 682 1019 811 941 849 820 c 0
 853 809 846 801 838 799 c 0
EndSplineSet
Layer: 2
SplineSet
833 815 m 0
 798 927 677 1002 532 1002 c 0
 368 1002 232 886 232 747 c 0
 232 598 388 546 542 496 c 0
 694.191856898 446.587059449 845 397 845 255 c 0
 845 118 703 15 513 15 c 0
 376 15 232 70 185 141 c 1024
EndSplineSet
EndChar

StartChar: t
Encoding: 116 116 7
GlifName: t
Width: 815
Flags: HMW
LayerCount: 3
Fore
SplineSet
657 818 m 0
 656 809 647 802 638 803 c 0
 567 812 491 816 413 816 c 0
 338 816 261 812 187 803 c 0
 178 802 169 809 168 818 c 0
 167 827 174 836 183 837 c 0
 259 846 336 850 413 850 c 0
 493 850 569 846 642 837 c 0
 651 836 658 827 657 818 c 0
429 1233 m 0
 438 1232 445 1223 444 1214 c 0
 411 929 385 646 385 355 c 0
 385 203 394 32 563 32 c 0
 584 32 608 34 634 39 c 0
 643 41 652 34 654 25 c 0
 656 16 649 7 640 5 c 0
 612 0 586 -2 563 -2 c 0
 356 -2 351 211 351 355 c 0
 351 648 377 933 410 1218 c 0
 411 1227 420 1234 429 1233 c 0
EndSplineSet
Layer: 2
SplineSet
640 820 m 1
 568 829 492 833 413 833 c 0
 337 833 260 829 185 820 c 1025
427 1216 m 0
 394 931 368 647 368 355 c 0
 368 207 375 15 563 15 c 0
 585 15 610 17 637 22 c 1024
EndSplineSet
EndChar

StartChar: v
Encoding: 118 118 8
GlifName: v
Width: 1124
Flags: HMW
LayerCount: 3
Fore
SplineSet
178 987 m 0
 187 991 197 987 201 978 c 0
 321 722 467 401 535 92 c 1
 694 356 840 659 932 976 c 0
 935 985 945 991 954 988 c 0
 963 985 969 975 966 966 c 0
 868 630 711 309 542 36 c 0
 540 32 536 29 532 28 c 0
 522 25 512 32 510 42 c 0
 448 359 295 696 169 964 c 0
 165 973 169 983 178 987 c 0
EndSplineSet
Layer: 2
SplineSet
185 971 m 4
 311 703 464 365 527 45 c 5
 695 317 852 637 949 971 c 1028
EndSplineSet
EndChar

StartChar: w
Encoding: 119 119 9
GlifName: w
Width: 1551
Flags: HMW
LayerCount: 3
Fore
SplineSet
336 969 m 256
 344 964 347 953 342 945 c 256
 286 846 203 585 203 374 c 256
 203 195 262 32 431 32 c 256
 658 32 787 473 787 681 c 256
 787 691 795 699 805 698 c 256
 814 697 821 690 821 681 c 256
 825 424 840 32 1063 32 c 256
 1268 32 1349 266 1349 513 c 256
 1349 672 1312 838 1260 943 c 256
 1256 952 1259 963 1268 967 c 256
 1277 971 1288 968 1292 959 c 256
 1348 848 1383 678 1383 513 c 256
 1383 266 1304 -2 1063 -2 c 256
 860 -2 810 252 794 470 c 257
 746 259 630 -2 431 -2 c 256
 230 -2 167 193 167 374 c 256
 167 593 252 856 312 963 c 256
 317 971 328 974 336 969 c 256
EndSplineSet
Layer: 2
SplineSet
327 954 m 0
 269 851 185 589 185 374 c 0
 185 194 246 15 431 15 c 0
 679 15 804 474 804 681 c 1
 808 433 817 15 1063 15 c 0
 1286 15 1366 266 1366 513 c 0
 1366 675 1330 843 1276 951 c 1024
EndSplineSet
EndChar

StartChar: x
Encoding: 120 120 10
GlifName: x
Width: 1177
Flags: HMW
LayerCount: 3
Fore
SplineSet
174 -14 m 0
 167 -8 165 4 171 11 c 2
 966 982 l 2
 972 989 984 991 991 985 c 0
 998 979 1000 967 994 960 c 2
 199 -11 l 2
 193 -18 181 -20 174 -14 c 0
252 973 m 0
 261 977 272 974 276 965 c 0
 438 637 759 267 1014 12 c 0
 1021 5 1021 -5 1014 -12 c 0
 1007 -19 997 -19 990 -12 c 0
 733 245 410 615 244 949 c 0
 240 958 243 969 252 973 c 0
EndSplineSet
Layer: 2
SplineSet
185 0 m 1
 980 971 l 1025
260 957 m 0
 424 626 746 256 1002 0 c 1024
EndSplineSet
EndChar

StartChar: y
Encoding: 121 121 11
GlifName: y
Width: 1177
Flags: HMW
LayerCount: 3
Fore
SplineSet
258 988 m 0
 267 987 274 978 273 969 c 0
 259 844 252 634 252 509 c 0
 252 230 289 32 556 32 c 0
 758 32 872 174 929 369 c 0
 932 378 942 384 951 381 c 0
 960 378 966 368 963 359 c 0
 904 158 780 -2 556 -2 c 0
 251 -2 218 236 218 509 c 0
 218 636 225 846 239 973 c 0
 240 982 249 989 258 988 c 0
951 981 m 0
 961 981 969 974 969 964 c 0
 973 864 974 697 974 546 c 0
 974 89 974 -452 492 -452 c 0
 346 -452 239 -396 176 -304 c 0
 171 -296 172 -285 180 -280 c 0
 188 -275 200 -276 205 -284 c 0
 261 -366 355 -416 492 -416 c 0
 934 -416 940 76 940 546 c 0
 940 697 938 864 934 963 c 0
 934 973 941 981 951 981 c 0
EndSplineSet
Layer: 2
SplineSet
256 971 m 0
 242 845 235 635 235 509 c 0
 235 233 270 15 556 15 c 0
 769 15 888 166 946 364 c 1025
951.9453125 963.657226562 m 0
 956.21875 863.896484375 957 697.1796875 957 546 c 0
 957 82.1826171875 953.990234375 -434 492 -434 c 0
 350.067382812 -434 249.38671875 -381.1015625 190 -294 c 1024
EndSplineSet
EndChar

StartChar: z
Encoding: 122 122 12
GlifName: z
Width: 1094
Flags: HMW
LayerCount: 3
Fore
SplineSet
168 879 m 0
 166 888 173 897 182 899 c 0
 267 913 409 932 563 932 c 0
 717 932 826 894 881 860 c 0
 891 854 892 839 883 832 c 0
 708 685 368 285 222 22 c 1
 420 38 720 46 919 46 c 0
 929 46 937 39 937 29 c 0
 937 19 929 12 919 12 c 0
 710 12 385 2 193 -15 c 0
 178 -16 168 -2 175 10 c 0
 311 271 650 672 842 842 c 1
 788 869 692 896 563 896 c 0
 411 896 271 879 188 865 c 0
 179 863 170 870 168 879 c 0
EndSplineSet
Layer: 2
SplineSet
185 882 m 1
 269 896 410 914 563 914 c 0
 714 914 821 877 872 845 c 1
 687.534179688 690.048828125 330 268 191 2 c 1
 384 19 710 29 919 29 c 1025
EndSplineSet
EndChar

StartChar: A
Encoding: 65 65 13
GlifName: A_
Width: 1376
Flags: HMW
LayerCount: 3
Fore
SplineSet
178 -24 m 0
 169 -20 165 -10 169 -1 c 2
 707 1323 l 2
 711 1332 722 1336 731 1331 c 0
 735 1329 738 1325 739 1322 c 2
 1217 6 l 2
 1220 -3 1216 -13 1207 -16 c 0
 1198 -19 1188 -15 1185 -6 c 2
 722 1271 l 1
 201 -15 l 2
 197 -24 187 -28 178 -24 c 0
1060 420 m 0
 1059 411 1050 404 1041 405 c 2
 361 413 l 2
 352 414 345 423 346 432 c 0
 347 441 356 448 365 447 c 2
 1045 439 l 2
 1054 438 1061 429 1060 420 c 0
EndSplineSet
Layer: 2
SplineSet
185 -8 m 0
 723 1316 l 1
 1201 0 l 1025
1043 422 m 1
 363 430 l 1025
EndSplineSet
EndChar

StartChar: B
Encoding: 66 66 14
GlifName: B_
Width: 1178
Flags: HMW
LayerCount: 3
Fore
SplineSet
250 685 m 0
 249 695 256 702 266 703 c 0
 334 707 491 716 561 716 c 0
 842 716 1021 613 1021 356 c 0
 1021 74 772 -2 526 -2 c 0
 421 -2 314 13 223 42 c 0
 214 45 208 55 211 64 c 0
 214 73 224 79 233 76 c 0
 320 49 425 32 526 32 c 0
 766 32 985 104 985 356 c 0
 985 589 832 682 561 682 c 0
 493 682 336 673 268 669 c 0
 258 668 251 675 250 685 c 0
227 42 m 0
 217 43 210 50 211 60 c 0
 226 258 233 475 233 666 c 0
 233 903 223 1095 208 1279 c 0
 207 1289 214 1296 224 1297 c 0
 234 1298 242 1291 243 1281 c 0
 258 1097 267 903 267 666 c 0
 267 475 260 258 245 58 c 0
 244 48 237 41 227 42 c 0
209 1274 m 0
 206 1283 210 1293 219 1296 c 0
 324 1337 445 1364 558 1364 c 0
 760 1364 939 1239 939 1063 c 0
 939 725 505 688 268 669 c 0
 258.031981088 668.200876121 250 675 250 685 c 0
 250 695 256.028080438 702.251120665 266 703 c 0
 519 722 905 771 905 1063 c 0
 905 1215 748 1328 558 1328 c 0
 451 1328 332 1303 231 1264 c 0
 222 1261 212 1265 209 1274 c 0
EndSplineSet
Layer: 2
SplineSet
267 686 m 1
 335 690 492 699 561 699 c 0
 837 699 1003 601 1003 356 c 0
 1003 89 769 15 526 15 c 0
 423 15 317 31 228 59 c 1025
228 59 m 1
 243 258 250 475 250 666 c 0
 250 903 240 1096 225 1280 c 1025
225 1280 m 1
 328 1320 448 1346 558 1346 c 0
 754 1346 922 1230 922 1052 c 0
 922 792 603 704 267 686 c 1025
EndSplineSet
EndChar

StartChar: C
Encoding: 67 67 15
GlifName: C_
Width: 1261
Flags: HMW
LayerCount: 3
Fore
SplineSet
1067 1285 m 0
 1063 1276 1053 1272 1044 1276 c 0
 963 1312 877 1328 789 1328 c 0
 420 1328 203 1029 203 662 c 0
 203 300 418 32 785 32 c 0
 886 32 987 56 1078 104 c 0
 1086 108 1098 105 1102 97 c 0
 1106 89 1102 78 1094 74 c 0
 998 24 892 -2 785 -2 c 0
 400 -2 167 282 167 662 c 0
 167 1047 400 1364 789 1364 c 0
 881 1364 973 1346 1058 1308 c 0
 1067 1304 1071 1294 1067 1285 c 0
EndSplineSet
Layer: 2
SplineSet
1051 1292 m 0
 968 1329 879 1346 789 1346 c 0
 410 1346 185 1038 185 662 c 0
 185 291 409 15 785 15 c 0
 889 15 993 40 1086 89 c 1024
EndSplineSet
EndChar

StartChar: D
Encoding: 68 68 16
GlifName: D_
Width: 1319
Flags: HMW
LayerCount: 3
Fore
SplineSet
261 1311 m 1
 280 1128 287 1004 287 811 c 0
 287 567 272 300 244 74 c 1
 318 47 398 32 477 32 c 0
 848 32 1127 325 1127 701 c 0
 1127 1120 851 1328 431 1328 c 0
 374 1328 318 1323 261 1311 c 1
238 1342 m 0
 300 1356 367 1364 431 1364 c 0
 865 1364 1161 1142 1161 701 c 0
 1161 307 868 -2 477 -2 c 0
 389 -2 301 14 219 46 c 0
 211 49 207 57 208 64 c 0
 237 289 253 564 253 811 c 0
 253 1009 245 1130 225 1323 c 0
 224 1332 231 1340 238 1342 c 0
EndSplineSet
Layer: 2
SplineSet
242 1325 m 1
 303 1339 368 1346 431 1346 c 0
 858 1346 1144 1131 1144 701 c 0
 1144 316 858 15 477 15 c 0
 391 15 305 31 225 62 c 1
 254 288 270 563 270 811 c 0
 270 1009 262 1132 242 1325 c 1
EndSplineSet
EndChar

StartChar: E
Encoding: 69 69 17
GlifName: E_
Width: 1138
Flags: HMW
LayerCount: 3
Fore
SplineSet
168 693 m 0
 167 702 174 711 183 712 c 0
 300 726 407 732 525 732 c 0
 648 732 767 724 886 710 c 0
 895 709 902 700 901 691 c 0
 900 682 891 675 882 676 c 0
 765 690 646 696 525 696 c 0
 407 696 302 692 187 678 c 0
 178 677 169 684 168 693 c 0
980 1363 m 0
 982 1354 976 1344 967 1342 c 0
 831 1310 656 1298 497 1298 c 0
 419 1298 340 1302 263 1306 c 1
 278 1182 285 1098 285 960 c 0
 285 747 269 482 243 295 c 0
 240 277 239 261 239 245 c 0
 239 18 492 62 793 62 c 0
 846 62 897 62 947 63 c 0
 957 63 965 56 965 46 c 0
 965 36 957 29 947 29 c 0
 897 28 846 28 793 28 c 0
 506 28 205 -24 205 245 c 0
 205 263 206 281 209 301 c 0
 235 486 249 749 249 960 c 0
 249 1104 243 1189 226 1323 c 0
 225 1330 231 1343 244 1342 c 0
 328 1337 413 1334 497 1334 c 0
 654 1334 827 1346 959 1376 c 0
 968 1378 978 1372 980 1363 c 0
EndSplineSet
Layer: 2
SplineSet
185 695 m 0
 301 709 407 714 525 714 c 0
 647 714 766 707 884 693 c 1024
963 1359 m 0
 829 1328 655 1316 497 1316 c 0
 412 1316 327 1320 243 1325 c 1
 260 1191 267 1105 267 960 c 0
 267 748 252 484 226 298 c 1
 223 279 222 262 222 245 c 0
 222 -3 499 45 793 45 c 0
 846 45 897 45 947 46 c 1024
EndSplineSet
EndChar

StartChar: F
Encoding: 70 70 18
GlifName: F_
Width: 1132
Flags: HMW
LayerCount: 3
Fore
SplineSet
168 639 m 0
 167 648 174 657 183 658 c 0
 293 671 403 678 514 678 c 0
 633 678 752 670 870 656 c 0
 879 655 886 646 885 637 c 0
 884 628 875 621 866 622 c 0
 750 636 631 644 514 644 c 0
 405 644 295 637 187 624 c 0
 178 623 169 630 168 639 c 0
974 1342 m 0
 976 1333 970 1323 961 1321 c 0
 825 1289 650 1278 491 1278 c 0
 413 1278 334 1281 258 1285 c 1
 285 1051 291 846 291 583 c 0
 291 377 279 177 259 -2 c 0
 258 -11 249 -18 240 -17 c 0
 231 -16 224 -7 225 2 c 0
 245 179 255 379 255 583 c 0
 255 853 250 1062 221 1302 c 0
 220 1309 226 1322 239 1321 c 0
 322 1316 406 1314 491 1314 c 0
 648 1314 821 1325 953 1355 c 0
 962 1357 972 1351 974 1342 c 0
EndSplineSet
Layer: 2
SplineSet
185 641 m 0
 294 654 404 661 514 661 c 0
 632 661 751 653 868 639 c 1024
957 1338 m 0
 823 1307 649 1296 491 1296 c 0
 406 1296 321 1299 238 1304 c 1
 267 1063 273 853 273 583 c 0
 273 378 262 178 242 0 c 1024
EndSplineSet
EndChar

StartChar: G
Encoding: 71 71 19
GlifName: G_
Width: 1389
Flags: HMW
LayerCount: 3
Fore
SplineSet
695 649 m 0
 695 659 703 666 713 666 c 2
 1209 666 l 2
 1219 666 1225 658 1226 650 c 0
 1229 611 1231 574 1231 537 c 0
 1231 228 1116 -2 741 -2 c 0
 423 -2 167 204 167 639 c 0
 167 1033 363 1364 788 1364 c 0
 890 1364 992 1330 1073 1270 c 0
 1081 1264 1082 1254 1076 1246 c 0
 1070 1238 1060 1236 1052 1242 c 0
 977 1298 882 1328 788 1328 c 0
 388 1328 203 1023 203 639 c 0
 203 220 441 32 741 32 c 0
 1130 32 1214 281 1193 632 c 1
 713 632 l 2
 703 632 695 639 695 649 c 0
EndSplineSet
Layer: 2
SplineSet
712 649 m 0
 1208 649 l 1
 1234.44628906 287.567382812 1147.33691406 15 740 15 c 0
 431 15 184 212 184 639 c 0
 184 1028 374.819335938 1346 787 1346 c 0
 885 1346 983 1314 1061 1256 c 1024
EndSplineSet
EndChar

StartChar: H
Encoding: 72 72 20
GlifName: H_
Width: 1359
Flags: HMW
LayerCount: 3
Fore
SplineSet
1054.94238281 1333.64648438 m 0
 1064.93652344 1333.29785156 1072.72167969 1327.02246094 1072.37304688 1317.02832031 c 2
 1084.67578125 -21.2158203125 l 2
 1084.32714844 -31.2099609375 1078.05175781 -38.99609375 1068.05761719 -38.646484375 c 0
 1058.06347656 -38.2978515625 1050.27832031 -32.0224609375 1050.62695312 -22.0283203125 c 2
 1038.32421875 1316.21582031 l 2
 1038.67285156 1326.20996094 1044.94824219 1333.99609375 1054.94238281 1333.64648438 c 0
1161 653 m 0
 1161 643 1153 637 1143 637 c 0
 878 649 454 658 225 658 c 0
 215 658 208 666 208 676 c 0
 208 686 215 694 225 694 c 0
 455 694 880 683 1145 671 c 0
 1155 671 1161 663 1161 653 c 0
273.423828125 1333.70605469 m 0
 283.416992188 1334.0546875 290.657226562 1327.30273438 291.005859375 1317.30957031 c 0
 302.46875 874.439453125 302.114257812 426.154296875 274.041992188 -2.0869140625 c 0
 273.356445312 -11.1162109375 263.607421875 -18.4609375 254.578125 -17.775390625 c 0
 245.548828125 -17.08984375 238.23828125 -8.33984375 238.923828125 0.689453125 c 0
 267.065429688 426.931640625 268.490234375 873.252929688 257.02734375 1316.12304688 c 0
 256.677734375 1326.11621094 263.4296875 1333.35644531 273.423828125 1333.70605469 c 0
EndSplineSet
Layer: 2
SplineSet
1056 1316 m 1
 1066 -21 l 1025
1119 654 m 1
 854 666 430 676 200 676 c 1025
274 1316 m 17
 290 873 281 426 258 0 c 1025
EndSplineSet
EndChar

StartChar: I
Encoding: 73 73 21
GlifName: I_
Width: 475
Flags: HMW
LayerCount: 3
Fore
SplineSet
225 -17 m 0
 215 -17 208 -10 208 0 c 2
 243 1361 l 2
 243 1371 250 1378 260 1378 c 0
 270 1378 277 1371 277 1361 c 2
 242 0 l 2
 242 -10 235 -17 225 -17 c 0
EndSplineSet
Layer: 2
SplineSet
225 0 m 1
 260 1361 l 1025
EndSplineSet
EndChar

StartChar: J
Encoding: 74 74 22
GlifName: J_
Width: 720
Flags: HMW
LayerCount: 3
Fore
SplineSet
181 1317 m 0
 181 1327 188 1334 198 1334 c 2
 575 1334 l 2
 585 1334 593 1327 593 1317 c 0
 593 1307 585 1300 575 1300 c 2
 198 1300 l 2
 188 1300 181 1307 181 1317 c 0
433 1332 m 0
 442 1333 451 1326 452 1317 c 0
 497 975 517 667 517 300 c 0
 517 118 453 -2 258 -2 c 0
 234 -2 208 -1 184 1 c 0
 175 2 167 10 168 19 c 0
 169 28 178 36 187 35 c 0
 210 33 234 32 258 32 c 0
 431 32 483 126 483 300 c 0
 483 665 463 973 418 1313 c 0
 417 1322 424 1331 433 1332 c 0
EndSplineSet
Layer: 2
SplineSet
198 1317 m 1
 575 1317 l 1025
435 1315 m 1
 480 974 500 666 500 300 c 0
 500 122 442 15 258 15 c 0
 234 15 209 16 185 18 c 1025
EndSplineSet
EndChar

StartChar: K
Encoding: 75 75 23
GlifName: K_
Width: 1222
Flags: HMW
LayerCount: 3
Fore
SplineSet
225 -17 m 0
 215 -17 208 -10 208 0 c 2
 243 1360 l 2
 243 1370 250 1377 260 1377 c 0
 270 1377 277 1370 277 1360 c 2
 242 0 l 2
 242 -10 235 -17 225 -17 c 0
1021 1375 m 0
 1029 1369 1031 1359 1025 1351 c 0
 824 1080 529 832 255 675 c 1
 480 424 773 192 1072 15 c 0
 1080.11816406 10.1943359375 1082 -1 1077 -9 c 0
 1072 -17 1061.11523438 -19.810546875 1053 -15 c 0
 746 167 442 408 214 669 c 0
 208.340602963 675.478520292 209 689 219 695 c 0
 496 852 796 1100 997 1371 c 0
 1003 1379 1013 1381 1021 1375 c 0
EndSplineSet
Layer: 2
SplineSet
225 0 m 1
 260 1360 l 1025
1011 1361 m 17
 808 1087 506 838 228 680 c 1
 454 422 756 181 1062 0 c 1033
EndSplineSet
EndChar

StartChar: L
Encoding: 76 76 24
GlifName: L_
Width: 1156
Flags: HMW
LayerCount: 3
Fore
SplineSet
242 1333 m 0
 252 1334 259 1327 260 1317 c 0
 271 1150 277 988 277 830 c 0
 277 572 263 320 244 62 c 1
 981 39 l 2
 991 39 998 32 998 22 c 0
 998 12 991 5 981 5 c 2
 225 28 l 2
 216 28 207 36 208 46 c 0
 228 310 241 567 241 830 c 0
 241 988 237 1148 226 1315 c 0
 225 1325 232 1332 242 1333 c 0
EndSplineSet
Layer: 2
SplineSet
243 1316 m 0
 254 1149 259 988 259 830 c 0
 259 566 245 309 225 45 c 1
 981 22 l 1024
EndSplineSet
EndChar

StartChar: M
Encoding: 77 77 25
GlifName: M_
Width: 1639
Flags: HMW
LayerCount: 3
Fore
SplineSet
213 -17 m 0
 204 -16 197 -7 198 2 c 2
 335 1302 l 2
 336 1312 345 1319 355 1317 c 0
 362 1316 368 1310 369 1305 c 0
 433 1070 574 766 678 586 c 0
 734 490 778 446 812 446 c 0
 843 446 884 480 937 570 c 0
 1058 773 1200 1128 1238 1319 c 0
 1240 1329 1250 1336 1260 1333 c 0
 1268 1331 1272 1323 1272 1317 c 0
 1290 803 1347 460 1451 16 c 0
 1453 7 1447 -3 1438 -5 c 0
 1429 -7 1419 -1 1417 8 c 0
 1321 418 1265 743 1243 1196 c 1
 1184 996 1069 723 967 552 c 0
 914 462 867 412 812 412 c 0
 752 412 702 474 648 568 c 0
 554 730 432 988 360 1212 c 1
 232 -2 l 2
 231 -11 222 -18 213 -17 c 0
EndSplineSet
Layer: 2
SplineSet
215 0 m 1
 352 1300 l 1
 417 1063 558 758 663 577 c 0
 718 482 765 429 812 429 c 0
 855 429 899 471 952 561 c 0
 1074 766 1216 1122 1255 1316 c 1
 1273 801 1330 457 1434 12 c 1025
EndSplineSet
EndChar

StartChar: N
Encoding: 78 78 26
GlifName: N_
Width: 1347
Flags: HMW
LayerCount: 3
Fore
SplineSet
224 -17 m 0
 214 -17 208 -9 208 1 c 0
 230 446 247 863 253 1316 c 0
 253 1326 262 1334 272 1333 c 0
 277 1333 282 1330 284 1327 c 0
 588 928 862 494 1100 70 c 1
 1115 1361 l 2
 1115 1371 1122 1378 1132 1378 c 0
 1142 1378 1149 1371 1149 1361 c 2
 1134 4 l 2
 1134 -1 1132 -8 1127 -11 c 0
 1119 -17 1107 -13 1102 -4 c 0
 864 424 591 861 287 1265 c 1
 280 832 263 427 242 -1 c 0
 242 -11 234 -17 224 -17 c 0
EndSplineSet
Layer: 2
SplineSet
225 0 m 0
 247 445 264 863 270 1316 c 1
 587 900 871 447 1117 4 c 1
 1132 1361 l 1025
EndSplineSet
EndChar

StartChar: O
Encoding: 79 79 27
GlifName: O_
Width: 1525
Flags: HMW
LayerCount: 3
Fore
SplineSet
738 32 m 0
 1076 32 1333 304 1333 684 c 0
 1333 1023 1136 1328 824 1328 c 0
 465 1328 203 992 203 613 c 0
 203 267 428 32 738 32 c 0
738 -2 m 0
 408 -2 167 251 167 613 c 0
 167 1006 441 1364 824 1364 c 0
 1164 1364 1367 1033 1367 684 c 0
 1367 288 1098 -2 738 -2 c 0
EndSplineSet
Layer: 2
SplineSet
738 15 m 0
 418 15 185 259 185 613 c 0
 185 999 453 1346 824 1346 c 0
 1150 1346 1350 1028 1350 684 c 0
 1350 296 1087 15 738 15 c 0
EndSplineSet
EndChar

StartChar: P
Encoding: 80 80 28
GlifName: P_
Width: 1309
Flags: HMW
LayerCount: 3
Fore
SplineSet
173 1154 m 0
 166 1160 166 1172 172 1179 c 0
 270 1291 483 1364 661 1364 c 0
 940 1364 1151 1140 1151 862 c 0
 1151 577 857 392 585 392 c 0
 513 392 367 403 296 431 c 0
 287 434 283 444 286 453 c 0
 289 462 300 466 309 463 c 0
 370 439 517 426 585 426 c 0
 845 426 1117 605 1117 862 c 0
 1117 1122 920 1328 661 1328 c 0
 491 1328 286 1255 198 1155 c 0
 192 1148 180 1148 173 1154 c 0
373 1256 m 0
 383 1255 390 1248 389 1238 c 2
 300 -1 l 2
 299 -11 292 -18 282 -17 c 0
 272 -16 265 -9 266 1 c 2
 355 1240 l 2
 356 1250 363 1257 373 1256 c 0
EndSplineSet
Layer: 2
SplineSet
185 1167 m 1
 278 1273 487 1346 661 1346 c 0
 930 1346 1134 1131 1134 862 c 0
 1134 591 851 409 585 409 c 0
 515 409 368 421 302 447 c 1025
372 1239 m 1
 283 0 l 1025
EndSplineSet
EndChar

StartChar: Q
Encoding: 81 81 29
GlifName: Q_
Width: 1525
Flags: HMW
LayerCount: 3
Fore
SplineSet
898 423 m 0
 906 429 916 427 922 419 c 0
 1055 236 1175 97 1345 -52 c 0
 1352 -58 1352 -70 1346 -77 c 0
 1340 -84 1329 -84 1322 -78 c 0
 1150 73 1027 214 894 399 c 0
 888 407 890 417 898 423 c 0
EndSplineSet
Refer: 27 79 N 1 0 0 1 0 0 2
Layer: 2
SplineSet
908 409 m 0
 1041 225 1162 85 1333 -65 c 1024
EndSplineSet
EndChar

StartChar: R
Encoding: 82 82 30
GlifName: R_
Width: 1310
Flags: HMW
LayerCount: 3
Fore
SplineSet
173 1154 m 0
 166 1160 166 1172 172 1179 c 0
 270 1290 469 1364 647 1364 c 0
 927 1364 1119 1139 1119 862 c 0
 1119 597 872 390 585 390 c 0
 488 390 386 414 287 468 c 0
 279 473 275 483 280 491 c 0
 285 499 296 503 304 498 c 0
 397 446 494 424 585 424 c 0
 856 424 1085 621 1085 862 c 0
 1085 1123 905 1328 647 1328 c 0
 477 1328 286 1256 198 1155 c 0
 192 1148 180 1148 173 1154 c 0
280 492 m 0
 285 500 296 503 304 498 c 2
 1144 15 l 2
 1152 10 1155 -1 1150 -9 c 0
 1145 -17 1134 -20 1126 -15 c 2
 286 468 l 2
 278 473 275 484 280 492 c 0
379 1261 m 0
 389 1260 396 1253 395 1243 c 2
 324 -1 l 2
 323 -11 316 -18 306 -17 c 0
 296 -16 289 -9 290 1 c 2
 361 1245 l 2
 362 1255 369 1262 379 1261 c 0
EndSplineSet
Layer: 2
SplineSet
185 1167 m 1
 278 1273 473 1346 647 1346 c 0
 916 1346 1102 1131 1102 862 c 0
 1102 609 864 407 585 407 c 0
 491 407 391 430 295 483 c 1025
295 483 m 1
 1135 0 l 1025
378 1244 m 1
 307 0 l 1025
EndSplineSet
EndChar

StartChar: S
Encoding: 83 83 31
GlifName: S_
Width: 1122
Flags: HMW
LayerCount: 3
Fore
SplineSet
921 1251 m 0
 916 1243 905 1240 897 1245 c 0
 791 1304 705 1328 602 1328 c 0
 366 1328 207 1202 207 1015 c 0
 207 859 316 758 568 681 c 0
 839 599 965 482 965 315 c 0
 965 122 798 -2 538 -2 c 0
 403 -2 248 31 137 93 c 0
 128 98 125 109 130 116 c 0
 135 124 146 128 154 123 c 0
 259 65 411 32 541 32 c 0
 778 32 929 141 929 312 c 0
 929 464 810 571 557 647 c 0
 293 727 173 841 173 1014 c 0
 173 1222 346 1364 601 1364 c 0
 711 1364 803 1338 915 1275 c 0
 923 1270 926 1259 921 1251 c 0
EndSplineSet
Layer: 2
SplineSet
906 1260 m 0
 797 1321 707 1346 601 1346 c 0
 356 1346 190 1212 190 1014 c 0
 190 850 305 742 563 664 c 0
 825 585 947 474 947 314 c 0
 947 132 788 15 539 15 c 0
 406 15 253 48 145 108 c 1024
EndSplineSet
EndChar

StartChar: T
Encoding: 84 84 32
GlifName: T_
Width: 1463
Flags: HMW
LayerCount: 3
Fore
SplineSet
734 -14 m 0
 724 -14 716 -8 716 2 c 0
 710 185 705 368 705 551 c 0
 705 803 712 1048 724 1296 c 0
 724 1306 732 1312 742 1312 c 0
 752 1312 759 1304 759 1294 c 0
 747 1046 741 803 741 551 c 0
 741 368 744 187 750 4 c 0
 750 -6 744 -14 734 -14 c 0
168 1316 m 0
 168 1326 175 1333 185 1333 c 2
 1288 1314 l 2
 1298 1314 1305 1307 1305 1297 c 0
 1305 1287 1298 1280 1288 1280 c 2
 185 1299 l 2
 175 1299 168 1306 168 1316 c 0
EndSplineSet
Layer: 2
SplineSet
733 3 m 0
 727 186 723 368 723 551 c 0
 723 803 729 1047 741 1295 c 1024
185 1316 m 1
 1288 1297 l 1025
EndSplineSet
EndChar

StartChar: U
Encoding: 85 85 33
GlifName: U_
Width: 1350
Flags: HMW
LayerCount: 3
Fore
SplineSet
303 1351 m 0
 312 1349 318 1339 316 1330 c 0
 274 1138 243 949 243 734 c 0
 243 368 315 32 656 32 c 0
 1083 32 1117 661 1117 1095 c 0
 1117 1183 1114 1273 1110 1360 c 0
 1110 1370 1116 1378 1126 1378 c 0
 1136 1378 1145 1372 1145 1362 c 0
 1149 1275 1153 1185 1153 1095 c 0
 1153 675 1127 -2 656 -2 c 0
 279 -2 207 372 207 734 c 0
 207 953 240 1144 282 1338 c 0
 284 1347 294 1353 303 1351 c 0
EndSplineSet
Layer: 2
SplineSet
299 1334 m 0
 257 1141 225 951 225 734 c 0
 225 370 297 15 656 15 c 0
 1105 15 1135 668 1135 1095 c 0
 1135 1184 1131 1274 1127 1361 c 1024
EndSplineSet
EndChar

StartChar: V
Encoding: 86 86 34
GlifName: V_
Width: 1408
Flags: HMW
LayerCount: 3
Fore
SplineSet
179 1333 m 0
 188 1336 199 1331 202 1322 c 2
 628 91 l 1
 1217 1324 l 2
 1221 1333 1232 1336 1241 1332 c 0
 1250 1328 1253 1317 1249 1308 c 2
 641 37 l 2
 640 34 636 31 632 29 c 0
 623 25 611 29 608 39 c 2
 168 1310 l 2
 165 1319 170 1330 179 1333 c 0
EndSplineSet
Layer: 2
SplineSet
185 1316 m 0
 625 45 l 1
 1233 1316 l 1024
EndSplineSet
EndChar

StartChar: W
Encoding: 87 87 35
GlifName: W_
Width: 1986
Flags: HMW
LayerCount: 3
Fore
SplineSet
180 1366 m 0
 189 1369 199 1363 202 1354 c 2
 521 97 l 1
 979 1186 l 2
 983 1195 994 1200 1003 1195 c 0
 1007 1193 1011 1189 1012 1185 c 2
 1380 99 l 1
 1794 1322 l 2
 1797 1331 1808 1336 1817 1333 c 0
 1826 1330 1831 1319 1828 1310 c 2
 1397 39 l 2
 1396 35 1392 31 1387 29 c 0
 1378 25 1366 29 1363 39 c 2
 993 1130 l 1
 534 38 l 2
 532 34 528 31 524 29 c 0
 515 25 504 30 501 40 c 2
 168 1344 l 2
 165 1353 171 1363 180 1366 c 0
EndSplineSet
Layer: 2
SplineSet
185 1349 m 0
 518 45 l 1
 995 1179 l 1
 1380 45 l 1
 1811 1316 l 1024
EndSplineSet
EndChar

StartChar: X
Encoding: 88 88 36
GlifName: X_
Width: 1307
Flags: HMW
LayerCount: 3
Fore
SplineSet
175 -14 m 0
 167 -9 166 2 171 10 c 2
 1081 1348 l 2
 1086 1356 1097 1357 1105 1352 c 0
 1113 1347 1114 1336 1109 1328 c 2
 199 -10 l 2
 194 -18 183 -19 175 -14 c 0
218 1291 m 0
 226 1296 237 1295 242 1287 c 2
 1146 6 l 2
 1151 -2 1150 -13 1142 -18 c 0
 1134 -23 1123 -22 1118 -14 c 2
 214 1267 l 2
 209 1275 210 1286 218 1291 c 0
EndSplineSet
Layer: 2
SplineSet
185 0 m 0
 1095 1338 l 1024
228 1277 m 0
 1132 -4 l 1024
EndSplineSet
EndChar

StartChar: Y
Encoding: 89 89 37
GlifName: Y_
Width: 1307
Flags: HMW
LayerCount: 3
Fore
SplineSet
175 1331 m 0
 183 1337 193 1335 199 1327 c 2
 650 664 l 1
 1118 1318 l 2
 1123 1326 1134 1327 1142 1322 c 0
 1150 1317 1151 1306 1146 1298 c 2
 664 623 l 2
 663 622 662 621 661 620 c 0
 653 614 642 615 636 623 c 2
 171 1307 l 2
 165 1315 167 1325 175 1331 c 0
661 -17 m 0
 651 -17 644 -10 644 0 c 2
 633 633 l 2
 633 643 640 650 650 650 c 0
 660 650 667 643 667 633 c 2
 678 0 l 2
 678 -10 671 -17 661 -17 c 0
EndSplineSet
Layer: 2
SplineSet
185 1317 m 1
 650 633 l 1
 1132 1308 l 1025
661 0 m 1
 650 633 l 1025
EndSplineSet
EndChar

StartChar: Z
Encoding: 90 90 38
GlifName: Z_
Width: 1412
Flags: HMW
LayerCount: 3
Fore
SplineSet
168 1266 m 0
 166 1275 172 1285 181 1287 c 0
 481 1362 907 1373 1153 1311 c 0
 1168 1308 1170 1291 1161 1282 c 0
 787 907 516 476 265 68 c 1
 597 104 877 122 1237 122 c 0
 1247 122 1255 114 1255 104 c 0
 1255 94 1247 86 1237 86 c 0
 866 86 575 68 233 30 c 0
 218 28 209 43 216 56 c 0
 467 468 737 901 1114 1284 c 1
 870 1336 470 1323 189 1253 c 0
 180 1251 170 1257 168 1266 c 0
EndSplineSet
Layer: 2
SplineSet
185 1270 m 1
 481.647460938 1344.16210938 908 1355 1149 1294 c 1
 764 908 486 466 231 47 c 1
 573.64453125 85.3076171875 865.279296875 104 1237 104 c 1024
EndSplineSet
EndChar

StartChar: zero
Encoding: 48 48 39
GlifName: zero
Width: 737
Flags: HMW
LayerCount: 3
Fore
SplineSet
198 486 m 0
 198 243 289 32 530 32 c 0
 894 32 984 470 984 843 c 0
 984 1094 841 1328 600 1328 c 0
 277 1328 198 820 198 486 c 0
162 486 m 0
 162 810 235 1364 600 1364 c 0
 869 1364 1018 1104 1018 843 c 0
 1018 474 932 -2 530 -2 c 0
 259 -2 162 239 162 486 c 0
EndSplineSet
Layer: 2
SplineSet
180 486 m 0
 180 815 256 1346 600 1346 c 0
 855 1346 1001 1099 1001 843 c 0
 1001 472 913 15 530 15 c 0
 274 15 180 241 180 486 c 0
EndSplineSet
Substitution2: "Single Substitution lookup 178 subtable" uni0660.EoA
EndChar

StartChar: one
Encoding: 49 49 40
GlifName: one
Width: 845
Flags: HMW
LayerCount: 3
Fore
SplineSet
606 -17 m 0
 596 -17 589 -10 589 0 c 2
 598 1316 l 2
 598 1326 605 1333 615 1333 c 0
 625 1333 632 1326 632 1316 c 2
 623 0 l 2
 623 -10 616 -17 606 -17 c 0
627 1329 m 0
 634 1323 634.814445484 1310.20993822 628 1304 c 0
 504 1191 335 1089 188 1032 c 0
 178.817306048 1028.43936357 168 1031 164 1040 c 0
 160 1049 162.807611845 1060.46446609 172 1064 c 0
 315 1119 481 1218 602 1328 c 0
 608.821910402 1334.20173673 620 1335 627 1329 c 0
EndSplineSet
Layer: 2
SplineSet
606 0 m 1
 615 1316 l 1025
615 1316 m 1
 492.229492188 1204.79296875 324.765625 1104.23730469 180 1048 c 1024
EndSplineSet
Substitution2: "Single Substitution lookup 178 subtable" uni0661.EoA
EndChar

StartChar: two
Encoding: 50 50 41
GlifName: two
Width: 1201
Flags: HMW
LayerCount: 3
Fore
SplineSet
228 920.003333521 m 0
 218.61928482 920.003333521 211.003333521 927.61928482 211.003333521 937 c 0
 211.003333521 1164.6778895 358.494008703 1361.99666648 593 1361.99666648 c 0
 813.360570105 1361.99666648 989.996666479 1192.83520094 989.996666479 988 c 0
 989.996666479 776.809868768 795.594814642 590.105617471 568.523190792 380.50104161 c 2
 228.646661283 66.768860524 l 1
 367.202672502 79.2095351218 504.685354082 83.9966664792 646 83.9966664792 c 0
 772.370637633 83.9966664792 881.71097292 79.9820835263 1011.78955979 73.9784564398 c 0
 1020.80174672 73.562509351 1027.99107231 66.114191591 1027.99107231 56.9999674158 c 0
 1027.99107231 47.4733733302 1020.10709441 39.5414476841 1010.21044021 40.0215435602 c 0
 880.28902708 46.0179164737 771.629362367 50.0033335208 646 50.0033335208 c 0
 488.432080983 50.0033335208 336.047824573 44.0294350223 181.753919338 28.1023222239 c 0
 174.408506764 27.3440860871 168.72370104 30.9613182896 165.626814217 35.9999998016 c 0
 161.085440777 43.388882801 163.26132717 52.684667278 168.476809208 57.4989583902 c 2
 545.476809208 405.49895839 l 2
 766.615731013 609.627193903 956.003333521 796.895691596 956.003333521 988 c 0
 956.003333521 1173.83030674 794.541167346 1328.00333352 593 1328.00333352 c 0
 377.693451198 1328.00333352 244.996666479 1147.35357004 244.996666479 937 c 0
 244.996666479 927.61928482 237.38071518 920.003333521 228 920.003333521 c 0
EndSplineSet
Layer: 2
SplineSet
228 937 m 0
 228 1158 370 1345 593 1345 c 0
 830 1345 973 1158 973 988 c 0
 973 798 808 625 557 393 c 2
 180 45 l 1
 335 61 488 67 646 67 c 0
 772 67 881 63 1011 57 c 1024
EndSplineSet
Substitution2: "Single Substitution lookup 178 subtable" uni0662.EoA
EndChar

StartChar: three
Encoding: 51 51 42
GlifName: three
Width: 1123
Flags: HMW
LayerCount: 3
Fore
SplineSet
241 1050 m 0
 232 1052 226 1062 228 1071 c 0
 269 1253 416 1364 601 1364 c 0
 760 1364 908 1254 908 1008 c 0
 908 760 612 686 383 654 c 0
 374 653 365 660 364 669 c 0
 363 678 370 687 379 688 c 0
 614 720 872 796 872 1008 c 0
 872 1238 742 1328 601 1328 c 0
 430 1328 299 1229 262 1063 c 0
 260 1054 250 1048 241 1050 c 0
167 137 m 0
 173 144 184 146 191 140 c 0
 277 69 392 32 504 32 c 0
 732 32 920 200 921 412 c 1
 914 608 757 672 551 672 c 0
 493 672 435 663 384 654 c 0
 375 652 366 659 364 668 c 0
 362 677 369 686 378 688 c 0
 429 697 489 708 551 708 c 0
 761 708 949 638 956 412 c 1
 956 178 749 -2 504 -2 c 0
 384 -2 262 35 169 112 c 0
 162 118 161 130 167 137 c 0
EndSplineSet
Layer: 2
SplineSet
245 1067 m 0
 284 1241 423 1346 601 1346 c 0
 751 1346 890 1246 890 1008 c 0
 890 778 613 703 381 671 c 1025
381 671 m 1
 432 680 491 690 551 690 c 0
 759 690 931 623 938 412 c 1
 938 190 741 15 504 15 c 0
 388 15 270 52 180 126 c 1024
EndSplineSet
Substitution2: "Single Substitution lookup 178 subtable" uni0663.EoA
EndChar

StartChar: four
Encoding: 52 52 43
GlifName: four
Width: 1308
Flags: HMW
LayerCount: 3
Fore
SplineSet
759 1332 m 0
 768 1328 772 1318 768 1309 c 0
 656 1031 375 561 221 345 c 1
 499 311 880 336 1134 398 c 0
 1143 400 1153 394 1155 385 c 0
 1157 376 1151 366 1142 364 c 0
 873 299 474 274 188 315 c 0
 186 315 183 316 181 317 c 0
 172 322 170 334 176 342 c 0
 325 543 621 1039 736 1323 c 0
 740 1332 750 1336 759 1332 c 0
886 698 m 0
 895 697 902 688 901 679 c 2
 825 -2 l 2
 824 -11 815 -18 806 -17 c 0
 797 -16 790 -7 791 2 c 2
 867 683 l 2
 868 692 877 699 886 698 c 0
EndSplineSet
Layer: 2
SplineSet
752 1316 m 0
 636.40234375 1029.7578125 340 535 190 332 c 1
 472.6796875 291.6171875 872.139648438 316.239257812 1138 381 c 1024
884 681 m 1
 808 -1 l 1025
EndSplineSet
Substitution2: "Single Substitution lookup 178 subtable" uni0664.EoA
EndChar

StartChar: five
Encoding: 53 53 44
GlifName: five
Width: 1163
Flags: HMW
LayerCount: 3
Fore
SplineSet
980 1341 m 0
 982 1332 976 1322 967 1320 c 0
 899 1305 791 1298 657 1298 c 0
 521 1298 380 1305 291 1320 c 1
 241 814 l 1
 332 882 437 914 538 914 c 0
 768 914 990 798 990 470 c 0
 990 169 768 -2 516 -2 c 0
 394 -2 270 37 169 118 c 0
 162 124 160 136 166 143 c 0
 172 150 184 152 191 146 c 0
 286 71 402 32 516 32 c 0
 752 32 956 189 956 470 c 0
 956 776 756 878 538 878 c 0
 432 878 321 841 231 761 c 0
 228 759 224 757 219 757 c 0
 209 757 201 766 202 776 c 2
 258 1343 l 2
 259 1352 267 1360 278 1358 c 0
 360 1342 513 1334 657 1334 c 0
 789 1334 895 1341 959 1354 c 0
 968 1356 978 1350 980 1341 c 0
EndSplineSet
Layer: 2
SplineSet
963 1337 m 0
 897 1323 790 1316 657 1316 c 0
 512 1316 360 1324 275 1341 c 1
 219 774 l 1
 312 857 428 896 538 896 c 0
 762 896 973 787 973 470 c 0
 973 179 760 15 516 15 c 0
 398 15 278 54 180 132 c 1024
EndSplineSet
Substitution2: "Single Substitution lookup 178 subtable" uni0665.EoA
EndChar

StartChar: six
Encoding: 54 54 45
GlifName: six
Width: 1149
Flags: HMW
LayerCount: 3
Fore
SplineSet
578 32 m 0
 796 32 956 204 952 417 c 0
 947 677 782 794 606 794 c 0
 430 794 260 671 215 597 c 0
 210 589 199 586 191 591 c 0
 183 596 180 607 185 615 c 0
 238 701 416 828 606 828 c 0
 800 828 981 695 986 417 c 0
 990 186 816 -2 578 -2 c 0
 298 -2 172 213 172 613 c 0
 172 913 266 1334 649 1334 c 0
 717 1334 794 1323 879 1298 c 0
 888 1295 894 1285 891 1276 c 0
 888 1267 878 1261 869 1264 c 0
 786 1289 713 1300 649 1300 c 0
 304 1300 208 917 208 614 c 0
 208 223 322 32 578 32 c 0
EndSplineSet
Layer: 2
SplineSet
874 1281 m 0
 790 1306 715 1317 649 1317 c 0
 285 1317 190 915 190 606 c 0
 190 218 310 15 578 15 c 1025
578 15 m 1
 806 15 969 191 969 417 c 0
 969 686.046464389 791 811 606 811 c 0
 423 811 249 686 200 606 c 1024
EndSplineSet
Substitution2: "Single Substitution lookup 178 subtable" uni0666.EoA
EndChar

StartChar: eight
Encoding: 56 56 46
GlifName: eight
Width: 1109
Flags: HMW
LayerCount: 3
Fore
SplineSet
172 285 m 0
 172 600 582 883 929 1078 c 0
 939 1084 949 1079 953 1071 c 0
 957 1063 956 1053 947 1048 c 0
 609 858 206 580 206 285 c 0
 206 127 343 36 519 36 c 0
 673 36 812 123 812 275 c 0
 812 408 619 559 506 641 c 0
 377 735 172 887 172 1067 c 0
 172 1237 318 1364 507 1364 c 0
 716 1364 841 1235 891 1071 c 0
 894 1060 888 1052 880 1049 c 0
 871 1046 860 1050 857 1061 c 0
 810 1214 698 1330 507 1330 c 0
 334 1330 206 1215 206 1067 c 0
 206 903 408 754 530 665 c 0
 651 577 848 425 848 275 c 0
 848 97 683 2 519 2 c 0
 324 2 172 108 172 285 c 0
EndSplineSet
Layer: 2
SplineSet
874 1066 m 0
 826 1225 707 1347 507 1347 c 0
 326 1347 189 1226 189 1067 c 0
 189 910 358 776 523 648 c 0
 679.4765625 526.612304688 830 408 830 275 c 0
 830 110 678 19 519 19 c 0
 308 19 189 137 189 285 c 0
 189 512 423 773 938 1063 c 1024
EndSplineSet
Substitution2: "Single Substitution lookup 178 subtable" uni0668.EoA
EndChar

StartChar: period
Encoding: 46 46 47
GlifName: period
Width: 490
Flags: HMW
LayerCount: 3
Fore
SplineSet
197 87 m 0
 197 114 217 138 251 138 c 0
 280 138 293 111 293 94 c 0
 293 60 274 36 246 36 c 0
 212 36 197 69 197 87 c 0
EndSplineSet
Layer: 2
SplineSet
215 87 m 0
 215 75 226 53 246 53 c 0
 262 53 275 65 275 94 c 0
 275 105 267 120 251 120 c 0
 226 120 215 105 215 87 c 0
EndSplineSet
EndChar

StartChar: comma
Encoding: 44 44 49
GlifName: comma
Width: 488
Flags: HMW
LayerCount: 3
Fore
SplineSet
113 -222 m 0
 105 -217 102 -206 107 -198 c 2
 337 198 l 2
 342 206 353 209 361 204 c 0
 369 199 372 188 367 180 c 2
 137 -216 l 2
 132 -224 121 -227 113 -222 c 0
EndSplineSet
Layer: 2
SplineSet
122 -207 m 1
 352 189 l 1025
EndSplineSet
EndChar

StartChar: bracketleft
Encoding: 91 91 51
GlifName: bracketleft
Width: 725
Flags: HMW
LayerCount: 3
Fore
SplineSet
542 1322 m 0
 543 1312 536 1305 526 1304 c 0
 475 1300 424 1298 371 1298 c 0
 325 1298 279 1299 234 1302 c 1
 246 1191 252 1082 252 972 c 0
 252 828 243 686 235 548 c 0
 227 417 228 389 228 266 c 0
 228 94 321 71 521 62 c 0
 531 62 538 54 538 44 c 0
 538 34 529 28 519 28 c 0
 320 37 192 66 192 266 c 0
 192 389 193 419 201 550 c 0
 209 688 216 830 216 972 c 0
 216 1087 211 1203 197 1319 c 0
 196 1327 202 1339 215 1338 c 0
 267 1334 318 1334 371 1334 c 0
 424 1334 475 1334 524 1338 c 0
 534 1339 541 1332 542 1322 c 0
EndSplineSet
Layer: 2
SplineSet
525 1321 m 0
 475 1317 424 1316 371 1316 c 0
 318 1316 267 1317 214 1321 c 1
 228 1204 234 1088 234 972 c 0
 234 829 226 687 218 549 c 0
 210 418 210 389 210 266 c 0
 210 80 321 54 520 45 c 1024
EndSplineSet
EndChar

StartChar: bracketright
Encoding: 93 93 52
GlifName: bracketright
Width: 736
Flags: HMW
LayerCount: 3
Fore
SplineSet
193 1346 m 0
 194 1355 204 1361 213 1360 c 0
 307 1345 414 1335 520 1333 c 0
 531 1333 539 1322 537 1312 c 0
 501 1148 500 1063 500 875 c 0
 500 778 511 681 526 582 c 0
 541 483 554 382 554 285 c 0
 554 72 400 28 217 28 c 0
 207 28 200 35 200 45 c 0
 200 55 207 62 217 62 c 0
 398 62 518 100 518 285 c 0
 518 380 507 477 492 576 c 0
 477 675 464 776 464 875 c 0
 464 1055 466 1145 498 1299 c 1
 398 1302 296 1312 207 1326 c 0
 198 1327 192 1337 193 1346 c 0
EndSplineSet
Layer: 2
SplineSet
210 1343 m 0
 305 1328 413 1318 520 1316 c 1
 484 1151 482 1063 482 875 c 0
 482 777 494 678 509 579 c 0
 524 480 536 381 536 285 c 0
 536 86 399 45 217 45 c 1024
EndSplineSet
PairPos2: "kernHorizontalKerninginArabiclookup0 subtable" uni0622 dx=200 dy=0 dh=200 dv=0 dx=0 dy=0 dh=0 dv=0
PairPos2: "kernHorizontalKerninginArabiclookup0 subtable" uni0639 dx=-150 dy=0 dh=-150 dv=0 dx=0 dy=0 dh=0 dv=0
PairPos2: "kernHorizontalKerninginArabiclookup0 subtable" uni063A dx=-150 dy=0 dh=-150 dv=0 dx=0 dy=0 dh=0 dv=0
EndChar

StartChar: braceleft
Encoding: 123 123 53
GlifName: braceleft
Width: 705
Flags: HMW
LayerCount: 3
Fore
SplineSet
92 752 m 0
 92 762 100 770 110 770 c 0
 449 770 84 1428 505 1428 c 0
 515 1428 523 1421 523 1411 c 0
 523 1401 515 1394 505 1394 c 0
 135 1394 502 734 110 734 c 0
 100 734 92 742 92 752 c 0
522 93 m 0
 522 83 515 76 505 76 c 0
 88 76 446 734 110 734 c 0
 100 734 93 742 93 752 c 0
 93 762 100 770 110 770 c 0
 499 770 138 110 505 110 c 0
 515 110 522 103 522 93 c 0
EndSplineSet
Layer: 2
SplineSet
505 93 m 0
 112.973632812 93 472.40625 752 110 752 c 1025
110 752 m 1
 475.623046875 752 109.567382812 1411 505 1411 c 1024
EndSplineSet
EndChar

StartChar: braceright
Encoding: 125 125 54
GlifName: braceright
Width: 705
Flags: HMW
LayerCount: 3
Fore
SplineSet
192 1411 m 0
 192 1421 200 1428 210 1428 c 0
 627 1428 269 770 605 770 c 0
 615 770 623 762 623 752 c 0
 623 742 615 734 605 734 c 0
 216 734 577 1394 210 1394 c 0
 200 1394 192 1401 192 1411 c 0
622 752 m 0
 622 742 615 734 605 734 c 0
 266 734 630 76 210 76 c 0
 200 76 193 83 193 93 c 0
 193 103 200 110 210 110 c 0
 580 110 213 770 605 770 c 0
 615 770 622 762 622 752 c 0
EndSplineSet
Layer: 2
SplineSet
210 1411 m 0
 602.026367188 1411 242.59375 752 605 752 c 1025
605 752 m 1
 239.376953125 752 605.432617188 93 210 93 c 1024
EndSplineSet
PairPos2: "kernHorizontalKerninginArabiclookup0 subtable" uni0622 dx=200 dy=0 dh=200 dv=0 dx=0 dy=0 dh=0 dv=0
PairPos2: "kernHorizontalKerninginArabiclookup0 subtable" uni0639 dx=-150 dy=0 dh=-150 dv=0 dx=0 dy=0 dh=0 dv=0
PairPos2: "kernHorizontalKerninginArabiclookup0 subtable" uni063A dx=-150 dy=0 dh=-150 dv=0 dx=0 dy=0 dh=0 dv=0
EndChar

StartChar: grave
Encoding: 96 96 55
GlifName: grave
Width: 549
Flags: HMW
LayerCount: 3
Fore
SplineSet
179 1496 m 0
 186 1502 198 1500 204 1493 c 0
 265 1416 338 1279 385 1176 c 0
 389 1167 385 1157 376 1153 c 0
 367 1149 357 1153 353 1162 c 0
 307 1263 233 1398 176 1471 c 0
 170 1478 172 1490 179 1496 c 0
EndSplineSet
Layer: 2
SplineSet
190 1482 m 1
 249 1407 323 1271 369 1169 c 1025
EndSplineSet
EndChar

StartChar: bar
Encoding: 124 124 56
GlifName: bar
Width: 427
Flags: HMW
LayerCount: 3
Fore
SplineSet
227 1476 m 0
 237 1476 244 1469 244 1459 c 0
 244 1040 235 367 228 0 c 0
 228 -10 220 -17 210 -17 c 0
 200 -17 193 -10 193 0 c 0
 200 367 210 1040 210 1459 c 0
 210 1469 217 1476 227 1476 c 0
EndSplineSet
Layer: 2
SplineSet
227 1459 m 0
 227 1040 217 367 210 0 c 1024
EndSplineSet
EndChar

StartChar: asciicircum
Encoding: 94 94 57
GlifName: asciicircum
Width: 728
Flags: HMW
LayerCount: 3
Fore
SplineSet
181 1154 m 0
 173 1159 170 1170 175 1178 c 2
 341 1447 l 2
 348 1460 364 1457 370 1449 c 2
 562 1208 l 2
 568 1201 566 1189 559 1183 c 0
 552 1177 540 1179 534 1186 c 2
 358 1408 l 1
 205 1160 l 2
 200 1152 189 1149 181 1154 c 0
EndSplineSet
Layer: 2
SplineSet
190 1169 m 25
 356 1438 l 1
 548 1197 l 1049
EndSplineSet
EndChar

StartChar: hyphen
Encoding: 45 45 58
GlifName: hyphen
Width: 1094
Flags: HMW
LayerCount: 3
Fore
SplineSet
173 439 m 0
 172 448 179 457 188 458 c 0
 346 477 495 484 648 484 c 0
 732 484 818 482 904 478 c 0
 914 478 921 470 921 460 c 0
 921 450 912 444 902 444 c 0
 816 448 732 450 648 450 c 0
 497 450 348 443 192 424 c 0
 183 423 174 430 173 439 c 0
EndSplineSet
Layer: 2
SplineSet
190 441 m 0
 347 460 496 467 648 467 c 0
 732 467 817 465 903 461 c 1024
EndSplineSet
EndChar

StartChar: plus
Encoding: 43 43 59
GlifName: plus
Width: 1094
Flags: HMW
LayerCount: 3
Fore
SplineSet
532 828 m 0
 541 829 550 822 551 813 c 0
 570 655 577 506 577 353 c 0
 577 269 575 183 571 97 c 0
 571 87 563 80 553 80 c 0
 543 80 537 89 537 99 c 0
 541 185 543 269 543 353 c 0
 543 504 536 653 517 809 c 0
 516 818 523 827 532 828 c 0
173 439 m 0
 172 448 179 457 188 458 c 0
 346 477 495 484 648 484 c 0
 732 484 818 482 904 478 c 0
 914 478 921 470 921 460 c 0
 921 450 912 444 902 444 c 0
 816 448 732 450 648 450 c 0
 497 450 348 443 192 424 c 0
 183 423 174 430 173 439 c 0
EndSplineSet
Layer: 2
SplineSet
533.5 810.5 m 0
 552.5 653.5 559.5 504.5 559.5 352.5 c 0
 559.5 268.5 557.5 183.5 553.5 97.5 c 1024
190 441 m 0
 347 460 496 467 648 467 c 0
 732 467 817 465 903 461 c 1024
EndSplineSet
EndChar

StartChar: exclam
Encoding: 33 33 60
GlifName: exclam
Width: 593
Flags: HMW
LayerCount: 3
Fore
SplineSet
258 1378 m 0
 267 1379 276 1372 277 1363 c 0
 313 1098 322 836 322 547 c 0
 322 508 322 466 321 424 c 0
 321 414 313 407 303 407 c 0
 293 407 286 414 286 424 c 0
 287 466 288 508 288 547 c 0
 288 836 279 1096 243 1359 c 0
 242 1368 249 1377 258 1378 c 0
360 85 m 0
 360 55 344 28 308 28 c 0
 278 28 242 45 242 84 c 0
 242 118 269 146 304 146 c 0
 340 146 360 117 360 85 c 0
EndSplineSet
Layer: 2
SplineSet
260 1361 m 0
 296 1097 305 836 305 547 c 0
 305 508 305 466 304 424 c 1024
343 85 m 0
 343 60 333 45 308 45 c 0
 283 45 260 59 260 84 c 0
 260 109 279 128 304 128 c 0
 329 128 343 110 343 85 c 0
EndSplineSet
EndChar

StartChar: quotesingle
Encoding: 39 39 62
GlifName: quotesingle
Width: 341
Flags: HMW
LayerCount: 3
Fore
SplineSet
168 893 m 0
 159 894 152 903 153 912 c 0
 160 975 164 1050 164 1126 c 0
 164 1204 160 1286 153 1359 c 0
 152 1368 159 1377 168 1378 c 0
 177 1379 187 1372 188 1363 c 0
 195 1288 198 1206 198 1126 c 0
 198 1048 194 973 187 908 c 0
 186 899 177 892 168 893 c 0
EndSplineSet
Layer: 2
SplineSet
170 910 m 0
 177 974 181 1049 181 1126 c 0
 181 1205 177 1287 170 1361 c 1032
EndSplineSet
EndChar

StartChar: parenleft
Encoding: 40 40 63
GlifName: parenleft
Width: 616
Flags: HMW
LayerCount: 3
Fore
SplineSet
378 1428 m 0
 387 1424 390 1413 386 1404 c 0
 259 1143 228 966 228 682 c 0
 228 401 304 225 432 -38 c 0
 436 -47 433 -58 424 -62 c 0
 415 -66 404 -63 400 -54 c 0
 272 209 192 393 192 682 c 0
 192 968 225 1155 354 1420 c 0
 358 1429 369 1432 378 1428 c 0
EndSplineSet
Layer: 2
SplineSet
370 1412 m 1
 242 1149 210 967 210 682 c 0
 210 397 288 217 416 -46 c 1025
EndSplineSet
EndChar

StartChar: parenright
Encoding: 41 41 64
GlifName: parenright
Width: 616
Flags: HMW
LayerCount: 3
Fore
SplineSet
248 -62 m 0
 239 -58 236 -47 240 -38 c 0
 367 223 398 400 398 684 c 0
 398 965 322 1141 194 1404 c 0
 190 1413 193 1424 202 1428 c 0
 211 1432 222 1429 226 1420 c 0
 354 1157 434 973 434 684 c 0
 434 398 401 211 272 -54 c 0
 268 -63 257 -66 248 -62 c 0
EndSplineSet
Layer: 2
SplineSet
256 -46 m 1
 384 217 416 399 416 684 c 0
 416 969 338 1149 210 1412 c 1025
EndSplineSet
PairPos2: "kernHorizontalKerninginArabiclookup0 subtable" uni0622 dx=200 dy=0 dh=200 dv=0 dx=0 dy=0 dh=0 dv=0
PairPos2: "kernHorizontalKerninginArabiclookup0 subtable" uni0639 dx=-150 dy=0 dh=-150 dv=0 dx=0 dy=0 dh=0 dv=0
PairPos2: "kernHorizontalKerninginArabiclookup0 subtable" uni063A dx=-150 dy=0 dh=-150 dv=0 dx=0 dy=0 dh=0 dv=0
EndChar

StartChar: less
Encoding: 60 60 65
GlifName: less
Width: 655
Flags: HMW
LayerCount: 3
Fore
SplineSet
504 298 m 0
 496 293 485 296 480 304 c 0
 407 424 319 528 218 616 c 0
 209 624 212 637 219 642 c 0
 320 726 408 828 480 954 c 0
 485 962 496 965 504 960 c 0
 512 955 515 944 510 936 c 0
 439 813 355 714 257 629 c 1
 353 542 439 439 510 322 c 0
 515 314 512 303 504 298 c 0
EndSplineSet
Layer: 2
SplineSet
495 313 m 1
 421 435 332 540 230 629 c 1
 332 714 422 817 495 945 c 1025
EndSplineSet
EndChar

StartChar: backslash
Encoding: 92 92 66
GlifName: backslash
Width: 975
Flags: HMW
LayerCount: 3
Fore
SplineSet
785.057617188 -15 m 0
 777.057617188 -20 765.057617188 -18 761.057617188 -9 c 2
 194.057617188 1357 l 2
 190.057617188 1366 198.057617188 1376 207.057617188 1378 c 0
 216.057617188 1380 224.057617188 1374 228.057617188 1365 c 2
 791.057617188 9 l 2
 795.057617188 0 793.057617188 -10 785.057617188 -15 c 0
EndSplineSet
Layer: 2
SplineSet
775 0 m 1
 210 1361 l 1025
EndSplineSet
EndChar

StartChar: asterisk
Encoding: 42 42 67
GlifName: asterisk
Width: 1118
Flags: HMW
LayerCount: 3
Fore
SplineSet
931 659 m 0
 925 652 913 650 906 656 c 0
 793 749 675 830 555 900 c 0
 430 973 299 1034 164 1085 c 0
 155 1088 151 1098 154 1107 c 0
 157 1116 167 1120 176 1117 c 0
 313 1066 446 1005 573 930 c 0
 695 860 813 779 928 684 c 0
 935 678 937 666 931 659 c 0
196 659 m 0
 190 666 192 678 199 684 c 0
 314 779 433 860 555 930 c 0
 682 1005 815 1066 952 1117 c 0
 961 1120 971 1116 974 1107 c 0
 977 1098 973 1088 964 1085 c 0
 829 1034 698 973 573 900 c 0
 453 830 334 749 221 656 c 0
 214 650 202 652 196 659 c 0
546.8828125 1362.22363281 m 0
 556.0234375 1363.43164062 564.37890625 1355.67382812 565.586914062 1346.53320312 c 0
 578.588867188 1196.83105469 582 1056 582 915 c 0
 582 767 576.9453125 626.009765625 565.586914062 480.466796875 c 0
 564.37890625 471.326171875 556.0234375 463.568359375 546.8828125 464.776367188 c 0
 537.743164062 465.984375 529.985351562 474.33984375 531.193359375 483.48046875 c 0
 542.725585938 627.03125 546 769 546 915 c 0
 546 1054 544.369140625 1195.80957031 531.193359375 1343.51953125 c 0
 529.985351562 1352.66015625 537.743164062 1361.015625 546.8828125 1362.22363281 c 0
EndSplineSet
Layer: 2
SplineSet
917 670 m 0
 803 764 685 845 564 915 c 0
 438 989 306 1050 170 1101 c 1024
210 670 m 0
 324 764 443 845 564 915 c 0
 690 989 822 1050 958 1101 c 1024
547 1345 m 0
 563 1198 564 1055 564 915 c 0
 564 768 561 625 547 482 c 1024
EndSplineSet
EndChar

StartChar: numbersign
Encoding: 35 35 68
GlifName: numbersign
Width: 1744
Flags: HMW
LayerCount: 3
Fore
SplineSet
153 417 m 0
 153 427 160 434 170 434 c 2
 1521 441 l 2
 1531 441 1537 434 1537 424 c 0
 1537 414 1530 407 1520 407 c 2
 169 400 l 2
 159 400 153 407 153 417 c 0
245 983 m 0
 245 993 251 1001 261 1001 c 2
 1584 1016 l 2
 1594 1016 1601 1010 1601 1000 c 0
 1601 990 1595 982 1585 982 c 2
 262 967 l 2
 252 967 245 973 245 983 c 0
1060 -17 m 0
 1051 -15 1044 -6 1046 3 c 2
 1306 1364 l 2
 1308 1373 1317 1380 1326 1378 c 0
 1335 1376 1342 1367 1340 1358 c 2
 1080 -3 l 2
 1078 -12 1069 -19 1060 -17 c 0
430 -27 m 0
 421 -24 414 -15 417 -6 c 2
 752 1375 l 2
 755 1384 764 1391 773 1388 c 0
 782 1385 789 1376 786 1367 c 2
 451 -14 l 2
 448 -23 439 -30 430 -27 c 0
EndSplineSet
Layer: 2
SplineSet
169 417 m 1
 1520 425 l 1025
260 983 m 1
 1582 999 l 1025
1063 0 m 1
 1323 1361 l 1025
434 -12 m 1
 769 1371 l 1025
EndSplineSet
EndChar

StartChar: percent
Encoding: 37 37 69
GlifName: percent
Width: 1480
Flags: HMW
LayerCount: 3
Fore
SplineSet
1088 -26 m 0
 1191 -26 1291 53 1291 153 c 0
 1291 254 1204 326 1100 326 c 0
 996 326 931 266 931 163 c 0
 931 58 1002 -26 1088 -26 c 0
1088 -62 m 0
 978 -62 897 44 897 163 c 0
 897 284 980 362 1100 362 c 0
 1220 362 1327 276 1327 153 c 0
 1327 29 1205 -62 1088 -62 c 0
189 1218 m 0
 189 1116 268 1016 368 1016 c 0
 469 1016 541 1101 541 1205 c 0
 541 1309 480 1374 378 1374 c 0
 273 1374 189 1303 189 1218 c 0
153 1218 m 0
 153 1329 259 1408 378 1408 c 0
 500 1408 575 1325 575 1205 c 0
 575 1085 491 980 368 980 c 0
 244 980 153 1100 153 1218 c 0
1184.93847656 1366.15625 m 0
 1193.45507812 1362.62402344 1199.40039062 1351.50976562 1194.09570312 1343.21777344 c 2
 304 -48 l 2
 298.702148438 -56.2998046875 286.333007812 -56.0546875 279.322265625 -49.7421875 c 0
 272.3125 -43.4287109375 272.283203125 -33.3623046875 277.581054688 -25.064453125 c 2
 1162 1357 l 2
 1167.30664062 1365.29296875 1176.42382812 1369.68847656 1184.93847656 1366.15625 c 0
EndSplineSet
Layer: 2
SplineSet
290 -37 m 1
 1178 1350 l 1041
378 1390 m 0
 489 1390 557 1316 557 1205 c 0
 557 1095 480 1000 368 1000 c 0
 255 1000 173 1110 173 1218 c 0
 173 1322 274 1390 378 1390 c 0
915 163 m 0
 915 275 988 342 1100 342 c 0
 1210 342 1307 266 1307 153 c 0
 1307 40 1197 -42 1088 -42 c 0
 983 -42 915 59 915 163 c 0
EndSplineSet
EndChar

StartChar: slash
Encoding: 47 47 70
GlifName: slash
Width: 975
Flags: HMW
LayerCount: 3
Fore
SplineSet
201 -15 m 0
 193 -10 191 0 195 9 c 2
 758 1365 l 2
 762 1374 770 1380 779 1378 c 0
 788 1376 796 1366 792 1357 c 2
 225 -9 l 2
 221 -18 209 -20 201 -15 c 0
EndSplineSet
Layer: 2
SplineSet
210 0 m 1
 775 1361 l 1025
EndSplineSet
EndChar

StartChar: greater
Encoding: 62 62 71
GlifName: greater
Width: 655
Flags: HMW
LayerCount: 3
Fore
SplineSet
161 961 m 0
 169 966 180 963 185 955 c 0
 258 835 346 731 447 643 c 0
 456 635 453 622 446 617 c 0
 345 533 257 431 185 305 c 0
 180 297 169 294 161 299 c 0
 153 304 150 315 155 323 c 0
 225 446 311 546 408 630 c 1
 312 717 226 820 155 937 c 0
 150 945 153 956 161 961 c 0
EndSplineSet
Layer: 2
SplineSet
170 946 m 1
 244 824 333 719 435 630 c 1
 333 545 243 442 170 314 c 1025
EndSplineSet
EndChar

StartChar: equal
Encoding: 61 61 72
GlifName: equal
Width: 1047
Flags: HMW
LayerCount: 3
Fore
SplineSet
153 827 m 0
 154 836 163 843 172 842 c 0
 286 832 475 828 567 828 c 0
 677 828 793 834 886 842 c 0
 895 843 904 835 905 826 c 0
 906 817 898 809 889 808 c 0
 795 800 679 794 567 794 c 0
 475 794 284 798 168 808 c 0
 159 809 152 818 153 827 c 0
153 424 m 0
 155 433 164 440 173 438 c 0
 225 428 404 424 508 424 c 0
 614 424 756 428 886 438 c 0
 896 439 904 432 905 422 c 0
 906 412 898 405 888 404 c 0
 757 394 616 388 508 388 c 0
 402 388 227 392 167 404 c 0
 158 406 151 415 153 424 c 0
EndSplineSet
EndChar

StartChar: AE
Encoding: 198 198 75
GlifName: A_E_
Width: 1918
Flags: HMW
LayerCount: 3
Fore
SplineSet
1035 1333 m 0
 1045 1333 1052 1326 1052 1316 c 0
 1053 1259 1054 1191 1054 1119 c 0
 1054 828 1052 451 1010 214 c 0
 1007 199 1006 184 1006 173 c 0
 1006 72 1115 25 1257 17 c 0
 1383 9 1484 4 1612 4 c 0
 1654 4 1694 4 1736 5 c 0
 1746 5 1754 -2 1754 -12 c 0
 1754 -22 1747 -29 1737 -29 c 0
 1695 -30 1654 -30 1612 -30 c 0
 1484 -30 1381 -25 1255 -17 c 0
 1115 -9 970 38 970 173 c 0
 970 188 973 205 976 220 c 0
 1016 451 1020 828 1020 1119 c 0
 1020 1191 1019 1259 1018 1316 c 0
 1018 1326 1025 1333 1035 1333 c 0
1775 1378 m 0
 1777 1369 1771 1359 1762 1357 c 0
 1594 1318 1418 1300 1234 1300 c 0
 1166 1300 642 1303 519 1307 c 1
 185 -4 l 2
 183 -13 175 -18 165 -15 c 0
 157 -13 154 -3 156 6 c 2
 484 1325 l 0
 484 1334 493 1343 503 1342 c 0
 577 1338 1163 1334 1234 1334 c 0
 1416 1334 1590 1352 1754 1391 c 0
 1763 1393 1773 1387 1775 1378 c 0
381 661 m 0
 380 671 387 678 397 679 c 0
 558 692 932 698 1129 698 c 0
 1329 698 1527 692 1675 680 c 0
 1685 679 1692 672 1691 662 c 0
 1690 652 1682 645 1672 646 c 0
 1526 658 1329 664 1129 664 c 0
 932 664 558 658 399 645 c 0
 389 644 382 651 381 661 c 0
EndSplineSet
EndChar

StartChar: cedilla
Encoding: 184 184 77
GlifName: cedilla
Width: 727
Flags: HMW
LayerCount: 3
Fore
SplineSet
323 11 m 0
 329 18 341 20 348 14 c 0
 439 -59 584 -228 584 -361 c 0
 584 -455 508 -518 329 -518 c 0
 266 -518 206 -510 165 -498 c 0
 156 -495 150 -485 153 -476 c 0
 156 -467 166 -461 175 -464 c 0
 212 -474 270 -484 329 -484 c 0
 502 -484 550 -427 550 -361 c 0
 550 -250 413 -85 326 -14 c 0
 319 -8 317 4 323 11 c 0
EndSplineSet
Layer: 2
SplineSet
337 0 m 4
 426 -72 567 -239 567 -361 c 5
 567 -441 505 -501 329 -501 c 4
 268 -501 209 -492 170 -481 c 1029
EndSplineSet
EndChar

StartChar: Oslash
Encoding: 216 216 78
GlifName: O_slash
Width: 1494
Flags: HMW
LayerCount: 3
Fore
SplineSet
160 -15 m 0
 152 -10 150 2 155 10 c 0
 506 536 881 929 1322 1329 c 0
 1329 1335 1341 1335 1347 1328 c 0
 1353 1321 1353 1309 1346 1303 c 0
 906 905 534 514 185 -10 c 0
 180 -18 168 -20 160 -15 c 0
EndSplineSet
Refer: 27 79 N 1 0 0 1 0 0 2
Layer: 2
SplineSet
170 0 m 1
 520 525 894 917 1334 1316 c 1025
EndSplineSet
EndChar

StartChar: uniE000
Encoding: 57344 57344 223
GlifName: uniE_000
Width: 509
Flags: HMW
LayerCount: 3
Fore
SplineSet
162 141 m 0
 162 162 179 185 212 185 c 0
 231 185 244 177 252 165 c 0
 256 159 260 149 260 139 c 0
 260 115 248 84 209 84 c 0
 183 84 170 99 165 117 c 0
 163.051757812 124.014648438 162 132 162 141 c 0
EndSplineSet
EndChar

StartChar: uniE001
Encoding: 57345 57345 224
GlifName: uniE_001
Width: 660
Flags: HMW
LayerCount: 3
Fore
SplineSet
111 78 m 0
 108 87 112 98 121 100 c 0
 190 125 295 137 390 137 c 0
 399 137 407 129 407 120 c 0
 407 111 399 103 390 103 c 0
 297 103 196 91 133 68 c 0
 123 64 114 71 111 78 c 0
373 120 m 0
 373 129 381 137 390 137 c 0
 466 137 537 129 583 112 c 0
 591 109 597 99 593 90 c 0
 590 83 580 75 571 80 c 0
 533 95 464 103 390 103 c 0
 381 103 373 111 373 120 c 0
EndSplineSet
Layer: 2
SplineSet
127 84 m 0
 193 108 296 120 390 120 c 1025
390 120 m 1
 465 120 535 112 577 96 c 1024
EndSplineSet
EndChar

StartChar: uniE002
Encoding: 57346 57346 225
GlifName: uniE_002
Width: 696
Flags: HMW
LayerCount: 3
Fore
SplineSet
72 370 m 0
 67 377 65 387 75 395 c 0
 125 432 280 482 402 482 c 0
 412 482 420 474 420 464 c 0
 420 454 412 446 402 446 c 0
 288 446 135 396 95 367 c 0
 87 360 77 363 72 370 c 0
305 113 m 0
 303 122 305 132 316 135 c 0
 403 164 532 290 532 370 c 0
 532 380 540 388 550 388 c 0
 560 388 568 380 568 370 c 0
 568 264 424 137 326 101 c 0
 315 97 308 104 305 113 c 0
384 464 m 0
 384 474 392 482 402 482 c 0
 484 482 567 455 568 370 c 0
 568 360 560 352 550 352 c 0
 540 352 532 360 532 370 c 0
 532 423 483 446 402 446 c 0
 392 446 384 454 384 464 c 0
EndSplineSet
Layer: 2
SplineSet
85 381 m 0
 130 414 284 464 402 464 c 1025
402 464 m 1
 483.778533067 464 548.648769882 439.134858453 548.998578536 370.558106478 c 1025
548.998578536 370.558106478 m 1
 548.999525863 370.372391689 549 370.186356322 549 370 c 0
 549 277 415 145 321 118 c 1024
EndSplineSet
EndChar

StartChar: uniE003
Encoding: 57347 57347 226
GlifName: uniE_003
Width: 696
Flags: HMW
LayerCount: 3
Fore
SplineSet
104 234 m 1
 104 244 112 252 122 252 c 0
 132 252 140 244 140 234 c 1
 140 147 188 101 245 49 c 0
 252 43 252 31 246 24 c 0
 240 17 228 17 221 23 c 0
 164 75 104 131 104 234 c 1
104 234 m 1
 104 484.360410307 522 489.819335938 522 230 c 1
 522 220 514 212 504 212 c 0
 494 212 486 220 486 230 c 1
 486 440.905662792 140 438.798513884 140 234 c 1
 140 224 132 216 122 216 c 0
 112 216 104 224 104 234 c 1
460 136 m 0
 476 160 486 189 486 230 c 1
 486 240 494 248 504 248 c 0
 514 248 522 240 522 230 c 1
 522 183 510 146 490 116 c 0
 485 108 473 106 465 111 c 0
 457 116 455 128 460 136 c 0
EndSplineSet
Layer: 2
SplineSet
475 126 m 0
 493 153 503 186 503 230 c 0
 503 337 417 406 308 406 c 0
 210 406 122 329 122 234 c 0
 122 139 176 88 233 36 c 1024
EndSplineSet
EndChar

StartChar: uniE007
Encoding: 57351 57351 251
GlifName: uniE_007
Width: 1067
VWidth: 1574
Flags: HMW
LayerCount: 3
Fore
SplineSet
181.454101562 1359.74707031 m 0
 177.336914062 1370.14160156 187.256835938 1379.45410156 195.296875 1382.22753906 c 2
 785.5078125 1585.81640625 l 2
 793.962890625 1588.73242188 804.278320312 1587.37109375 807.526367188 1577.03320312 c 0
 810.478515625 1567.63769531 807.541992188 1559.87304688 796.983398438 1556.19726562 c 2
 204.421875 1349.87402344 l 2
 194.7109375 1346.49316406 186.069335938 1348.09765625 181.454101562 1359.74707031 c 0
EndSplineSet
Layer: 2
SplineSet
197 1365 m 0
 794 1572 l 1024
EndSplineSet
EndChar

StartChar: uni0660
Encoding: 1632 1632 274
GlifName: uni0660
Width: 737
Flags: HMW
LayerCount: 3
Fore
SplineSet
178 395 m 0
 178 291 270 198 380 198 c 0
 478 198 560 293 560 404 c 0
 560 506 490 582 392 582 c 0
 274 582 178 497 178 395 c 0
142 395 m 0
 142 521 258 616 392 616 c 0
 510 616 594 522 594 404 c 0
 594 277 502 162 380 162 c 0
 250 162 142 271 142 395 c 0
EndSplineSet
Layer: 2
SplineSet
160 395 m 0
 160 509 266 599 392 599 c 0
 500 599 577 514 577 404 c 0
 577 285 490 180 380 180 c 0
 260 180 160 281 160 395 c 0
EndSplineSet
Substitution2: "Single Substitution lookup 178 subtable" uni0660.EoA
EndChar

StartChar: uni0661
Encoding: 1633 1633 275
GlifName: uni0661
Width: 600
Flags: HMW
LayerCount: 3
Fore
SplineSet
184 1188 m 0
 193 1191 204 1186 207 1177 c 0
 352 754 428 486 428 0 c 0
 428 -10 420 -17 410 -17 c 0
 400 -17 393 -10 393 0 c 0
 393 482 318 742 173 1165 c 0
 170 1174 175 1185 184 1188 c 0
EndSplineSet
Layer: 2
SplineSet
190 1171 m 17
 335 748 410 484 410 0 c 1025
EndSplineSet
Substitution2: "Single Substitution lookup 178 subtable" uni0661.EoA
EndChar

StartChar: uni0662
Encoding: 1634 1634 276
GlifName: uni0662
Width: 1054
Flags: HMW
LayerCount: 3
Fore
SplineSet
569 702 m 0
 408 702 326 817 174 1158 c 0
 170 1168 174 1175 181 1179 c 0
 190 1183 202 1182 206 1172 c 0
 352 825 432 736 569 736 c 0
 784 736 842 954 847 1196 c 0
 847 1205 855 1213 864 1213 c 0
 873 1213 881 1205 881 1196 c 0
 875 934 805 702 569 702 c 0
410 -17 m 0
 400 -17 393 -10 393 0 c 0
 393 482 318 735 173 1158 c 0
 170 1167 175 1178 184 1181 c 0
 193 1184 204 1179 207 1170 c 0
 352 747 428 486 428 0 c 0
 428 -10 420 -17 410 -17 c 0
EndSplineSet
Layer: 2
SplineSet
190 1164 m 17
 335 741 410 484 410 0 c 1025
864 1196 m 17
 858 880 758 719 569 719 c 0
 420 719 335 819 190 1165 c 1033
EndSplineSet
Substitution2: "Single Substitution lookup 178 subtable" uni0662.EoA
EndChar

StartChar: uni0663
Encoding: 1635 1635 277
GlifName: uni0663
Width: 1375
Flags: HMW
LayerCount: 3
Fore
SplineSet
965 731 m 0
 804 731 728 882 728 1166 c 0
 728 1175 736 1183 745 1183 c 0
 754 1183 762 1175 762 1166 c 0
 762 878 838 765 965 765 c 0
 1124 765 1172 908 1172 1064 c 0
 1172 1104 1170 1147 1166 1196 c 0
 1165 1205 1174 1213 1183 1213 c 0
 1192 1213 1199 1206 1200 1197 c 0
 1204 1149 1206 1105 1206 1064 c 0
 1206 888 1149 731 965 731 c 0
510 730 m 0
 371 730 287 828 174 1154 c 0
 170.47265625 1164.17675781 176 1172 184 1175 c 0
 192 1178 202.474609375 1175.17675781 206 1165 c 0
 321 833 397 764 510 764 c 0
 699 764 728 967 728 1165 c 0
 728 1174 736 1182 745 1182 c 0
 754 1182 762 1174 762 1165 c 0
 762 947 724 730 510 730 c 0
410 -17 m 0
 400 -17 393 -10 393 0 c 0
 393 482 318 729 173 1152 c 0
 170 1161 175 1172 184 1175 c 0
 193 1178 204 1173 207 1164 c 0
 352 741 428 486 428 0 c 0
 428 -10 420 -17 410 -17 c 0
EndSplineSet
Layer: 2
SplineSet
190 1161 m 17
 335 738 410 484 410 0 c 1025
1183 1196 m 0
 1210 878 1123 748 965 748 c 0
 821 748 745 880 745 1166 c 1024
745 1166 m 0
 745 866 663 748 510 748 c 0
 384 748 305 828 190 1160 c 1024
EndSplineSet
Substitution2: "Single Substitution lookup 178 subtable" uni0663.EoA
EndChar

StartChar: uni0664
Encoding: 1636 1636 278
GlifName: uni0664
Width: 1047
Flags: HMW
LayerCount: 3
Fore
SplineSet
668 1182 m 0
 668 1172 660 1164 650 1164 c 0
 462 1164 202 1080 202 905 c 0
 202 763 385 630 518 597 c 0
 539.650390625 592.188476562 532.911246073 556.482779766 511 562 c 0
 372 597 166 735 166 905 c 0
 166 1118 464 1200 650 1200 c 0
 660 1200 668 1192 668 1182 c 0
509 595 m 0
 529.112520548 605.056260274 541 571 521 563 c 0
 359.792273651 498.516909461 177 355 177 211 c 0
 177 76 313 32 504 32 c 0
 625 32 746 50 823 65 c 0
 833 67 841 60 843 52 c 0
 845 42 839 34 830 32 c 0
 752 16 629 -2 504 -2 c 0
 315 -2 143 42 143 211 c 0
 143 381 351 532 509 595 c 0
EndSplineSet
Layer: 2
SplineSet
650 1182 m 4
 463 1182 184 1099 184 905 c 4
 184 749 379 613 515 579 c 1029
515 579 m 5
 358 517 160 368 160 211 c 4
 160 59 314 15 504 15 c 4
 627 15 749 33 827 48 c 1029
EndSplineSet
Substitution2: "Single Substitution lookup 178 subtable" uni0664.EoA
EndChar

StartChar: uni0665
Encoding: 1637 1637 279
GlifName: uni0665
Width: 1210
Flags: HMW
LayerCount: 3
Fore
SplineSet
613 -2 m 0
 358 -2 172 119 172 348 c 0
 172 638 466 913 633 1049 c 0
 640 1055 652 1053 658 1046 c 0
 664 1039 662 1027 655 1021 c 0
 488 885 208 616 208 348 c 0
 208 145 368 32 613 32 c 0
 843 32 1002 129 1002 332 c 0
 1002 669 596 984 332 1172 c 0
 324 1178 322 1188 328 1196 c 0
 334 1204 344 1206 352 1200 c 0
 614 1014 1038 695 1038 332 c 0
 1038 103 851 -2 613 -2 c 0
EndSplineSet
Layer: 2
SplineSet
342 1186 m 0
 605 999 1020 682 1020 332 c 0
 1020 116 847 15 613 15 c 1025
613 15 m 1
 363 15 190 132 190 348 c 0
 190 627 477 899 644 1035 c 1024
EndSplineSet
Substitution2: "Single Substitution lookup 178 subtable" uni0665.EoA
EndChar

StartChar: uni0666
Encoding: 1638 1638 280
GlifName: uni0666
Width: 1116
Flags: HMW
LayerCount: 3
Fore
SplineSet
173 1153 m 0
 171 1162 178 1171 187 1173 c 0
 272 1187 357 1194 442 1194 c 0
 686 1194 850 1119 850 856 c 0
 850 416 871 289 1002 7 c 0
 1006 -2 1002 -12 993 -16 c 0
 984 -20 974 -16 970 -7 c 0
 837 279 814 416 814 856 c 0
 814 1095 680 1158 442 1158 c 0
 359 1158 276 1153 193 1139 c 0
 184 1137 175 1144 173 1153 c 0
EndSplineSet
Layer: 2
SplineSet
190 1156 m 0
 274 1170 358 1176 442 1176 c 0
 683 1176 832 1107 832 856 c 0
 832 416 854 284 986 0 c 1025
EndSplineSet
Substitution2: "Single Substitution lookup 178 subtable" uni0666.EoA
EndChar

StartChar: uni0667
Encoding: 1639 1639 281
GlifName: uni0667
Width: 1218
Flags: HMW
LayerCount: 3
Fore
SplineSet
181 1181 m 0
 189 1186 200 1183 205 1175 c 0
 415 842 562 574 627 142 c 1
 689 579 818 861 1013 1206 c 0
 1018 1214 1029 1217 1037 1212 c 0
 1045 1207 1048 1196 1043 1188 c 0
 828 809 697 512 644 -2 c 0
 643 -10 638 -16 630 -17 c 0
 620 -19 611 -12 610 -2 c 0
 557 511 407 790 175 1157 c 0
 170 1165 173 1176 181 1181 c 0
EndSplineSet
Layer: 2
SplineSet
190 1166 m 0
 422 799 574 516 627 0 c 1
 680 516 813 817 1028 1197 c 1024
EndSplineSet
Substitution2: "Single Substitution lookup 178 subtable" uni0667.EoA
EndChar

StartChar: uni0668
Encoding: 1640 1640 282
GlifName: uni0668
Width: 1228
Flags: HMW
LayerCount: 3
Fore
SplineSet
1047 -29 m 0
 1039 -34 1028 -31 1023 -23 c 0
 810 322 672 590 608 1023 c 1
 546 592 419 336 205 -9 c 0
 200 -17 189 -20 181 -15 c 0
 173 -10 170 1 175 9 c 0
 410 388 538 654 591 1168 c 0
 592 1176 597 1182 605 1183 c 0
 615 1185 624 1178 625 1168 c 0
 678 655 818 374 1053 -5 c 0
 1058 -13 1055 -24 1047 -29 c 0
EndSplineSet
Layer: 2
SplineSet
1038 -14 m 0
 803 366 661 650 608 1166 c 1
 555 650 426 380 190 0 c 1024
EndSplineSet
Substitution2: "Single Substitution lookup 178 subtable" uni0668.EoA
EndChar

StartChar: uni0669
Encoding: 1641 1641 283
GlifName: uni0669
Width: 1062
Flags: HMW
LayerCount: 3
Fore
SplineSet
481 1216 m 0
 702 1216 763 1005 771 772 c 0
 783 435 801 175 888 8 c 0
 892 0 888 -12 880 -16 c 0
 872 -20 861 -16 857 -8 c 0
 764 169 748 434 736 771 c 0
 728 1006 670 1182 481 1182 c 0
 302 1182 208 992 208 823 c 0
 208 645 339 582 514 582 c 0
 562 582 615 587 631 589 c 0
 640 590 649 583 650 574 c 0
 651 565 644 556 635 555 c 0
 617 553 564 548 514 548 c 0
 333 548 172 619 172 823 c 0
 172 1000 272 1216 481 1216 c 0
EndSplineSet
Layer: 2
SplineSet
632.991210938 572.0703125 m 1
 616 570 563 565 514 565 c 0
 336 565 190 632 190 823 c 0
 190 996 287 1199 481 1199 c 1025
481 1199 m 1
 686 1199 745 1006 753.44140625 771.822265625 c 0
 765.576171875 435.172851562 782 172 872 0 c 1025
EndSplineSet
Substitution2: "Single Substitution lookup 178 subtable" uni0669.EoA
EndChar

StartChar: uni06F4
Encoding: 1780 1780 289
GlifName: uni06F_4
Width: 1153
Flags: HMW
LayerCount: 3
Fore
SplineSet
920 1209 m 0
 929 1209 937 1201 937 1192 c 0
 937 1183 929 1175 920 1175 c 0
 662 1175 474 974 474 694 c 0
 474 685 466 677 457 677 c 0
 448 677 440 685 440 694 c 0
 440 990 642 1209 920 1209 c 0
165 1050 m 0
 173 1055 183 1056 189 1047 c 0
 354 772 544 548 883 548 c 0
 920 548 958 551 999 555 c 0
 1010 556 1018 548 1018 538 c 0
 1018 529 1012 522 1003 521 c 0
 961 516 921 514 883 514 c 0
 621 514 446 638 316 801 c 1
 395 591 431 329 431 0 c 0
 431 -9 423 -17 414 -17 c 0
 405 -17 397 -9 397 0 c 0
 397 477 329 785 160 1028 c 0
 154 1037 158 1045 165 1050 c 0
EndSplineSet
Layer: 2
SplineSet
920 1192 m 0
 652 1192 457 982 457 694 c 1024
1001 538 m 0
 644 499 427 621 175 1037 c 1
 338 802 414 471 414 0 c 1024
EndSplineSet
Substitution2: "'locl' Localized Forms lookup 17 subtable" uni06F4.urdu
Substitution2: "Single Substitution lookup 178 subtable" uni06F4.EoA
EndChar

StartChar: uni06F5
Encoding: 1781 1781 290
GlifName: uni06F_5
Width: 1215
Flags: HMW
LayerCount: 3
Fore
SplineSet
382 1179 m 0
 387 1186 396 1189 405 1183 c 0
 599 1053 1042 704 1042 342 c 0
 1042 135 959 -6 812 -6 c 0
 678 -6 593 99 585 222 c 0
 584.21875 234.016601562 589 241 598 242 c 0
 607 243 617.424804688 238.030273438 618 227 c 0
 624 112 696 28 812 28 c 0
 929 28 1008 141 1008 342 c 0
 1008 687 573 1031 387 1155 c 0
 378 1161 377 1172 382 1179 c 0
695 1023 m 0
 700 1014 695 1004 688 1000 c 0
 475 882 207 635 207 317 c 0
 207 162 256 30 398 30 c 0
 518 30 585 117 585 227 c 0
 585 238 595 243 604 242 c 0
 612 241 618.092773438 235 618 224 c 0
 617 105 536 -4 398 -4 c 0
 236 -4 173 143 173 317 c 0
 173 655 455 910 672 1030 c 0
 681 1035 691 1031 695 1023 c 0
EndSplineSet
Layer: 2
SplineSet
396 1169 m 0
 582 1045 1025 699 1025 342 c 0
 1025 138 944 11 812 11 c 0
 667 11 624.564453125 108.705078125 602 225 c 1025
602 225 m 1
 586.234375 111.307617188 547 13 398 13 c 0
 275 13 190 110 190 317 c 0
 190 645 465 896 680 1015 c 1024
EndSplineSet
Substitution2: "Single Substitution lookup 178 subtable" uni06F5.EoA
EndChar

StartChar: uni06F6
Encoding: 1782 1782 291
GlifName: uni06F_6
Width: 1011
Flags: HMW
LayerCount: 3
Fore
SplineSet
174 864 m 0
 174 1074 363 1216 536 1216 c 0
 632 1216 700 1182 762 1115 c 0
 769 1108 768 1097 762 1091 c 0
 755 1084 744 1085 738 1091 c 0
 680 1152 622 1182 536 1182 c 0
 379 1182 208 1052 208 864 c 0
 208 659 383 585 609 585 c 0
 670 585 778 601 835 615 c 0
 846 618 854 610 856 602 c 0
 858 594 854 584 843 581 c 0
 782 567 676 551 609 551 c 0
 364 551 174 640 174 864 c 0
206 -14 m 0
 199 -9 196 0 201 8 c 0
 347 276 542 546 835 615 c 0
 846 618 854 610 856 602 c 0
 858 594 854 583 843 581 c 0
 566 516 377 258 231 -8 c 0
 227 -16 215 -20 206 -14 c 0
EndSplineSet
Layer: 2
SplineSet
750 1103 m 17
 690 1167 627 1199 536 1199 c 0
 371 1199 191 1063 191 864 c 0
 191 675 335 568 609 568 c 0
 673 568 780 584 839 598 c 1033
839 598 m 17
 554 531 362 267 216 0 c 1025
EndSplineSet
Substitution2: "'locl' Localized Forms lookup 17 subtable" uni0666
Substitution2: "Single Substitution lookup 178 subtable" uni06F6.EoA
EndChar

StartChar: uni066B
Encoding: 1643 1643 295
GlifName: uni066B_
Width: 580
Flags: HMW
LayerCount: 3
Fore
SplineSet
391 520 m 0
 400 516 404 506 400 497 c 2
 18 -390 l 2
 14 -399 4 -403 -5 -399 c 0
 -14 -395 -18 -385 -14 -376 c 2
 368 511 l 2
 372 520 382 524 391 520 c 0
EndSplineSet
Layer: 2
SplineSet
384 504 m 1
 2 -383 l 1025
EndSplineSet
EndChar

StartChar: uni060C
Encoding: 1548 1548 297
GlifName: uni060C_
Width: 654
Flags: HMW
LayerCount: 3
Fore
SplineSet
324 -2 m 0
 254 -2 205 50 205 133 c 0
 205 255 252 356 366 450 c 0
 376 457 386 453 391 446 c 0
 396 439 397 429 388 422 c 0
 283 336 246 255 236 152 c 1
 256 180 285 205 333 205 c 0
 393 205 432 159 432 101 c 0
 432 45 394 -2 324 -2 c 0
EndSplineSet
EndChar

StartChar: quoteleft
Encoding: 8216 8216 299
GlifName: quoteleft
Width: 644
Flags: HMW
LayerCount: 3
Fore
SplineSet
328 1432 m 0
 398 1432 436 1385 436 1329 c 0
 436 1271 397 1225 337 1225 c 0
 289 1225 260 1250 240 1278 c 1
 250 1175 287 1094 392 1008 c 0
 401 1001 400 991 395 984 c 0
 390 977 380 973 370 980 c 0
 256 1074 209 1175 209 1297 c 0
 209 1380 258 1432 328 1432 c 0
EndSplineSet
EndChar

StartChar: uni061F
Encoding: 1567 1567 310
GlifName: uni061F_
Width: 1105
Flags: HMW
LayerCount: 3
Fore
SplineSet
888 1250 m 0
 896 1244 898 1234 892 1226 c 0
 887 1219 876 1216 868 1222 c 0
 790 1278 697 1308 603 1308 c 0
 421 1308 288 1197 288 1060 c 0
 288 987 324 928 447 823 c 0
 572 717 624 644 624 556 c 0
 624 519 616 491 594 459 c 0
 588 451 576 449 568 456 c 0
 562 462 561 472 566 479 c 0
 582 501 590 525 590 556 c 0
 590 628 550 691 425 797 c 0
 302 902 252 971 252 1060 c 0
 252 1223 409 1342 603 1342 c 0
 705 1342 804 1310 888 1250 c 0
516 89 m 0
 516 123 542 152 577 152 c 0
 612 152 640 124 640 89 c 0
 640 54 611 28 577 28 c 0
 543 28 516 54 516 89 c 0
EndSplineSet
Layer: 2
SplineSet
878 1236 m 0
 797 1294 701 1325 603 1325 c 0
 415 1325 270 1210 270 1060 c 0
 270 979 313 915 436 810 c 0
 561 704 607 636 607 556 c 0
 607 522 598 494 580 469 c 1024
533 89 m 0
 533 114 552 134 577 134 c 0
 602 134 622 114 622 89 c 0
 622 64 602 45 577 45 c 0
 552 45 533 64 533 89 c 0
EndSplineSet
EndChar

StartChar: section
Encoding: 167 167 312
GlifName: section
Width: 1000
Flags: HMW
LayerCount: 3
Fore
SplineSet
170.002929688 685.724609375 m 0
 170.002929688 854.779296875 358.772460938 937.921875 519 937.921875 c 0
 528.380859375 937.921875 535.997070312 930.305664062 535.997070312 920.924804688 c 0
 535.997070312 911.543945312 528.380859375 903.927734375 519 903.927734375 c 0
 375.213867188 903.927734375 203.997070312 829 203.997070312 685.724609375 c 0
 203.997070312 523.806640625 358.782226562 469.483398438 485.306640625 436.520507812 c 0
 642.87109375 395.470703125 803.997070312 342.330078125 803.997070312 194.875 c 0
 803.997070312 -6.46875 451.479492188 -64.9970703125 197 -64.9970703125 c 0
 187.619140625 -64.9970703125 180.002929688 -57.380859375 180.002929688 -48 c 0
 180.002929688 -38.619140625 187.619140625 -31.0029296875 197 -31.0029296875 c 0
 428.559570312 -31.0029296875 770.002929688 21.904296875 770.002929688 194.875 c 0
 770.002929688 318.708984375 625.57421875 364.842773438 476.693359375 403.629882812 c 0
 340.91796875 439.001953125 170.002929688 504.58203125 170.002929688 685.724609375 c 0
196.002929688 1146.125 m 0
 196.002929688 1347.46875 548.520507812 1405.99707031 803 1405.99707031 c 0
 812.380859375 1405.99707031 819.997070312 1398.38085938 819.997070312 1389 c 0
 819.997070312 1379.61914062 812.380859375 1372.00292969 803 1372.00292969 c 0
 571.440429688 1372.00292969 229.997070312 1319.09570312 229.997070312 1146.125 c 0
 229.997070312 1027.29101562 374.42578125 976.157226562 523.306640625 937.370117188 c 0
 659.08203125 901.998046875 829.997070312 836.41796875 829.997070312 655.275390625 c 0
 829.997070312 486.220703125 641.227539062 403.078125 481 403.078125 c 0
 471.619140625 403.078125 464.002929688 410.694335938 464.002929688 420.075195312 c 0
 464.002929688 429.456054688 471.619140625 437.072265625 481 437.072265625 c 0
 624.786132812 437.072265625 796.002929688 512 796.002929688 655.275390625 c 0
 796.002929688 817.193359375 641.217773438 871.516601562 514.693359375 904.479492188 c 0
 357.12890625 945.529296875 196.002929688 1003.66992188 196.002929688 1146.125 c 0
EndSplineSet
Layer: 2
SplineSet
803 1389 m 0
 415 1389 213 1282.625 213 1146.125 c 0
 213 1031.67480469 321.030273438 972.500976562 519 920.924804688 c 0
 652 886.275390625 813 825.375 813 655.275390625 c 0
 813 510.375 648 420.075195312 481 420.075195312 c 1024
197 -48 m 0
 585 -48 787 58.375 787 194.875 c 0
 787 309.325195312 678.969726562 368.499023438 481 420.075195312 c 0
 348 454.724609375 187 515.625 187 685.724609375 c 0
 187 830.625 352 920.924804688 519 920.924804688 c 1024
EndSplineSet
EndChar

StartChar: uni00B2
Encoding: 178 178 313
GlifName: uni00B_2
Width: 728
Flags: HMW
LayerCount: 3
Fore
SplineSet
190 1280 m 0
 180 1280 172 1288 172 1298 c 0
 172 1400 242 1494 353 1494 c 0
 450 1494 516 1419 516 1327 c 0
 516 1205 446 1137 360 1054 c 2
 243 941 l 1
 547 957 l 2
 557 958 564 951 565 941 c 0
 566 931 559 924 549 923 c 2
 198 904 l 2
 194 904 188 905 185 908 c 0
 177 915 178 927 185 934 c 2
 336 1080 l 2
 424 1165 480 1221 480 1327 c 0
 480 1403 430 1460 353 1460 c 0
 266 1460 208 1386 208 1298 c 0
 208 1288 200 1280 190 1280 c 0
EndSplineSet
Layer: 2
SplineSet
190 1298 m 0
 190 1393 254 1477 353 1477 c 0
 440 1477 498 1411 498 1327 c 0
 498 1213 435 1151 348 1067 c 2
 197 921 l 1
 548 940 l 1024
EndSplineSet
EndChar

StartChar: uni00B3
Encoding: 179 179 314
GlifName: uni00B_3
Width: 674
Flags: HMW
LayerCount: 3
Fore
SplineSet
215 1331 m 0
 206 1333 200 1343 202 1352 c 0
 216 1418 273 1476 353 1476 c 0
 434 1476 496 1406 496 1326 c 0
 496 1220 360 1165 270 1159 c 0
 261 1158 252 1165 251 1174 c 0
 250 1183 257 1192 266 1193 c 0
 362 1200 460 1250 460 1326 c 0
 460 1388 412 1442 353 1442 c 0
 291 1442 248 1396 236 1344 c 0
 234 1335 224 1329 215 1331 c 0
251 1174 m 0
 250 1183 257 1192 266 1193 c 0
 293 1195 321 1200 353 1200 c 0
 434 1200 512 1157 512 1058 c 0
 512 957 421 902 320 902 c 0
 270 902 218 918 179 950 c 0
 172 956 170 968 176 975 c 0
 182 982 194 984 201 978 c 0
 233 952 278 938 320 938 c 0
 407 938 477 980 477 1057 c 0
 477 1137.0624729 424 1166 353 1166 c 0
 325 1166 295 1162 270 1159 c 0
 261 1158 252 1165 251 1174 c 0
EndSplineSet
Layer: 2
SplineSet
219 1348 m 0
 232 1407 282 1459 353 1459 c 0
 423 1459 478 1397 478 1326 c 0
 478 1233 382 1191 268 1177 c 1024
268 1177 m 0
 287 1180 309 1182 331 1182 c 0
 441 1182 491 1141 494 1061 c 1
 494 964 414 920 320 920 c 0
 274 920 226 935 190 964 c 1024
EndSplineSet
EndChar

StartChar: eth
Encoding: 240 240 315
GlifName: eth
Width: 1099
Flags: HMW
LayerCount: 3
Fore
SplineSet
226 987 m 0
 219 993 219 1005 225 1012 c 0
 331 1129 699 1375 847 1423 c 0
 856 1426 866 1420 869 1411 c 0
 872 1402 866 1392 857 1389 c 0
 721 1345 349 1097 251 988 c 0
 245 981 233 981 226 987 c 0
546 -2 m 0
 259 -2 142 198 142 427 c 0
 142 670 325 872 575 872 c 0
 585 872 592 864 592 854 c 0
 592 844 585 836 575 836 c 0
 345 836 178 652 178 427 c 0
 178 210 281 32 546 32 c 0
 788 32 932 200 932 525 c 0
 932 771 787 1202 261 1404 c 0
 252 1407 248 1417 251 1426 c 0
 254 1435 264 1439 273 1436 c 0
 815 1228 966 783 966 525 c 0
 966 190 812 -2 546 -2 c 0
EndSplineSet
Layer: 2
SplineSet
238 1000 m 0
 340 1113 710 1360 852 1406 c 1024
267 1420 m 0
 801 1215 949 777 949 525 c 0
 949 195 800 15 546 15 c 1025
546 15 m 1
 270 15 160 204 160 427 c 0
 160 661 335 854 575 854 c 1024
EndSplineSet
EndChar

StartChar: uniE008
Encoding: 57352 57352 325
GlifName: uniE_008
Width: 100
Flags: HMW
LayerCount: 3
Fore
SplineSet
-18 45 m 0
 -18 55 -10 62 0 62 c 2
 100 62 l 2
 110 62 118 55 118 45 c 0
 118 35 110 28 100 28 c 2
 0 28 l 2
 -10 28 -18 35 -18 45 c 0
EndSplineSet
Layer: 2
SplineSet
0 45 m 25
 100 45 l 1049
EndSplineSet
EndChar

StartChar: uniE009
Encoding: 57353 57353 326
GlifName: uniE_009
Width: 150
Flags: HMW
LayerCount: 3
Fore
SplineSet
-18 45 m 0
 -18 55 -10 62 0 62 c 2
 150 62 l 2
 160 62 168 55 168 45 c 0
 168 35 160 28 150 28 c 2
 0 28 l 2
 -10 28 -18 35 -18 45 c 0
EndSplineSet
Layer: 2
SplineSet
0 45 m 25
 150 45 l 1049
EndSplineSet
EndChar

StartChar: underscore
Encoding: 95 95 327
GlifName: underscore
Width: 610
Flags: HMW
LayerCount: 3
Fore
SplineSet
628 45 m 0
 628 35 620 28 610 28 c 2
 0 28 l 2
 -10 28 -18 35 -18 45 c 0
 -18 55 -10 62 0 62 c 2
 610 62 l 2
 620 62 628 55 628 45 c 0
EndSplineSet
Layer: 2
SplineSet
610 45 m 25
 0 45 l 1049
EndSplineSet
EndChar

StartChar: seven
Encoding: 55 55 328
GlifName: seven
Width: 1110
Flags: HMW
LayerCount: 3
Fore
SplineSet
163 1264 m 0
 162 1274 169 1281 179 1282 c 2
 933 1331 l 2
 943 1332 951 1324 951 1314 c 0
 951 1311 951 1308 950 1306 c 0
 768 943 653 450 579 -3 c 0
 577 -12 568 -19 559 -17 c 0
 550 -15 543 -6 545 3 c 0
 617 447 728 929 905 1295 c 1
 181 1248 l 2
 171 1247 164 1254 163 1264 c 0
EndSplineSet
Layer: 2
SplineSet
180 1265 m 25
 934 1314 l 1
 751 948 636 454 562 0 c 1025
EndSplineSet
Substitution2: "Single Substitution lookup 178 subtable" uni0667.EoA
EndChar

StartChar: nine
Encoding: 57 57 329
GlifName: nine
Width: 1088
Flags: HMW
LayerCount: 3
Fore
SplineSet
541 1330 m 0
 785 1330 921 1106 921 795 c 0
 921 475 763 110 487 -20 c 0
 475 -26 463 -17 463 -5 c 0
 463 2 467 7 473 10 c 0
 732 134 887 487 887 795 c 0
 887 1090 764 1296 541 1296 c 0
 323 1296 201 1115 201 906 c 0
 201 662 337 549 558 549 c 0
 709 549 782.458984375 574.4140625 881.147460938 634.440429688 c 0
 884.771484375 636.64453125 889.435546875 636.745117188 894.1328125 635.034179688 c 0
 908.229492188 629.904296875 908.258789062 611.294921875 895.491210938 603.6796875 c 0
 787.83203125 539.469726562 719 515 558 515 c 0
 320 515 167 645 167 906 c 0
 167 1132 303 1330 541 1330 c 0
EndSplineSet
Layer: 2
SplineSet
889 619 m 0
 786.466796875 557.180664062 714 532 558 532 c 0
 366 532 184 615 184 906 c 0
 184 1127 316 1313 541 1313 c 0
 725 1313 904 1161 904 795 c 0
 904 489 757 128 480 -5 c 1024
EndSplineSet
Substitution2: "Single Substitution lookup 178 subtable" uni0669.EoA
EndChar

StartChar: uniFD3E
Encoding: 64830 64830 330
GlifName: uniF_D_3E_
Width: 926
Flags: HMW
LayerCount: 3
Fore
SplineSet
606 1384 m 0
 615 1380 618 1369 614 1360 c 0
 501 1130 446 930 446 681 c 0
 446 451 501 181 614 -48 c 0
 618 -57 615 -68 606 -72 c 0
 597 -76 586 -73 582 -64 c 0
 467 171 410 445 410 681 c 0
 410 936 467 1142 582 1376 c 0
 586 1385 597 1388 606 1384 c 0
764 774 m 0
 764 699 619 672 517 665 c 1
 594 645 682 603 682 524 c 0
 682 453 608 450 584 450 c 0
 506 450 466 496 442 555 c 1
 420 472 361 412 267 412 c 0
 230 412 202 439 202 476 c 0
 202 573 266 627 345 658 c 1
 256 678 162 720 162 819 c 0
 162 880 224 896 264 896 c 0
 368 896 417 822 438 746 c 1
 481 826 561 880 659 880 c 0
 720 880 764 836 764 774 c 0
EndSplineSet
Layer: 2
SplineSet
432 685 m 0
 462 790 547 863 659 863 c 0
 711 863 746 827 746 774 c 1025
746 774 m 1
 746 717 655 699 548 686 c 0
 399 667 220 632 220 476 c 1025
220 476 m 1
 220 448 239 430 267 430 c 0
 377 430 435 519 435 637 c 0
 435 728 405 879 264 879 c 0
 225 879 180 865 180 819 c 1025
180 819 m 1
 180 696 352 671 454 659 c 0
 537 649 664 606 664 524 c 1025
664 524 m 1
 664 471 610 467 584 467 c 0
 477 467 451 564 429 667 c 1024
598 1368 m 1
 484 1136 428 933 428 681 c 0
 428 448 484 176 598 -56 c 1025
EndSplineSet
EndChar

StartChar: uniFD3F
Encoding: 64831 64831 331
GlifName: uniF_D_3F_
Width: 921
Flags: HMW
LayerCount: 3
Fore
SplineSet
312 1384 m 0
 321 1388 332 1385 336 1376 c 0
 451 1142 508 936 508 681 c 0
 508 426 451 170 336 -64 c 0
 332 -73 321 -76 312 -72 c 0
 303 -68 300 -57 304 -48 c 0
 417 182 472 432 472 681 c 0
 472 930 417 1130 304 1360 c 0
 300 1369 303 1380 312 1384 c 0
242 526 m 0
 242 607 325 645 404 664 c 1
 296 677 162 698 162 781 c 0
 162 845 217 892 277 892 c 0
 378 892 444 830 482 748 c 1
 511 822 570 880 660 880 c 0
 705 880 759 851 759 792 c 0
 759 697 671 667 588 655 c 1
 661 625 715 576 715 493 c 0
 715 435 655 414 623 414 c 0
 550 414 503 462 479 524 c 1
 453 466 407 424 335 424 c 0
 299 424 242 462 242 526 c 0
EndSplineSet
Layer: 2
SplineSet
486 685 m 0
 456 790 389 874 277 874 c 0
 225 874 180 834 180 781 c 1025
180 781 m 1
 180 724 263 699 370 686 c 0
 519 667 697 632 697 493 c 1025
697 493 m 1
 697 448 651 431 623 431 c 0
 527 431 477 528 477 630 c 0
 477 743 538 863 660 863 c 0
 699 863 741 838 741 792 c 1025
741 792 m 1
 741 685 609 673 507 663 c 0
 409 654 260 623 260 526 c 1025
260 526 m 1
 260 473 309 441 335 441 c 0
 442 441 488 547 488 667 c 1024
320 1368 m 1
 434 1136 490 933 490 681 c 0
 490 429 434 176 320 -56 c 1025
EndSplineSet
EndChar

StartChar: dollar
Encoding: 36 36 332
GlifName: dollar
Width: 1122
Flags: HMW
LayerCount: 3
Fore
SplineSet
550 1636 m 0
 560 1636 567 1629 567 1619 c 2
 567 -142 l 2
 567 -152 560 -160 550 -160 c 0
 540 -160 533 -152 533 -142 c 2
 533 1619 l 2
 533 1629 540 1636 550 1636 c 0
EndSplineSet
Refer: 31 83 N 1 0 0 1 0 0 2
Layer: 2
SplineSet
550 1619 m 1
 550 -142 l 1025
EndSplineSet
EndChar

StartChar: ampersand
Encoding: 38 38 333
GlifName: ampersand
Width: 1384
Flags: HMW
LayerCount: 3
Fore
SplineSet
254 266 m 0
 254 477 458 610 594 696 c 0
 731.62126487 783.025211609 922 906 922 1103 c 0
 922 1239 816 1334 655 1334 c 0
 494 1334 384 1236 384 1080 c 0
 384 820 728 514 1263 51 c 0
 1271 44 1270 34 1264 27 c 0
 1258 20 1249 18 1241 25 c 0
 700 493 348 801 348 1080 c 0
 348 1254 475 1370 655 1370 c 0
 830 1370 956 1261 956 1103 c 0
 956 889 757.362131134 758.428421177 614 668 c 0
 484 586 290 460 290 266 c 0
 290 105 446 32 634 32 c 0
 935 32 1082.16301758 213.709582687 1232 472 c 0
 1238 482 1249 482 1257 477 c 0
 1264 472 1269 464 1262 454 c 0
 1109 190 948.870662701 -2 634 -2 c 0
 426 -2 254 84 254 266 c 0
EndSplineSet
Layer: 2
SplineSet
1252 38 m 0
 580 606 366 858 366 1080 c 0
 366 1243 482 1352 655 1352 c 0
 823 1352 939 1250 939 1103 c 0
 939 926 777.6638582 794.986124612 604 682 c 0
 438 574 272 440 272 266 c 0
 272 109 408 15 634 15 c 0
 891 15 1057 136 1247 463 c 1024
EndSplineSet
EndChar

StartChar: question
Encoding: 63 63 334
GlifName: question
Width: 1165
Flags: HMW
LayerCount: 3
Fore
SplineSet
222 1208 m 0
 215 1215 215 1226 221 1234 c 0
 288 1315 448 1378 590 1378 c 0
 786 1378 922 1259 922 1087 c 0
 922 962 849 874 707 766 c 0
 593 680 546 604 546 507 c 0
 546 487 548 472 554 452 c 0
 559 442 550 432 542 430 c 0
 531 427 523 433 520 442 c 0
 515 456 512 483 512 510 c 0
 512 618 562 701 679 789 c 0
 815 891 888 977 888 1092 c 0
 888 1242 765 1344 586 1344 c 0
 453 1344 312 1288 247 1210 c 0
 241 1202 230 1201 222 1208 c 0
602 89 m 0
 602 55 575 28 540 28 c 0
 506 28 478 54 478 89 c 0
 478 124 505 152 540 152 c 0
 575 152 602 123 602 89 c 0
EndSplineSet
Layer: 2
SplineSet
234 1221 m 0
 303 1303 449 1361 586 1361 c 0
 774 1361 905 1250 905 1090 c 0
 905 966 826 873 675 761 c 0
 564 679 529 618 529 508 c 0
 529 481 531 466 537 447 c 1024
574 89 m 0
 574 64 555 45 530 45 c 0
 505 45 485 64 485 89 c 0
 485 114 505 134 530 134 c 0
 555 134 574 114 574 89 c 0
EndSplineSet
EndChar

StartChar: at
Encoding: 64 64 335
GlifName: at
Width: 2276
Flags: HMW
LayerCount: 3
Fore
SplineSet
1667 -315 m 0
 1672 -323 1669 -334 1661 -339 c 0
 1515 -430 1344 -482 1161 -482 c 0
 640 -482 214 -124 214 400 c 0
 214 922 670 1412 1194 1412 c 0
 1664 1412 2062 1045 2062 564 c 0
 2062 340 1946 8 1706 8 c 0
 1550 8 1446 199 1446 362 c 0
 1446 392 1448 425 1452 456 c 0
 1453 465 1462 472 1471 471 c 0
 1480 470 1487 461 1486 452 c 0
 1482 423 1480 390 1480 362 c 0
 1480 207 1582 44 1706 44 c 0
 1910 44 2028 342 2028 564 c 0
 2028 1025 1646 1378 1194 1378 c 0
 692 1378 250 904 250 400 c 0
 250 -102 656 -448 1161 -448 c 0
 1338 -448 1503 -396 1643 -309 c 0
 1651 -304 1662 -307 1667 -315 c 0
1502 803 m 1
 1400 873 1290 906 1184 906 c 0
 939 906 718 697 718 372 c 0
 718 176 852 32 1053 32 c 0
 1312 32 1424 269 1452 457 c 2
 1502 803 l 1
1538 808 m 2
 1486 451 l 2
 1458 257 1340 -2 1053 -2 c 0
 832 -2 682 158 682 372 c 0
 682 713 917 942 1184 942 c 0
 1301 942 1421 904 1531 825 c 0
 1536 821 1539 814 1538 808 c 2
EndSplineSet
Layer: 2
SplineSet
1650 -324 m 1
 1507 -413 1339 -465 1159 -465 c 0
 646 -465 230 -113 230 400 c 0
 230 913 679 1395 1192 1395 c 0
 1653 1395 2043 1035 2043 564 c 0
 2043 341 1926 26 1704 26 c 0
 1564 26 1461 203 1461 362 c 0
 1461 391 1463 424 1467 454 c 1026
1519 811 m 1
 1467 454 l 2
 1439 263 1324 15 1051 15 c 0
 840 15 698 167 698 372 c 0
 698 705 926 924 1182 924 c 0
 1295 924 1412 888 1519 811 c 1
EndSplineSet
EndChar

StartChar: b
Encoding: 98 98 336
GlifName: b
Width: 1203
Flags: HMW
LayerCount: 3
Fore
SplineSet
268 1378 m 0
 278 1378 284 1370 284 1360 c 2
 242 44 l 2
 242 34 234 28 224 28 c 0
 214 28 208 36 208 46 c 2
 250 1362 l 2
 250 1372 258 1378 268 1378 c 0
250 709 m 0
 241 713 237 723 241 732 c 0
 326 922 468 1018 643 1018 c 0
 931 1018 1045 752 1045 495 c 0
 1045 223 830 -2 540 -2 c 0
 492 -2 442 4 395 16 c 0
 386 18 380 28 382 37 c 0
 384 46 395 52 404 50 c 0
 448 38 494 32 540 32 c 0
 810 32 1011 243 1011 495 c 0
 1011 746 901 984 643 984 c 0
 483 984 354 898 273 718 c 0
 269 709 259 705 250 709 c 0
EndSplineSet
Layer: 2
SplineSet
267 1361 m 0
 225 45 l 1025
257 725 m 1
 340 910 475.46875 1001 643 1001 c 0
 916 1001 1028 749 1028 495 c 0
 1028 233 820 15 540 15 c 0
 493 15 445 21 399 33 c 1024
EndSplineSet
EndChar

StartChar: d
Encoding: 100 100 337
GlifName: d
Width: 1237
Flags: HMW
LayerCount: 3
Fore
SplineSet
995 1378 m 0
 1005 1378 1012 1371 1012 1361 c 2
 993 511 l 1
 993 213 1001 123 1056 56 c 0
 1062 49 1060 37 1053 31 c 0
 1046 25 1034 27 1028 34 c 0
 961 115 959 215 959 511 c 1
 978 1361 l 2
 978 1371 985 1378 995 1378 c 0
592 1016 m 0
 687 1016 786 976 873 883 c 0
 880 876 879 865 872 858 c 0
 865 851 854 852 847 859 c 0
 766 946 677 982 592 982 c 0
 351 982 203 716 203 465 c 0
 203 210 334 32 562 32 c 0
 770 32 901 192 958 363 c 0
 961 372 972 377 981 374 c 0
 990 371 995 360 992 351 c 0
 933 173 790 -2 562 -2 c 0
 310 -2 167 198 167 465 c 0
 167 724 321 1016 592 1016 c 0
EndSplineSet
Layer: 2
SplineSet
860 871 m 0
 776 961 682 999 592 999 c 0
 336 999 185 720 185 465 c 0
 185 204 322 15 562 15 c 0
 780 15 916.892578125 182.397460938 975 357 c 1025
995 1361 m 1
 976 511 l 0
 976 214 981 119 1042 45 c 1033
EndSplineSet
EndChar

StartChar: h
Encoding: 104 104 338
GlifName: h
Width: 1206
Flags: HMW
LayerCount: 3
Fore
SplineSet
245 417 m 0
 315 674 442 1017 706 1017 c 0
 915 1017 955 817 955 609 c 0
 955 406 953 221 942 -1 c 0
 942 -10 934 -17 925 -17 c 0
 914 -17 908 -10 908 1 c 0
 919 223 921 406 921 609 c 0
 921 794 890 983 706 983 c 0
 466 983 346 653 279 407 c 0
 277 399 268 392 258 394 c 0
 246 397 242 406 245 417 c 0
229 -17 m 0
 220 -17 212 -9 213 1 c 2
 310 1387 l 2
 311 1396 318 1405 328 1404 c 0
 337 1403 345 1395 344 1385 c 2
 247 -1 l 2
 246 -10 240 -17 229 -17 c 0
EndSplineSet
Layer: 2
SplineSet
262 412 m 1
 347 725 476 1000 706 1000 c 0
 902 1000 938 802 938 609 c 0
 938 405.861328125 936 222 925 0 c 1024
327 1386 m 1
 230 0 l 1025
EndSplineSet
EndChar

StartChar: k
Encoding: 107 107 341
GlifName: k
Width: 1059
Flags: HMW
LayerCount: 3
Fore
SplineSet
878.169921875 -10.01171875 m 0
 872.4921875 -17.544921875 861.272460938 -19.5751953125 853.73828125 -13.8974609375 c 0
 643.00390625 136.040039062 430 333 262 525 c 0
 254 534 259 549 267 553 c 0
 472 657 711 817 846 982 c 0
 852 989 863 991 870 985 c 0
 877 979 879 967 873 960 c 0
 739 796 506 639 303 532 c 1
 468 347 673.985351562 157.420898438 874.284179688 14.419921875 c 0
 881.818359375 8.7421875 883.848632812 -2.4775390625 878.169921875 -10.01171875 c 0
286 1378 m 0
 296 1378 302 1370 302 1360 c 2
 242 3 l 2
 242 -7 234 -13 224 -13 c 0
 214 -13 208 -5 208 5 c 2
 268 1362 l 2
 268 1372 276 1378 286 1378 c 0
EndSplineSet
Layer: 2
SplineSet
864 0 m 0
 655.170898438 148.766601562 442 346 275 537 c 1
 482 642 722 804 859 971 c 1024
285 1361 m 1
 225 4 l 1025
EndSplineSet
EndChar

StartChar: l
Encoding: 108 108 342
GlifName: l
Width: 489
Flags: HMW
LayerCount: 3
Fore
SplineSet
255 1367 m 0
 265 1367 271 1359 271 1349 c 0
 255 1007 253 394 253 0 c 0
 253 -10 245 -17 235 -17 c 0
 225 -17 218 -10 218 0 c 0
 218 394 221 1007 237 1351 c 0
 237 1361 245 1367 255 1367 c 0
EndSplineSet
Layer: 2
SplineSet
254 1350 m 17
 238 1007 235 394 235 0 c 1025
EndSplineSet
EndChar

StartChar: m
Encoding: 109 109 343
GlifName: m
Width: 1761
Flags: HMW
LayerCount: 3
Fore
SplineSet
211 10 m 0
 238 295 251 489 251 647 c 0
 251 779 242 885 224 998 c 0
 222 1009 230 1016 238 1017 c 0
 247 1018 256 1015 258 1004 c 0
 276 889 286 780 286 647 c 0
 286 487 272 291 245 6 c 0
 244 -5 235 -10 226 -9 c 0
 218 -8 210 -1 211 10 c 0
241 353 m 0
 297 666 437 1018 654 1018 c 0
 878 1018 912 757 912 504 c 0
 912 327 907 243 890 -1 c 0
 889 -12 880 -17 872 -17 c 0
 863 -17 855 -11 856 1 c 0
 873 243 877 328 877 503 c 0
 877 736 854 984 654 984 c 0
 462 984 330.088002324 649.98401278 275 347 c 0
 273 336 263 331 254 333 c 0
 246 335 238.857442095 341.024631712 241 353 c 0
877 369 m 0
 929.942382812 670.647460938 1078 1017 1317 1017 c 0
 1507.98730469 1017 1534 800.953125 1534 609 c 0
 1534 406 1533 221 1523 -1 c 0
 1522 -12 1514 -17 1505 -17 c 0
 1496 -17 1488 -10 1489 1 c 0
 1499 223 1500 406 1500 609 c 0
 1500 778.174804688 1482.87109375 983 1317 983 c 0
 1103.71777344 983 962 652 911 361 c 0
 909.032226562 349.76953125 898 347 889 349 c 0
 881 351 875.029296875 357.76953125 877 369 c 0
EndSplineSet
Layer: 2
SplineSet
241 1001 m 0
 280 750 278 532 228 8 c 1024
258 350 m 0
 333 767 484 1001 651 1001 c 0
 844 1001 910 818 891 365 c 0
 889 306 883 153 872 0 c 1024
891 365 m 1
 967 749 1118 1000 1317 1000 c 0
 1486 1000 1517 802 1517 609 c 0
 1517 406 1516 222 1506 0 c 1024
EndSplineSet
EndChar

StartChar: n
Encoding: 110 110 344
GlifName: n
Width: 1206
Flags: HMW
LayerCount: 3
Fore
SplineSet
211 10 m 0
 238 295 251 489 251 647 c 0
 251 779 242 885 224 998 c 0
 222 1009 229 1015 237 1017 c 0
 246 1019 257 1015 258 1004 c 0
 276 889 286 780 286 647 c 0
 286 487 272 291 245 6 c 0
 244 -5 235 -10 226 -9 c 0
 218 -8 210 -2 211 10 c 0
245 417 m 0
 315 674 442 1017 706 1017 c 0
 915 1017 955 817 955 609 c 0
 955 406 953 221 942 -1 c 0
 942 -10 934 -17 925 -17 c 0
 914 -17 908 -10 908 1 c 0
 919 223 921 406 921 609 c 0
 921 794 890 983 706 983 c 0
 466 983 346 653 279 407 c 0
 277 399 268 392 258 394 c 0
 246 397 242 406 245 417 c 0
EndSplineSet
Layer: 2
SplineSet
241 1001 m 0
 280.40625 750.30859375 277.547851562 531.969726562 228 8 c 1024
262 412 m 1
 347 725 476 1000 706 1000 c 0
 902 1000 938 802 938 609 c 0
 938 405.861328125 936 222 925 0 c 1024
EndSplineSet
EndChar

StartChar: p
Encoding: 112 112 345
GlifName: p
Width: 1237
Flags: HMW
LayerCount: 3
Fore
SplineSet
443 15 m 0
 443 25 451 32 461 32 c 0
 895 32 1035 338 1035 568 c 0
 1035 844 886 984 723 984 c 0
 516 984 289 742 271 290 c 0
 271 280 262 274 252 274 c 0
 242 274 236 282 236 292 c 0
 254 752 488 1018 723 1018 c 0
 910 1018 1069 856 1069 568 c 0
 1069 324 917 -2 461 -2 c 0
 451 -2 443 5 443 15 c 0
217 -450 m 0
 207 -450 201 -442 201 -432 c 2
 233 254 l 2
 241 382 247 499 247 603 c 0
 247 745 231 879 189 963 c 0
 185 972 188 983 197 987 c 0
 206 991 217 988 221 979 c 0
 267 885 283 747 283 603 c 0
 283 497 275 380 267 252 c 2
 235 -434 l 2
 235 -444 227 -450 217 -450 c 0
EndSplineSet
Layer: 2
SplineSet
461 15 m 0
 906 15 1052 331 1052 568 c 0
 1052 850 898 1001 723 1001 c 0
 502 1001 271 747 253 291 c 1024
218 -433 m 1
 250 253 l 1
 258 381 265 498 265 603 c 0
 265 746 249 882 205 971 c 1024
EndSplineSet
EndChar

StartChar: q
Encoding: 113 113 346
GlifName: q
Width: 1203
Flags: HMW
LayerCount: 3
Fore
SplineSet
816 871 m 0
 809 865 797 867 791 874 c 0
 740 938 662 984 557 984 c 0
 321 984 203 729 203 484 c 0
 203 231 293 32 531 32 c 0
 754 32 875 204 938 408 c 0
 941 417 951 423 960 420 c 0
 969 417 975 407 972 398 c 0
 907 190 776 -4 531 -4 c 0
 263 -4 167 227 167 484 c 0
 167 735 289 1018 557 1018 c 0
 672 1018 762 968 819 896 c 0
 825 889 823 877 816 871 c 0
989 994 m 0
 999 993 1006 986 1005 976 c 0
 983 679 971 384 971 87 c 0
 971 -83 976 -253 983 -424 c 0
 983 -434 976 -442 966 -442 c 0
 956 -442 948 -436 948 -426 c 0
 941 -255 937 -83 937 87 c 0
 937 384 949 681 971 978 c 0
 972 988 979 995 989 994 c 0
EndSplineSet
Layer: 2
SplineSet
805 885 m 0
 751 953 667 1001 557 1001 c 0
 305 1001 185 732 185 484 c 0
 185 229 278 14 531 14 c 0
 765 14 891 197 955 403 c 1025
988 977 m 1
 966 680 954 384 954 87 c 0
 954 -83 958 -254 965 -425 c 1024
EndSplineSet
EndChar

StartChar: r
Encoding: 114 114 347
GlifName: r
Width: 945
Flags: HMW
LayerCount: 3
Fore
SplineSet
787 994 m 0
 789 985 782 976 773 974 c 0
 337 890 295 485 256 -1 c 0
 255 -11 248 -18 238 -17 c 0
 228 -16 221 -9 222 1 c 0
 261 481 301 918 767 1008 c 0
 776 1010 785 1003 787 994 c 0
237 -17 m 0
 228 -16 221 -7 222 2 c 0
 237 144 249 344 249 532 c 0
 249 706 236 871 208 966 c 0
 205 975 211 985 220 988 c 0
 229 991 239 985 242 976 c 0
 272 875 283 708 283 532 c 0
 283 342 271 142 256 -2 c 0
 255 -11 246 -18 237 -17 c 0
EndSplineSet
Layer: 2
SplineSet
770 991 m 0
 319 904 278 483 239 0 c 1025
239 0 m 1
 254 143 266 343 266 532 c 0
 266 707 254 873 225 971 c 1024
EndSplineSet
EndChar

StartChar: u
Encoding: 117 117 348
GlifName: u
Width: 1206
Flags: HMW
LayerCount: 3
Fore
SplineSet
995 990 m 0
 968 705 955 511 955 353 c 0
 955 221 964 115 982 2 c 0
 984 -9 977 -15 969 -17 c 0
 960 -19 949 -15 948 -4 c 0
 930 111 920 220 920 353 c 0
 920 513 934 709 961 994 c 0
 962 1005 971 1010 980 1009 c 0
 988 1008 996 1002 995 990 c 0
961 583 m 0
 891 326 764 -17 500 -17 c 0
 291 -17 251 183 251 391 c 0
 251 594 253 779 264 1001 c 0
 264 1010 272 1017 281 1017 c 0
 292 1017 298 1010 298 999 c 0
 287 777 285 594 285 391 c 0
 285 206 316 17 500 17 c 0
 740 17 860 347 927 593 c 0
 929 601 938 608 948 606 c 0
 960 603 964 594 961 583 c 0
EndSplineSet
Layer: 2
SplineSet
965 0 m 0
 925.59375 250.69140625 928.452148438 469.030273438 978 993 c 1024
944 589 m 1
 859 276 730 1 500 1 c 0
 304 1 268 199 268 392 c 0
 268 595.138671875 270 779 281 1001 c 1024
EndSplineSet
EndChar

StartChar: asciitilde
Encoding: 126 126 349
GlifName: asciitilde
Width: 880
Flags: HMW
LayerCount: 3
Fore
SplineSet
120 1135 m 0
 111 1138 105 1148 108 1157 c 0
 136 1243 197 1308 289 1308 c 0
 364 1308 420 1276 470 1239 c 0
 515 1206 560 1190 601 1190 c 0
 664 1190 725 1229 766 1325 c 0
 770 1334 780 1338 789 1334 c 0
 798 1330 802 1320 798 1311 c 0
 753 1207 682 1154 601 1154 c 0
 550 1154 499 1174 450 1211 c 0
 402 1246 354 1274 289 1274 c 0
 217 1274 168 1225 142 1147 c 0
 139 1138 129 1132 120 1135 c 0
EndSplineSet
Layer: 2
SplineSet
125 1152 m 0
 152 1234 207 1291 289 1291 c 0
 359 1291 411 1261 460 1225 c 0
 507 1190 555 1172 601 1172 c 0
 673 1172 739 1218 782 1318 c 1024
EndSplineSet
EndChar

StartChar: cent
Encoding: 162 162 352
GlifName: cent
Width: 1071
Flags: HMW
LayerCount: 3
Fore
SplineSet
572 -382 m 0
 562 -382 555 -375 555 -365 c 2
 555 15 l 2
 555 25 562 32 572 32 c 0
 582 32 589 25 589 15 c 2
 589 -365 l 2
 589 -375 582 -382 572 -382 c 0
572 984 m 0
 562 984 555 991 555 1001 c 2
 555 1316 l 2
 555 1326 562 1334 572 1334 c 0
 582 1334 589 1326 589 1316 c 2
 589 1001 l 2
 589 991 582 984 572 984 c 0
EndSplineSet
Refer: 1 99 N 1 0 0 1 0 0 2
Layer: 2
SplineSet
572 -365 m 1
 572 15 l 1025
572 1001 m 1
 572 1316 l 1025
EndSplineSet
EndChar

StartChar: sterling
Encoding: 163 163 353
GlifName: sterling
Width: 1464
Flags: HMW
LayerCount: 3
Fore
SplineSet
215 653 m 0
 217 661 224 668 235 665 c 0
 304 647 382 640 460 640 c 0
 573 640 686 654 778 672 c 0
 789 674 795 668 797 660 c 0
 799 651 795 640 784 638 c 0
 690 620 575 606 460 606 c 0
 380 606 300 613 227 631 c 0
 216 634 213 644 215 653 c 0
364 687 m 2
 364 939 l 2
 364 1156 457 1364 670 1364 c 0
 853 1364 965 1243 994 1077 c 0
 996 1066 988 1059 980 1058 c 0
 971 1057 962 1060 960 1071 c 0
 934 1222 837 1328 670 1328 c 0
 487 1328 398 1150 398 939 c 2
 398 687 l 2
 398 457 333 219 212 108 c 1
 206 137 l 1
 327 89 481 32 710 32 c 0
 920 32 1135 79 1169 258 c 0
 1171 269 1181 274 1190 272 c 0
 1198 270 1205 263 1203 252 c 0
 1166 53 933 -2 710 -2 c 0
 475 -2 315 57 194 105 c 0
 187 108 183 114 183 121 c 0
 183 126 185 131 188 134 c 0
 301 238 364 469 364 687 c 2
EndSplineSet
Layer: 2
SplineSet
231 648 m 0
 302 630 381 623 460 623 c 0
 574 623 688 637 781 655 c 1024
977 1074 m 0
 947 1247 832 1346 670 1346 c 0
 472 1346 381 1153 381 939 c 2
 381 687 l 2
 381 452 310 222 200 121 c 1
 321 73 477.522460938 15 710 15 c 0
 931 15 1151 69 1186 255 c 1024
EndSplineSet
EndChar

StartChar: currency
Encoding: 164 164 354
GlifName: currency
Width: 1159
Flags: HMW
LayerCount: 3
Fore
SplineSet
1005 32 m 0
 998 26 987 27 981 34 c 2
 861 172 l 2
 855 179 855 191 862 197 c 0
 869 203 881 202 887 195 c 2
 1007 56 l 2
 1013 49 1012 38 1005 32 c 0
300 835 m 0
 293 829 281 829 275 836 c 2
 162 958 l 2
 156 965 156 977 163 983 c 0
 170 989 182 989 188 982 c 2
 301 860 l 2
 307 853 307 841 300 835 c 0
1006 983 m 0
 1013 977 1013 965 1007 958 c 2
 906 845 l 2
 900 838 889 837 882 843 c 0
 875 849 874 861 880 868 c 2
 981 982 l 2
 987 989 999 989 1006 983 c 0
287 168 m 0
 294 162 295 151 289 144 c 2
 189 33 l 2
 183 26 171 26 164 32 c 0
 157 38 157 50 163 57 c 2
 263 167 l 2
 269 174 280 174 287 168 c 0
EndSplineSet
Refer: 5 111 N 1 0 0 1 0 0 2
Layer: 2
SplineSet
994 45 m 1
 873.780273438 183.440429688 l 1025
288.009765625 848 m 1
 175 970 l 1025
994 970 m 1
 893.349609375 856.3203125 l 1025
275.650390625 155.360351562 m 1
 176 45 l 1025
EndSplineSet
EndChar

StartChar: brokenbar
Encoding: 166 166 356
GlifName: brokenbar
Width: 429
Flags: HMW
LayerCount: 3
Fore
SplineSet
214 1378 m 0
 224 1378 232 1371 232 1361 c 0
 232 1216 231 1058 228 895 c 0
 228 885 220 878 210 878 c 0
 200 878 193 885 193 895 c 0
 196 1058 196 1216 196 1361 c 0
 196 1371 204 1378 214 1378 c 0
229 514 m 0
 239 514 246 507 246 497 c 0
 242 317 237 145 229 -1 c 0
 228 -11 220 -18 210 -17 c 0
 200 -16 193 -9 194 1 c 0
 202 147 208 317 212 497 c 0
 212 507 219 514 229 514 c 0
EndSplineSet
Layer: 2
SplineSet
214 1361 m 0
 214 1216 213 1058 210 895 c 1024
229 497 m 0
 225 317 219 146 211 0 c 1024
EndSplineSet
EndChar

StartChar: dieresis
Encoding: 168 168 357
GlifName: dieresis
Width: 698
Flags: HMW
LayerCount: 3
Fore
SplineSet
566 1211 m 0
 566 1175 536 1152 503 1152 c 0
 467 1152 442 1183 442 1210 c 0
 442 1250 467 1276 496 1276 c 0
 537 1276 566 1246 566 1211 c 0
266 1223 m 0
 266 1180 238 1152 195 1152 c 0
 166 1152 142 1182 142 1214 c 0
 142 1248 169 1276 204 1276 c 0
 236 1276 266 1252 266 1223 c 0
EndSplineSet
Layer: 2
SplineSet
548 1211 m 0
 548 1186 528 1169 503 1169 c 0
 478 1169 459 1193 459 1210 c 0
 459 1243 478 1258 496 1258 c 0
 528 1258 548 1236 548 1211 c 0
249 1223 m 0
 249 1189 229 1169 195 1169 c 0
 179 1169 160 1189 160 1214 c 0
 160 1239 179 1258 204 1258 c 0
 229 1258 249 1239 249 1223 c 0
EndSplineSet
EndChar

StartChar: ordfeminine
Encoding: 170 170 359
GlifName: ordfeminine
Width: 946
Flags: HMW
LayerCount: 3
Fore
SplineSet
404 914 m 0
 567 914 630 1098 630 1247 c 0
 630 1388 555 1442 447 1442 c 0
 309 1442 208 1315 208 1156 c 0
 208 1012 290 914 404 914 c 0
404 878 m 0
 266 878 172 1000 172 1156 c 0
 172 1329 285 1476 447 1476 c 0
 571 1476 666 1406 666 1247 c 0
 666 1096 601 878 404 878 c 0
715 1475 m 0
 724 1471 727 1460 723 1451 c 0
 697 1397 660 1254 660 1134 c 0
 660 1021 692 914 766 914 c 0
 776 914 784 906 784 896 c 0
 784 886 776 878 766 878 c 0
 652 878 624 1027 624 1134 c 0
 624 1260 661 1405 691 1467 c 0
 695 1476 706 1479 715 1475 c 0
EndSplineSet
Layer: 2
SplineSet
404 896 m 0
 278 896 190 1006 190 1156 c 0
 190 1322 297 1459 447 1459 c 0
 563 1459 648 1397 648 1247 c 0
 648 1097 584 896 404 896 c 0
707 1459 m 0
 679 1401 642 1257 642 1134 c 0
 642 1024 672 896 766 896 c 1024
EndSplineSet
EndChar

StartChar: logicalnot
Encoding: 172 172 360
GlifName: logicalnot
Width: 985
Flags: HMW
LayerCount: 3
Fore
SplineSet
142 661 m 0
 142 671 150 678 160 678 c 2
 805 678 l 2
 816 678 822 669 822 661 c 2
 822 388 l 2
 822 378 815 370 805 370 c 0
 795 370 788 378 788 388 c 2
 788 644 l 1
 160 644 l 2
 150 644 142 651 142 661 c 0
EndSplineSet
Layer: 2
SplineSet
160 661 m 1
 805 661 l 17
 805 388 l 1025
EndSplineSet
EndChar

StartChar: degree
Encoding: 176 176 364
GlifName: degree
Width: 840
Flags: HMW
LayerCount: 3
Fore
SplineSet
618 1399 m 0
 618 1501 530 1598 424 1598 c 0
 329 1598 232 1499 232 1392 c 0
 232 1296 318 1210 412 1210 c 0
 524 1210 618 1299 618 1399 c 0
653 1399 m 0
 653 1278 542 1177 412 1177 c 0
 299 1177 197 1277 197 1392 c 0
 197 1516 308 1631 424 1631 c 0
 551 1631 653 1518 653 1399 c 0
EndSplineSet
Layer: 2
SplineSet
635 1399 m 0
 635 1289 532 1194 411 1194 c 0
 307 1194 215 1287 215 1392 c 0
 215 1507 319 1614 424 1614 c 0
 540 1614 635 1509 635 1399 c 0
EndSplineSet
EndChar

StartChar: acute
Encoding: 180 180 365
GlifName: acute
Width: 532
Flags: HMW
LayerCount: 3
Fore
SplineSet
383 1495 m 0
 390 1489 392 1477 386 1470 c 0
 311 1376 243 1288 186 1162 c 0
 182 1153 172 1149 163 1153 c 0
 154 1157 150 1167 154 1176 c 0
 213 1306 283 1398 358 1492 c 0
 364 1499 376 1501 383 1495 c 0
EndSplineSet
Layer: 2
SplineSet
372 1481 m 1
 297 1387 228 1297 170 1169 c 1025
EndSplineSet
EndChar

StartChar: mu
Encoding: 181 181 366
GlifName: mu
Width: 1206
Flags: HMW
LayerCount: 3
Fore
SplineSet
285 391 m 0
 285 116 308 -181 332 -421 c 0
 333 -430 326 -439 317 -440 c 0
 308 -441 299 -434 298 -425 c 0
 274 -185 251 114 251 391 c 0
 251 401 258 408 268 408 c 0
 278 408 285 401 285 391 c 0
995 990 m 0
 968 705 955 511 955 353 c 0
 955 221 964 115 982 2 c 0
 984 -9 977 -15 969 -17 c 0
 960 -19 949 -15 948 -4 c 0
 930 111 920 220 920 353 c 0
 920 513 934 709 961 994 c 0
 962 1005 971 1010 980 1009 c 0
 988 1008 996 1002 995 990 c 0
961 583 m 0
 891 326 764 -17 500 -17 c 0
 291 -17 251 183 251 391 c 0
 251 594 253 779 264 1001 c 0
 264 1010 272 1017 281 1017 c 0
 292 1017 298 1010 298 999 c 0
 287 777 285 594 285 391 c 0
 285 206 316 17 500 17 c 0
 740 17 860 347 927 593 c 0
 929 601 938 608 948 606 c 0
 960 603 964 594 961 583 c 0
EndSplineSet
Layer: 2
SplineSet
267 391 m 0
 267 115 290 -183 314 -423 c 1024
965 0 m 0
 926 251 928 469 978 993 c 1024
944 589 m 1
 859 276 730 1 500 1 c 0
 304 1 268 199 268 392 c 0
 268 595 270 779 281 1001 c 1024
EndSplineSet
EndChar

StartChar: paragraph
Encoding: 182 182 367
GlifName: paragraph
Width: 1329
Flags: HMW
LayerCount: 3
Fore
SplineSet
630 1038 m 0
 640 1038 648 1030 648 1020 c 2
 648 -382 l 2
 648 -392 640 -400 630 -400 c 0
 620 -400 612 -392 612 -382 c 2
 612 1020 l 2
 612 1030 620 1038 630 1038 c 0
933 978 m 0
 943 978 950 970 950 960 c 2
 950 -442 l 2
 950 -452 943 -460 933 -460 c 0
 923 -460 916 -452 916 -442 c 2
 916 960 l 2
 916 970 923 978 933 978 c 0
1181 1134 m 0
 1174 1128 1162 1128 1156 1135 c 0
 1056 1250 913 1328 725 1328 c 0
 436 1328 188 1099 188 811 c 0
 188 523 471 326 760 326 c 0
 836 326 912 339 984 366 c 0
 993 369 1003 365 1006 356 c 0
 1009 347 1005 337 996 334 c 0
 920 305 840 290 760 290 c 0
 459 290 152 497 152 811 c 0
 152 1119 418 1364 725 1364 c 0
 923 1364 1076 1280 1182 1159 c 0
 1188 1152 1188 1140 1181 1134 c 0
EndSplineSet
Layer: 2
SplineSet
933 960 m 1
 933 -442 l 1025
1169 1147 m 0
 1066 1265 918 1346 725 1346 c 0
 427 1346 170 1109 170 811 c 0
 170 510 465 308 760 308 c 0
 838 308 916 322 990 350 c 1024
630 1020 m 1
 630 -382 l 1025
EndSplineSet
EndChar

StartChar: uni00B9
Encoding: 185 185 369
GlifName: uni00B_9
Width: 536
Flags: HMW
LayerCount: 3
Fore
SplineSet
338 860 m 0
 328 861 321 868 322 878 c 2
 356 1419 l 1
 302 1375 244 1340 177 1313 c 0
 168 1309 158 1314 154 1323 c 0
 150 1332 155 1341 164 1345 c 0
 240 1375 306 1420 364 1472 c 0
 367 1474 372 1476 376 1476 c 0
 386 1476 393.637214276 1468.02320835 393 1458 c 2
 356 876 l 2
 355 866 348 859 338 860 c 0
EndSplineSet
Layer: 2
SplineSet
339 878 m 1
 376 1459 l 1
 317 1406 248 1360 170 1329 c 1024
EndSplineSet
EndChar

StartChar: onequarter
Encoding: 188 188 371
GlifName: onequarter
Width: 2016
Flags: HMW
LayerCount: 3
Fore
SplineSet
395 503 m 0
 385 504 378 511 379 521 c 2
 447 1575 l 1
 365 1504 273 1433 179 1374 c 0
 171 1369 160 1372 155 1380 c 0
 150 1388 153 1399 161 1404 c 0
 252 1457 343 1529 419 1600 c 0
 422 1602 426 1604 431 1604 c 2
 466 1604 l 2
 476 1604 484 1596 483 1586 c 2
 413 519 l 2
 412 509 405 502 395 503 c 0
1538 701 m 0
 1547 697 1551 687 1547 678 c 0
 1458 457 1236 87 1112 -88 c 1
 1335 -114 1651 -95 1852 -46 c 0
 1861 -44 1871 -50 1873 -59 c 0
 1875 -68 1869 -78 1860 -80 c 0
 1644 -133 1308 -151 1079 -119 c 0
 1077 -119 1074 -118 1072 -117 c 0
 1063 -112 1061 -100 1067 -92 c 0
 1186 68 1424 466 1515 692 c 0
 1519 701 1529 705 1538 701 c 0
1615 274 m 0
 1624 273 1631 264 1630 255 c 2
 1569 -370 l 2
 1568 -379 1559 -386 1550 -385 c 0
 1541 -384 1534 -375 1535 -366 c 2
 1596 259 l 2
 1597 268 1606 275 1615 274 c 0
483 32 m 0
 476 39 475 50 482 57 c 0
 841 438 1286 1024 1507 1422 c 0
 1512 1430 1523 1434 1531 1429 c 0
 1539 1424 1542 1414 1537 1406 c 0
 1314 1004 869 416 508 33 c 0
 501 26 490 25 483 32 c 0
EndSplineSet
Layer: 2
SplineSet
1531 685 m 0
 1439 456 1201 60 1081 -102 c 1
 1307 -134 1643 -115 1856 -63 c 1024
1613 257 m 1
 1552 -368 l 1025
495 45 m 1
 855 427 1300 1014 1522 1414 c 1025
396 520 m 1
 466 1587 l 1
 431 1587 l 1
 354 1515 263 1443 170 1389 c 1025
EndSplineSet
EndChar

StartChar: onehalf
Encoding: 189 189 372
GlifName: onehalf
Width: 2070
Flags: HMW
LayerCount: 3
Fore
SplineSet
483 33 m 0
 476 39 474 49 482 57 c 0
 842 438 1286 1023 1507 1422 c 0
 1513 1431 1523 1432 1530 1429 c 0
 1538 1425 1543 1416 1537 1406 c 0
 1314 1003 870 416 508 33 c 0
 500 25 490 27 483 33 c 0
394 504 m 0
 386 505 378 510 379 521 c 2
 447 1575 l 1
 365 1504 273 1433 179 1374 c 0
 170 1368 161 1373 156 1380 c 0
 151 1388 151 1398 161 1404 c 0
 252 1457 343 1529 419 1600 c 0
 422 1602 426 1604 431 1604 c 2
 466 1604 l 2
 476 1604 484 1596 483 1586 c 2
 413 519 l 2
 412 508 403 503 394 504 c 0
1852 401 m 0
 1852 557 1752 687 1581 687 c 0
 1423 687 1320 555 1320 398 c 0
 1320 384 1312 378 1304 378 c 0
 1295 378 1286 385 1286 396 c 0
 1286 572 1399 721 1578 721 c 0
 1773 721 1888 571 1888 398 c 0
 1888 226 1726 73 1557 -84 c 2
 1310 -313 l 1
 1413 -304 1511 -300 1614 -300 c 0
 1710 -300 1812 -305 1911 -310 c 0
 1921 -310 1928 -318 1928 -328 c 0
 1928 -338 1919 -344 1909 -344 c 0
 1810 -339 1710 -336 1614 -336 c 0
 1494 -336 1378 -340 1261 -352 c 0
 1241 -354 1235 -334 1247 -322 c 2
 1534 -56 l 2
 1708 105 1852 239 1852 401 c 0
EndSplineSet
Layer: 2
SplineSet
1303 395 m 0
 1303 564 1412 704 1580 704 c 0
 1763 704 1870 563 1870 399 c 0
 1870 238 1735 104 1546 -70 c 2
 1259 -335 l 1
 1377 -323 1494 -318 1614 -318 c 0
 1710 -318 1811 -322 1910 -327 c 1024
495 45 m 0
 856 427 1300 1013 1522 1414 c 1024
396 520 m 1
 466 1587 l 1
 431 1587 l 1
 354 1515 263 1443 170 1389 c 1024
EndSplineSet
EndChar

StartChar: threequarters
Encoding: 190 190 373
GlifName: threequarters
Width: 2166
Flags: HMW
LayerCount: 3
Fore
SplineSet
220 1334 m 0
 211 1336 205 1346 207 1355 c 0
 238 1493 369 1576 489 1576 c 0
 609 1576 722 1493 722 1307 c 0
 722 1102 487 1034 321 997 c 0
 312 995 302 1001 300 1010 c 0
 298 1019 304 1029 313 1031 c 0
 485 1070 688 1136 688 1307 c 0
 688 1475 591 1542 489 1542 c 0
 383 1542 268 1467 241 1347 c 0
 239 1338 229 1332 220 1334 c 0
752 827 m 1
 752 634 595 520 412 520 c 0
 322 520 229 550 159 608 c 0
 152 614 151 626 157 633 c 0
 163 640 174 642 181 636 c 0
 244 584 330 556 412 556 c 0
 581 556 718 657 718 827 c 1
 713 951 610 1022 474 1022 c 0
 421 1022 367 1009 321 997 c 0
 312 995 302 1001 300 1010 c 0
 298 1019 304 1029 313 1031 c 0
 359 1043 415 1058 474 1058 c 0
 621 1058 747 977 752 827 c 1
633 32 m 0
 626 39 625 50 632 57 c 0
 991 438 1436 1024 1657 1422 c 0
 1662 1430 1673 1434 1681 1429 c 0
 1689 1424 1692 1414 1687 1406 c 0
 1464 1004 1019 416 658 33 c 0
 651 26 640 25 633 32 c 0
1688 701 m 0
 1697 697 1701 687 1697 678 c 0
 1608 457 1386 87 1262 -88 c 1
 1485 -114 1801 -95 2002 -46 c 0
 2011 -44 2021 -50 2023 -59 c 0
 2025 -68 2019 -78 2010 -80 c 0
 1794 -133 1458 -151 1229 -119 c 0
 1227 -119 1224 -118 1222 -117 c 0
 1213 -112 1211 -100 1217 -92 c 0
 1336 68 1574 466 1665 692 c 0
 1669 701 1679 705 1688 701 c 0
1765 274 m 0
 1774 273 1781 264 1780 255 c 2
 1719 -370 l 2
 1718 -379 1709 -386 1700 -385 c 0
 1691 -384 1684 -375 1685 -366 c 2
 1746 259 l 2
 1747 268 1756 275 1765 274 c 0
EndSplineSet
Layer: 2
SplineSet
1681 685 m 0
 1589 456 1351 60 1231 -102 c 1
 1457 -134 1793 -115 2006 -63 c 1024
1763 257 m 1
 1702 -368 l 1025
645 45 m 1
 1005 427 1450 1014 1672 1414 c 1025
224 1351 m 0
 253 1480 376 1559 489 1559 c 0
 600 1559 705 1484 705 1307 c 0
 705 1119 486 1052 317 1014 c 1025
317 1014 m 1
 363 1026 418 1040 474 1040 c 0
 615 1040 730 964 735 827 c 1
 735 646 588 538 412 538 c 0
 326 538 237 567 170 622 c 1024
EndSplineSet
EndChar

StartChar: Eth
Encoding: 208 208 390
GlifName: E_th
Width: 1341
Flags: HMW
LayerCount: 3
Fore
SplineSet
72 728 m 0
 71 738 78 745 88 746 c 0
 307 763 490 759 645 746 c 0
 654 745 662 737 661 728 c 0
 660 719 651 711 642 712 c 0
 489 725 307 729 90 712 c 0
 80 711 73 718 72 728 c 0
EndSplineSet
Refer: 16 68 N 1 0 0 1 150 0 2
EndChar

StartChar: multiply
Encoding: 215 215 397
GlifName: multiply
Width: 882
Flags: HMW
LayerCount: 3
Fore
SplineSet
179 923 m 0
 185 931 195 934 203 929 c 0
 322 850 458 727 559 616 c 0
 635 533 690.125 452.736328125 723.658203125 400.76953125 c 0
 728.174804688 392.427734375 726.146484375 380.900390625 717.977539062 375.397460938 c 0
 709.80859375 369.895507812 697.469726562 370.766601562 692.953125 379.108398438 c 0
 663.416015625 425.6875 607 511 533 592 c 0
 434 701 298 822 183 899 c 0
 175 904 173 915 179 923 c 0
168 386 m 0
 162 392 160 404 167 411 c 0
 276 536 388 647 505 755 c 0
 569 814 636 873 705 931 c 0
 713 937 725 937 730 930 c 0
 735 923 735 911 727 905 c 0
 658 847 591 790 527 731 c 0
 410 623 302 512 193 389 c 0
 186 382 174 380 168 386 c 0
EndSplineSet
Layer: 2
SplineSet
193 914 m 0
 310 836 446 714 546 604 c 0
 621 522 677.95703125 439.359375 709 390 c 1024
180 400 m 0
 289 524 399 635 516 743 c 0
 580 802 647 860 716 918 c 1024
EndSplineSet
EndChar

StartChar: germandbls
Encoding: 223 223 404
GlifName: germandbls
Width: 1134
Flags: HMW
LayerCount: 3
Fore
SplineSet
571 1364 m 0
 758 1364 860 1198 860 1060 c 0
 860 922 832 878 745 808 c 0
 686 761 638 692 638 619 c 0
 638 548 685 508 756 472 c 0
 861 419 992 337 992 182 c 0
 992 57 826 -4 682 -4 c 0
 615 -4 549 8 495 38 c 0
 487 43 483 54 488 62 c 0
 493 70 504 73 512 68 c 0
 558 42 619 32 682 32 c 0
 826 32 956 93 956 182 c 0
 956 313 845 387 740 440 c 0
 667 478 604 528 604 619 c 0
 604 708 660 785 723 836 c 0
 806 902 824 928 824 1060 c 0
 824 1184 734 1328 571 1328 c 0
 445 1328 344 1252 313 1009 c 0
 275 715 252 375 227 3 c 0
 226 -7 219 -14 209 -13 c 0
 199 -12 192 -5 193 5 c 0
 218 377 241 717 279 1013 c 0
 312 1264 423 1364 571 1364 c 0
EndSplineSet
Layer: 2
SplineSet
210 4 m 0
 235 376 258 716 296 1011 c 0
 328 1258 434 1346 571 1346 c 1025
571 1346 m 1
 746 1346 842 1191 842 1060 c 0
 842 925 819 890 734 822 c 0
 673 773 621 700 621 619 c 0
 621 538 676 493 748 456 c 0
 853 403 974 325 974 182 c 0
 974 75 826 14 682 14 c 0
 617 14 553 25 503 53 c 1024
EndSplineSet
EndChar

StartChar: ae
Encoding: 230 230 411
GlifName: ae
Width: 1926
Flags: HMW
LayerCount: 3
Fore
SplineSet
1457 984 m 0
 1184 984 986 716 986 440 c 0
 986 137 1141 32 1364 32 c 0
 1491 32 1612 61 1703 144 c 0
 1710 150 1722 150 1728 143 c 0
 1734 136 1734 124 1727 118 c 0
 1626 27 1495 -2 1364 -2 c 0
 1127 -2 952 119 952 440 c 0
 952 730 1158 1018 1457 1018 c 0
 1584 1018 1710 940 1710 805 c 0
 1710 683 1605.06542969 608.890625 1531 565 c 0
 1342 453 1170 403 952 371 c 0
 942.056640625 369.540039062 935 377 934 387 c 0
 933 397 940.0625 403.5 950 405 c 0
 1162 437 1328 485 1513 595 c 0
 1587 639 1676 705 1676 805 c 0
 1676 914 1572 984 1457 984 c 0
546 32 m 0
 815 32 923 277 957 521 c 2
 1021 988 l 2
 1022 997 1031 1004 1040 1003 c 0
 1049 1002 1056 993 1055 984 c 2
 991 517 l 2
 957 271 843 -2 546 -2 c 0
 295 -2 167 198 167 419 c 0
 167 683 354 1018 675 1018 c 0
 767 1018 837 985 879 957 c 0
 887 952 889 940 884 932 c 0
 879 924 867 922 859 927 c 0
 821 953 759 984 675 984 c 0
 382 984 203 671 203 419 c 0
 203 210 319 32 546 32 c 0
EndSplineSet
Layer: 2
SplineSet
866 942 m 1
 825 969 757 1001 669 1001 c 0
 370 1001 185 677.379882812 185 419 c 0
 185 208 293 15 532 15 c 1
 815 15 934.524937701 242.571475481 973 519 c 2
 1038 986 l 1025
949.85546875 390.09765625 m 0
 1122 402 1336.08305621 468.860195586 1523 580 c 0
 1597 624 1694 694 1694 805 c 0
 1694 927 1579 1001 1458 1001 c 0
 1172 1001 970 723 970 440 c 0
 970 128 1135 15 1365 15 c 0
 1494 15 1620 44 1716 131 c 1032
EndSplineSet
EndChar

StartChar: oslash
Encoding: 248 248 428
GlifName: oslash
Width: 1144
Flags: HMW
LayerCount: 3
Fore
SplineSet
151 -15 m 0
 143 -10 140 1 145 9 c 2
 972 1030 l 2
 979 1037 990 1036 997 1029 c 0
 1004 1022 1003 1011 996 1004 c 2
 175 -9 l 2
 170 -17 159 -20 151 -15 c 0
EndSplineSet
Refer: 5 111 N 1 0 0 1 26 0 2
Layer: 2
SplineSet
160 0 m 1
 984 1017 l 1025
EndSplineSet
EndChar

StartChar: thorn
Encoding: 254 254 434
GlifName: thorn
Width: 1191
Flags: HMW
LayerCount: 3
Fore
SplineSet
234 1378 m 0
 244 1378 251 1371 251 1361 c 2
 217 -365 l 2
 217 -375 210 -382 200 -382 c 0
 190 -382 183 -375 183 -365 c 2
 217 1361 l 2
 217 1371 224 1378 234 1378 c 0
EndSplineSet
Refer: 5 111 N 1 0 0 1 32 0 2
EndChar

StartChar: OE
Encoding: 338 338 436
GlifName: O_E_
Width: 2337
Flags: HMW
LayerCount: 3
Fore
SplineSet
1271 695 m 0
 1272 704 1282 710 1291 709 c 0
 1400 693 1551 682 1711 682 c 0
 1815 682 1919 686 2010 698 c 0
 2019 699 2028 692 2029 683 c 0
 2030 674 2023 665 2014 664 c 0
 1921 652 1817 646 1711 646 c 0
 1549 646 1396 659 1285 675 c 0
 1276 676 1270 686 1271 695 c 0
1312 110 m 0
 1314 119 1324 125 1333 123 c 0
 1506 84 1685 66 1859 66 c 0
 1968 66 2075 73 2175 88 c 0
 2184 89 2193 83 2194 74 c 0
 2195 65 2189 55 2180 54 c 0
 2078 39 1970 30 1859 30 c 0
 1683 30 1500 50 1325 89 c 0
 1316 91 1310 101 1312 110 c 0
706 32 m 0
 1172 32 1282 490 1282 1065 c 0
 1282 1152 1280 1241 1276 1328 c 0
 1275 1340 1286 1347 1295 1346 c 0
 1527 1315 1724 1290 1899 1290 c 0
 1989 1290 2073 1296 2154 1315 c 0
 2163 1317 2173 1311 2175 1302 c 0
 2177 1293 2171 1283 2162 1281 c 0
 2077 1262 1991 1254 1899 1254 c 0
 1725 1254 1536 1279 1311 1309 c 1
 1315 1229 1318 1145 1318 1065 c 0
 1318 494 1208 -2 706 -2 c 0
 394 -2 152 279 152 643 c 0
 152 996 376 1364 709 1364 c 0
 854 1364 965 1288 1037 1191 c 0
 1043 1183 1041 1173 1033 1167 c 0
 1025 1161 1015 1163 1009 1171 c 0
 943 1262 842 1328 709 1328 c 0
 406 1328 188 986 188 643 c 0
 188 293 418 32 706 32 c 0
EndSplineSet
Layer: 2
SplineSet
1281 692 m 0
 1391 676 1550 664 1711 664 c 0
 1816 664 1920 669 2012 681 c 1024
1329 106 m 0
 1503 67 1684 48 1859 48 c 0
 1969 48 2076 56 2177 71 c 1024
1023 1181 m 0
 954 1275 848 1346 709 1346 c 0
 391 1346 170 991 170 643 c 0
 170 286 406 15 706 15 c 1025
706 15 m 1
 1190 15 1300 492 1300 1065 c 0
 1300 1152 1297 1242 1293 1329 c 1
 1525 1298 1722 1272 1899 1272 c 0
 1990 1272 2075 1279 2158 1298 c 1024
EndSplineSet
EndChar

StartChar: dotlessi
Encoding: 305 305 438
GlifName: dotlessi
Width: 475
Flags: HMW
LayerCount: 3
Fore
SplineSet
246 988 m 0
 256 988 262 980 262 970 c 0
 251 736 248 210 248 0 c 0
 248 -10 240 -17 230 -17 c 0
 220 -17 213 -10 213 0 c 0
 213 210 217 736 228 972 c 0
 228 982 236 988 246 988 c 0
EndSplineSet
Layer: 2
SplineSet
245 971 m 1
 234 736 230 210 230 0 c 1025
EndSplineSet
EndChar

StartChar: uniE00A
Encoding: 57354 57354 439
GlifName: uniE_00A_
Width: 250
Flags: HMW
LayerCount: 3
Fore
SplineSet
-18 45 m 0
 -18 55 -10 62 0 62 c 2
 250 62 l 2
 260 62 268 55 268 45 c 0
 268 35 260 28 250 28 c 2
 0 28 l 2
 -10 28 -18 35 -18 45 c 0
EndSplineSet
Layer: 2
SplineSet
0 45 m 25
 250 45 l 1049
EndSplineSet
EndChar

StartChar: uniE012
Encoding: 57362 57362 443
GlifName: uniE_012
Width: 0
Flags: HMW
LayerCount: 3
Fore
SplineSet
371 1719 m 0
 370 1709 364.558012835 1703.2776242 353 1704 c 0
 337 1705 323 1705 308 1705 c 0
 169 1705 88 1630 88 1552 c 0
 88 1487 147 1463 225 1439 c 0
 297 1417 384 1388 384 1299 c 0
 384 1198 260 1143 132 1143 c 0
 103 1143 71 1144 37 1147 c 0
 29 1148 22 1155 22 1164 c 0
 22 1174.21125023 30.6768737387 1181.96779309 41 1181 c 0
 73 1178 103 1176 132 1176 c 0
 243 1176 350 1222 350 1299 c 0
 350 1361 294 1384 216 1408 c 0
 144 1430 54 1460 54 1552 c 0
 54 1654 165 1738 308 1738 c 0
 326.867962264 1738 339.048828125 1737.59472656 355 1736 c 0
 365.000115645 1735.00023333 371.901044498 1728.01044498 371 1719 c 0
EndSplineSet
Layer: 2
SplineSet
353.700195312 1720.45019531 m 0
 338.299804688 1721.54980469 322.900390625 1721.54980469 307.5 1721.54980469 c 0
 164.5 1721.54980469 71 1642.34960938 71 1552.15039062 c 0
 71 1474.04980469 145.799804688 1447.65039062 220.599609375 1423.45019531 c 0
 295.400390625 1399.25 366.900390625 1375.04980469 366.900390625 1299.15039062 c 0
 366.900390625 1224.34960938 277.799804688 1159.45019531 131.5 1159.45019531 c 0
 102.900390625 1159.45019531 72.099609375 1160.54980469 39.099609375 1163.84960938 c 1024
EndSplineSet
EndChar

StartChar: uni0237
Encoding: 567 567 444
GlifName: uni0237
Width: 464
Flags: HMW
LayerCount: 3
Fore
SplineSet
236 988 m 0
 246 988 253 981 253 971 c 0
 253 664 252 418 245 224 c 0
 228 -244 175 -432 -15 -432 c 0
 -25 -432 -32 -424 -32 -414 c 0
 -32 -404 -25 -396 -15 -396 c 0
 137 -396 194 -252 211 226 c 0
 218 420 219 664 219 971 c 0
 219 981 226 988 236 988 c 0
EndSplineSet
Layer: 2
SplineSet
236 971 m 0
 236 664 235 419 228 225 c 0
 211 -248 156 -414 -15 -414 c 1024
EndSplineSet
EndChar

StartChar: uniE014
Encoding: 57364 57364 446
GlifName: uniE_014
Width: 1693
Flags: HMW
LayerCount: 3
Fore
SplineSet
178 616 m 0
 178 326 477 62 752 62 c 0
 1218 62 1516 325 1516 760 c 0
 1516 1061 1242 1344 831 1344 c 0
 504 1344 178 1063 178 616 c 0
142 616 m 0
 142 1081 484 1378 831 1378 c 0
 1258 1378 1550 1083 1550 760 c 0
 1550 305 1232 28 752 28 c 0
 459 28 142 304 142 616 c 0
EndSplineSet
Layer: 2
SplineSet
160 616 m 0
 160 1072 494 1361 831 1361 c 0
 1250 1361 1533 1072 1533 760 c 0
 1533 315 1225 45 752 45 c 0
 468 45 160 315 160 616 c 0
EndSplineSet
EndChar

StartChar: uniE015
Encoding: 57365 57365 447
GlifName: uniE_015
Width: 1693
Flags: HMW
LayerCount: 3
Fore
SplineSet
1057 973 m 0
 1051 966 1039 966 1032 972 c 0
 987 1012 934 1034 868 1034 c 0
 678 1034 534 853 534 667 c 0
 534 506 622 388 809 388 c 0
 906 388 980 415 1047 456 c 0
 1055 461 1066 458 1071 450 c 0
 1076 442 1073 431 1065 426 c 0
 994 383 914 352 809 352 c 0
 602 352 500 492 500 667 c 0
 500 869 654 1070 868 1070 c 0
 942 1070 1005 1042 1056 998 c 0
 1063 992 1063 980 1057 973 c 0
EndSplineSet
Layer: 2
SplineSet
1044 985 m 0
 996 1027 938 1052 868 1052 c 0
 666 1052 517 861 517 667 c 0
 517 499 612 370 809 370 c 0
 910 370 987 399 1056 441 c 1024
EndSplineSet
EndChar

StartChar: uniE016
Encoding: 57366 57366 448
GlifName: uniE_016
Width: 1667
Flags: HMW
LayerCount: 3
Fore
SplineSet
553 908 m 0
 545 914 543 924 549 932 c 0
 605 1008 698 1052 791 1052 c 0
 930 1052 1076 956 1076 809 c 0
 1076 685 980 597 840 584 c 1
 916 501 1015 433 1113 378 c 0
 1121 373 1124 363 1119 355 c 0
 1114 347 1104 343 1096 348 c 0
 985 410 870 489 789 589 c 0
 787 591 786 595 786 599 c 0
 785 609 793 618 803 618 c 0
 951 618 1040 698 1040 809 c 0
 1040 930 918 1018 791 1018 c 0
 708 1018 627 978 577 912 c 0
 571 904 561 902 553 908 c 0
686 914 m 0
 696 914 702 906 702 896 c 0
 694 717 680 526 662 354 c 0
 661 345 651 338 642 339 c 0
 633 340 626 349 627 358 c 0
 645 530 660 719 668 898 c 0
 668 908 676 914 686 914 c 0
EndSplineSet
Layer: 2
SplineSet
563 922 m 0
 616 993 703 1035 791 1035 c 0
 924 1035 1058 943 1058 809 c 0
 1058 686 957 600 803 600 c 1
 882 503 994 424 1104 363 c 1024
685 897 m 0
 677 718 662 528 644 356 c 1024
EndSplineSet
EndChar

StartChar: uniFB00
Encoding: 64256 64256 449
GlifName: uniF_B_00
Width: 1426
Flags: HMW
LayerCount: 3
Fore
SplineSet
544 1626 m 0
 579 1626 615 1606 650 1566 c 0
 656 1559 656 1547 649 1541 c 0
 642 1535 630 1535 624 1542 c 0
 591 1578 565 1592 544 1592 c 0
 480 1592 418 1466 405 1307 c 0
 374 962 366 348 366 -4 c 0
 366 -14 358 -21 348 -21 c 0
 338 -21 331 -14 331 -4 c 0
 331 348 340 964 371 1311 c 0
 384 1464 440 1626 544 1626 c 0
668 866 m 0
 864 866 1059 855 1253 833 c 0
 1262 832 1269 823 1268 814 c 0
 1267 805 1258 798 1249 799 c 0
 1057 821 862 830 668 830 c 0
 508 830 348 825 186 813 c 0
 176 812 169 819 168 829 c 0
 167 839 174 846 184 847 c 0
 346 859 508 866 668 866 c 0
1157 1626 m 0
 1192 1626 1228 1606 1263 1566 c 0
 1269 1559 1269 1547 1262 1541 c 0
 1255 1535 1243 1535 1237 1542 c 0
 1204 1578 1178 1592 1157 1592 c 0
 1093 1592 1031 1466 1018 1307 c 0
 987 962 979 348 979 -4 c 0
 979 -14 971 -21 961 -21 c 0
 951 -21 944 -14 944 -4 c 0
 944 348 953 964 984 1311 c 0
 997 1464 1053 1626 1157 1626 c 0
EndSplineSet
Layer: 2
SplineSet
185 830 m 16
 347 842 508 848 668 848 c 0
 863 848 1058 838 1251 816 c 1032
1250 1554 m 17
 1216 1592 1185 1609 1157 1609 c 0
 1073 1609 1014 1465 1001 1309 c 0
 970 963 961 348 961 -4 c 1025
637 1554 m 17
 603 1592 572 1609 544 1609 c 0
 460 1609 401 1465 388 1309 c 0
 357 963 348 348 348 -4 c 1025
EndSplineSet
Ligature2: "'rlig' Required Ligatures in Latin lookup 8 subtable" f f
LCarets2: 1 0
EndChar

StartChar: uniFB05
Encoding: 64261 64261 450
GlifName: uniF_B_05
Width: 1365
Flags: HMW
LayerCount: 3
Fore
SplineSet
544 1626 m 0
 579 1626 615 1606 650 1566 c 0
 656 1559 656 1547 649 1541 c 0
 642 1535 630 1535 624 1542 c 0
 591 1578 565 1592 544 1592 c 0
 480 1592 418 1466 405 1307 c 0
 374 962 366 348 366 -4 c 0
 366 -14 358 -21 348 -21 c 0
 338 -21 331 -14 331 -4 c 0
 331 348 340 964 371 1311 c 0
 384 1464 440 1626 544 1626 c 0
676 866 m 0
 854 866 1031 857 1192 837 c 0
 1201 836 1208 827 1207 818 c 0
 1206 809 1197 802 1188 803 c 0
 1029 823 852 830 676 830 c 0
 508 830 341 824 186 813 c 0
 176 812 169 819 168 829 c 0
 167 839 174 846 184 847 c 0
 339 858 508 866 676 866 c 0
979 1233 m 0
 988 1232 995 1223 994 1214 c 0
 961 929 935 646 935 355 c 0
 935 203 944 32 1113 32 c 0
 1134 32 1158 34 1184 39 c 0
 1193 41 1202 34 1204 25 c 0
 1206 16 1199 7 1190 5 c 0
 1162 0 1136 -2 1113 -2 c 0
 906 -2 901 211 901 355 c 0
 901 648 927 933 960 1218 c 0
 961 1227 970 1234 979 1233 c 0
EndSplineSet
Layer: 2
SplineSet
1190 820 m 0
 1030 840 853 848 676 848 c 0
 508 848 340 841 185 830 c 1032
977 1216 m 0
 944 931 918 647 918 355 c 0
 918 207 925 15 1113 15 c 0
 1135 15 1160 17 1187 22 c 1024
637 1554 m 17
 603 1592 572 1609 544 1609 c 0
 460 1609 401 1465 388 1309 c 0
 357 963 348 348 348 -4 c 1025
EndSplineSet
Ligature2: "'rlig' Required Ligatures in Latin lookup 8 subtable" f t
LCarets2: 1 0
EndChar

StartChar: uniE030
Encoding: 57392 57392 451
GlifName: uniE_030
Width: 0
Flags: HMW
LayerCount: 3
Fore
SplineSet
-4 1175 m 0
 -3 1184 5 1191 15 1189 c 0
 80 1180 143 1176 199 1176 c 0
 362 1176 502 1210 502 1318 c 0
 502 1375 459 1414 400 1414 c 0
 283 1414 195 1279 148 1164 c 0
 144 1156 134 1152 126 1155 c 0
 118 1158 114 1169 118 1178 c 0
 171 1306 269 1447 403 1447 c 0
 480 1447 536 1398 536 1320 c 0
 536 1186 381 1141 197 1141 c 0
 140 1141 77 1146 11 1155 c 0
 1 1157 -5 1166 -4 1175 c 0
162 1667 m 0
 160 1677 168 1685 176 1686 c 0
 186 1687 194 1681 196 1671 c 0
 207 1595 212 1498 212 1427 c 0
 212 1367 210 1316 206 1282 c 0
 205 1273 195 1266 187 1267 c 0
 177 1268 170 1277 172 1287 c 0
 176 1319 178 1365 178 1419 c 0
 178 1493 172 1592 162 1667 c 0
EndSplineSet
Layer: 2
SplineSet
10 1173 m 0
 75 1164 138 1159 195 1159 c 0
 414 1159 519 1218 519 1321 c 0
 519 1386 471 1430 402 1430 c 0
 298 1430 196 1330 129 1163 c 1025
178 1670 m 17
 189 1590 195 1491 195 1419 c 0
 195 1363 192 1314 188 1282 c 1033
EndSplineSet
Colour: ff00ff
EndChar

StartChar: uniE031
Encoding: 57393 57393 452
GlifName: uniE_031
Width: 883
Flags: HMW
LayerCount: 3
Fore
SplineSet
145 -9 m 0
 140 -1 143 10 151 15 c 0
 335 127 524 201 720 238 c 0
 729 240 738 233 740 224 c 0
 742 215 735 206 726 204 c 0
 534 167 349 95 169 -15 c 0
 161 -20 150 -17 145 -9 c 0
168 414 m 0
 168 599 315 721 476 721 c 0
 535 721 595 705 651 670 c 0
 660 665 662 655 657 646 c 0
 652 637 641 635 632 640 c 0
 582 670 529 684 476 684 c 0
 334 684 204 581 204 414 c 0
 204 308 264 198 445 198 c 0
 514 198 635 219 721 238 c 0
 730 240 739 232 740 223 c 0
 741 214 734 206 725 204 c 0
 637 185 516 164 445 164 c 0
 248 164 168 290 168 414 c 0
EndSplineSet
Layer: 2
SplineSet
723 221 m 1
 529 184 342 111 160 0 c 1024
642 655 m 0
 589 688 532 703 476 703 c 0
 324 703 186 590 186 414 c 0
 186 299 256 181 445 181 c 0
 515 181 638 204 723 221 c 1025
EndSplineSet
Colour: ff00ff
EndChar

StartChar: uniE032
Encoding: 57394 57394 453
GlifName: uniE_032
Width: 522
Flags: HMW
LayerCount: 3
Fore
SplineSet
263 1144 m 0
 262 1153 269 1162 278 1163 c 0
 287 1164 296 1157 297 1148 c 0
 326 931 342 703 342 468 c 0
 342 313 335 157 322 0 c 0
 321 -9 312 -17 303 -16 c 0
 294 -15 286 -7 287 2 c 0
 300 159 306 315 306 468 c 0
 306 701 292 929 263 1144 c 0
-38 1454 m 0
 -44 1459 -47 1469 -41 1477 c 0
 42 1588 90 1634 154 1634 c 0
 190 1634 217 1622 243 1608 c 0
 279 1589 316 1571 398 1571 c 0
 495 1571 563 1606 624 1679 c 0
 629 1686 639 1687 646 1682 c 0
 654 1677 657 1665 650 1657 c 0
 583 1578 505 1537 398 1537 c 0
 310 1537 263 1560 227 1578 c 0
 201 1591 182 1600 154 1600 c 0
 110 1600 72 1570 -13 1457 c 0
 -18 1450 -30 1447 -38 1454 c 0
EndSplineSet
Layer: 2
SplineSet
-27 1467 m 0
 57 1579 100 1617 154 1617 c 0
 186 1617 209 1606 235 1593 c 0
 271 1575 313 1554 398 1554 c 0
 500 1554 573 1592 637 1668 c 1024
280 1146 m 0
 309 930 324 702 324 468 c 0
 324 314 317 158 304 1 c 1024
EndSplineSet
Colour: ff00ff
EndChar

StartChar: uniE033
Encoding: 57395 57395 454
GlifName: uniE_033
Width: 497
Flags: HMW
LayerCount: 3
Fore
SplineSet
183 1164 m 0
 182 1173 189 1182 198 1183 c 0
 207 1184 216 1177 217 1168 c 0
 249 928 262 795 262 531 c 0
 262 366 256 166 242 0 c 0
 241 -9 232 -17 223 -16 c 0
 214 -15 206 -7 207 2 c 0
 221 166 228 366 228 531 c 0
 228 793 215 924 183 1164 c 0
EndSplineSet
Layer: 2
SplineSet
200 1166 m 0
 232 926 245 794 245 531 c 0
 245 366 238 166 224 1 c 1024
EndSplineSet
Colour: ff00ff
EndChar

StartChar: uniE034
Encoding: 57396 57396 455
GlifName: uniE_034
Width: 1310
Flags: HMW
LayerCount: 3
Fore
SplineSet
399 798 m 0
 536 798 930 593 1128 522 c 0
 1136 519 1139 513 1139 506 c 0
 1139 498 1134.9988314 490.010462 1126 489 c 0
 571.926248577 426.784091472 177 190.876953125 177 -134 c 0
 177 -392 425 -530 713 -530 c 0
 848 -530 1015 -505 1132 -460 c 0
 1142 -455 1152 -461 1155 -470 c 0
 1159 -480 1153 -488 1144 -492 c 0
 1023 -539 852 -564 713 -564 c 0
 410 -564 143 -414 143 -134 c 0
 143 199 522.806338028 441.992957746 1061 510 c 1
 876 585 510 764 399 764 c 0
 308 764 264 664 225 554 c 0
 223 546 212 539 202 543 c 0
 195 546 186 556 191 566 c 0
 232 685 287 798 399 798 c 0
EndSplineSet
Layer: 2
SplineSet
1138 -476 m 0
 1019 -522 850 -547 713 -547 c 0
 375 -547 160 -374 160 -134 c 0
 160 201.454101562 533.399107776 425.395419218 1122 506 c 1
 902 584 525 781 399 781 c 0
 317 781 264 719 208 560 c 1024
EndSplineSet
Colour: ff00ff
EndChar

StartChar: uniE035
Encoding: 57397 57397 456
GlifName: uniE_035
Width: 955
Flags: HMW
LayerCount: 3
Fore
SplineSet
144 51 m 0
 147 59 154 65 165 62 c 0
 255 34 343 22 422 22 c 0
 626 22 762 107 762 245 c 0
 762 467 564 651 444 758 c 0
 436 765 437 775 443 782 c 0
 449 789 459 792 468 784 c 0
 592 673 798 479 798 245 c 0
 798 77 632 -14 422 -14 c 0
 339 -14 249 0 155 28 c 0
 144 31 141 42 144 51 c 0
EndSplineSet
Layer: 2
SplineSet
456 771 m 0
 592 650 780 457 780 245 c 0
 780 92 629 4 422 4 c 0
 341 4 252 17 160 45 c 1024
EndSplineSet
Colour: ff00ff
EndChar

StartChar: uniE036
Encoding: 57398 57398 457
GlifName: uniE_036
Width: 795
Flags: HMW
LayerCount: 3
Fore
SplineSet
536 500 m 0
 547 504 557 497 559 488 c 0
 591 365 608 249 608 140 c 0
 608 -192 438 -414 166 -505 c 0
 156 -508 147 -502 144 -494 c 0
 140 -484 146 -474 154 -471 c 0
 413 -384 574 -180 574 140 c 0
 574 245 557 359 525 480 c 0
 522 490 528 497 536 500 c 0
EndSplineSet
Layer: 2
SplineSet
542 484 m 0
 574 362 591 247 591 140 c 0
 591 -160 457 -388 160 -488 c 1024
EndSplineSet
Colour: ff00ff
EndChar

StartChar: uniE037
Encoding: 57399 57399 458
GlifName: uniE_037
Width: 2316
Flags: HMW
LayerCount: 3
Fore
SplineSet
162 -58 m 0
 162 77 202 227 260 366 c 0
 264 375 274 379 283 375 c 0
 292 371 296 361 292 352 c 0
 236 215 198 71 198 -58 c 0
 198 -280 337 -456 664 -456 c 0
 978 -456 1122 -270 1122 -23 c 0
 1122 100 1093 239 1042 376 c 0
 1039 385 1043 395 1052 398 c 0
 1061 401 1071 397 1074 388 c 0
 1126 247 1158 106 1158 -23 c 0
 1158 -286 996 -490 664 -490 c 0
 321 -490 162 -300 162 -58 c 0
1042 376 m 0
 1039 385 1043 395 1052 398 c 0
 1061 401 1071 397 1074 388 c 0
 1164 149 1247 38 1382 38 c 0
 1518 38 1600 106 1635 412 c 0
 1636 421 1645 428 1654 427 c 0
 1663 426 1670 417 1669 408 c 0
 1634 98 1542 2 1382 2 c 0
 1223 2 1132 135 1042 376 c 0
1622 255 m 0
 1622 310 1627 354 1635 412 c 0
 1636 421 1645 428 1654 427 c 0
 1663 426 1670 417 1669 408 c 0
 1661 350 1658 308 1658 255 c 0
 1658 95 1768 34 1886 34 c 0
 2033 34 2113 152 2113 309 c 0
 2113 374 2106 443 2093 510 c 0
 2091 519 2098 528 2107 530 c 0
 2116 532 2125 525 2127 516 c 0
 2140 447 2149 376 2149 309 c 0
 2149 147 2063 -2 1886 -2 c 0
 1746 -2 1622 81 1622 255 c 0
EndSplineSet
Layer: 2
SplineSet
276 359 m 17
 219 221 180 74 180 -58 c 0
 180 -290 329 -473 664 -473 c 0
 987 -473 1140 -278 1140 -23 c 0
 1140 103 1110 243 1058 382 c 1025
1058 382 m 1
 1148 142 1235 20 1382 20 c 0
 1530 20 1617 102 1652 410 c 1025
1652 410 m 1
 1644 352 1640 309 1640 255 c 0
 1640 87.958984375 1757 16 1876 16 c 0
 2058 16 2131 149.334960938 2131 309 c 0
 2131 375 2123 445 2110 513 c 1025
EndSplineSet
Colour: ff00ff
EndChar

StartChar: uniE038
Encoding: 57400 57400 459
GlifName: uniE_038
Width: 2360
Flags: HMW
LayerCount: 3
Fore
SplineSet
172 -51 m 0
 172 65 206 211 262 347 c 0
 266 357 277 359 285 356 c 0
 293 353 299 344 294 333 c 0
 239 201 208 59 208 -51 c 0
 208 -316 388 -456 663 -456 c 0
 953 -456 1132 -302 1132 -19 c 0
 1132 94 1118 244 1049 382 c 0
 1044 392 1049 400 1057 404 c 0
 1065 408 1077 406 1081 395 c 0
 1136 247 1168 100 1168 -19 c 0
 1168 -318 971 -490 663 -490 c 0
 370 -490 172 -333 172 -51 c 0
1049 382 m 0
 1044 393 1049 401 1057 404 c 0
 1065 407 1077 406 1081 395 c 0
 1179 158 1333 32 1635 32 c 0
 1956 32 2158 169 2158 363 c 0
 2158 507 2051 592 1901 592 c 0
 1706 592 1531 448 1374 143 c 0
 1369 133 1358 131 1350 135 c 0
 1342 139 1337 148 1342 159 c 0
 1501 468 1686 628 1901 628 c 0
 2070 628 2192 525 2192 363 c 0
 2192 139 1962 -2 1635 -2 c 0
 1310 -2 1159 141 1049 382 c 0
EndSplineSet
Layer: 2
SplineSet
1065 388 m 1
 1119.91788932 241.219459462 1150 97.1737055682 1150 -19.0166015625 c 0
 1150 -304.144490964 968.845004544 -473 662.9296875 -473 c 0
 367.061784467 -473 190 -315.054605699 190 -51.0888671875 c 0
 190 61.8901075608 222.435903638 206.050839127 278 340 c 1033
1358 151 m 17
 1515.74518798 458.020835658 1695.46736601 610 1900.69433594 610 c 0
 2065.76562392 610 2175 511.676107128 2175 363.090820312 c 0
 2175 154.21650571 1959.13950391 15 1635.13867188 15 c 0
 1344.4848415 15 1173.48867905 126.870272511 1065 388 c 1025
EndSplineSet
Colour: ff00ff
EndChar

StartChar: uniE039
Encoding: 57401 57401 460
GlifName: uniE_039
Width: 1472
Flags: HMW
LayerCount: 3
Fore
SplineSet
143 48 m 0
 144 56 151 64 162 62 c 0
 306 42 445 32 570 32 c 0
 956 32 1272 123 1272 376 c 0
 1272 514 1169 601 1030 601 c 0
 751 601 544 276 439 16 c 0
 435 6 425 4 417 7 c 0
 409 10 402 18 407 30 c 0
 517 303 731 635 1030 635 c 0
 1188 635 1306 535 1306 376 c 0
 1306 93 968 -2 570 -2 c 0
 443 -2 304 8 158 28 c 0
 146 30 142 39 143 48 c 0
516 1216 m 0
 514 1227 522 1234 530 1235 c 0
 538 1236 548 1231 550 1220 c 0
 576 1042 586 799 586 593 c 0
 586 469 582 360 572 286 c 0
 571 276 562 271 554 271 c 0
 545 272 536 278 538 290 c 0
 548 360 552 469 552 593 c 0
 552 797 541 1040 516 1216 c 0
EndSplineSet
Layer: 2
SplineSet
160 45 m 0
 305 25 444 15 570 15 c 0
 1056 15 1289 147 1289 376 c 0
 1289 521 1183 618 1030 618 c 0
 798 618 572 394 423 23 c 1025
533 1218 m 17
 557 1041 569 798 569 593 c 0
 569 469 565 360 555 288 c 1033
EndSplineSet
Colour: ff00ff
EndChar

StartChar: uniE03A
Encoding: 57402 57402 461
GlifName: uniE_03A_
Width: 1329
Flags: HMW
LayerCount: 3
Fore
SplineSet
162 -112 m 0
 162 275 579 484 906 484 c 0
 916 484 924 477 924 467 c 0
 924 457 916 450 906 450 c 0
 593 450 198 249 198 -112 c 0
 198 -395 467 -522 757 -522 c 0
 897 -522 1059 -488 1167 -433 c 0
 1175 -429 1187 -433 1191 -441 c 0
 1195 -449 1191 -461 1183 -465 c 0
 1069 -524 903 -556 757 -556 c 0
 461 -556 162 -423 162 -112 c 0
286 745 m 0
 286 955 469 1112 652 1112 c 0
 746 1112 828 1076 886 1013 c 0
 892 1006 892 994 885 988 c 0
 878 982 866 982 860 989 c 0
 808 1044 736 1076 652 1076 c 0
 487 1076 320 933 320 745 c 0
 320 554 484 474 707 474 c 0
 750 474 794 477 837 480 c 0
 860 482 883 483 905 484 c 0
 915 484 924 478 924 468 c 0
 924 458 917 450 907 450 c 0
 885 449 862 448 839 446 c 0
 796 443 752 440 707 440 c 0
 480 440 286 524 286 745 c 0
EndSplineSet
Layer: 2
SplineSet
906 467 m 1
 586 467 180 262 180 -112 c 0
 180 -409 464 -539 757 -539 c 0
 900 -539 1064 -506 1175 -449 c 1024
873 1001 m 0
 818 1060 741 1094 652 1094 c 0
 478 1094 303 944 303 745 c 0
 303 539 482 457 707 457 c 0
 751 457 795 460 838 463 c 0
 861.03125 464.606445312 884 466 906 467 c 1025
EndSplineSet
Colour: ff00ff
EndChar

StartChar: uniE03B
Encoding: 57403 57403 462
GlifName: uniE_03B_
Width: 668
Flags: HMW
LayerCount: 3
Back
SplineSet
-18 45 m 0
 -18 55 -10 62 0 62 c 2
 2716 62 l 2
 2726 62 2734 55 2734 45 c 0
 2734 35 2726 28 2716 28 c 2
 0 28 l 2
 -10 28 -18 35 -18 45 c 0
EndSplineSet
Fore
SplineSet
-18 45 m 0
 -18 55 -10 62 0 62 c 2
 668 62 l 2
 678 62 686 55 686 45 c 0
 686 35 678 28 668 28 c 2
 0 28 l 2
 -10 28 -18 35 -18 45 c 0
EndSplineSet
Layer: 2
SplineSet
0 45 m 9
 668 45 l 1025
EndSplineSet
Colour: ffff
EndChar

StartChar: uniE03C
Encoding: 57404 57404 463
GlifName: uniE_03C_
Width: 1306
Flags: HMW
LayerCount: 3
Fore
SplineSet
142 -15 m 0
 142 117 188 264 239 366 c 0
 243 375 254 378 263 374 c 0
 272 370 275 359 271 350 c 0
 222 252 178 109 178 -15 c 0
 178 -247 337 -406 619 -406 c 0
 983 -406 1078 -186 1078 148 c 0
 1078 493 1058 820 1030 1210 c 0
 1029 1220 1036 1227 1046 1228 c 0
 1056 1229 1063 1222 1064 1212 c 0
 1092 822 1114 495 1114 148 c 0
 1114 -192 1007 -442 619 -442 c 0
 321 -442 142 -267 142 -15 c 0
EndSplineSet
Layer: 2
SplineSet
1047 1211 m 17
 1075 821 1096 494 1096 148 c 0
 1096 -189 995 -424 619 -424 c 0
 329 -424 160 -257 160 -15 c 0
 160 113 205 258 255 358 c 1033
EndSplineSet
Colour: ff00ff
EndChar

StartChar: uniE03D
Encoding: 57405 57405 464
GlifName: uniE_03D_
Width: 1210
Flags: HMW
LayerCount: 3
Fore
SplineSet
756 640 m 0
 947 640 1042 466 1042 281 c 0
 1042 99 894 49 729 49 c 0
 629 49 519.265199654 67.4609028379 424 84 c 0
 280 109 201 96 208 -26 c 2
 246 -703 l 2
 247 -713 239 -721 229 -721 c 0
 220 -721 212 -714 212 -705 c 2
 174 -28 l 1
 168 119 269 149 430 118 c 0
 525 100 633 83 729 83 c 0
 883 83 1008 121 1008 281 c 0
 1008 450.545898438 922 606 756 606 c 0
 579.299176074 606 475.333112904 424.865300005 446 243 c 0
 445 235 437 229 429 229 c 0
 419 229 410 238 412 249 c 0
 443.749813404 444.034568051 560 640 756 640 c 0
EndSplineSet
Layer: 2
SplineSet
229 -704 m 1
 191 -27 l 2
 184 95 258 134 427 101 c 0
 522 83 631 66 729 66 c 0
 891 66 1025 111 1025 281 c 0
 1025 480 916 623 756 623 c 0
 594 623 467 477 429 246 c 1024
EndSplineSet
Colour: ff00ff
EndChar

StartChar: uniE03E
Encoding: 57406 57406 465
GlifName: uniE_03E_
Width: 920
Flags: HMW
LayerCount: 3
Fore
SplineSet
142 242 m 0
 142 392 251 600 418 743 c 0
 425 749 436 748 442 741 c 0
 448 734 447 723 440 717 c 0
 279 580 178 378 178 242 c 0
 178 127 270 32 429 32 c 0
 589 32 688 127 688 257 c 0
 688 403 545 628 324 820 c 0
 317 826 316 837 322 844 c 0
 328 851 339 852 346 846 c 0
 571 652 722 421 722 257 c 0
 722 105 604 -2 429 -2 c 0
 256 -2 142 105 142 242 c 0
EndSplineSet
Layer: 2
SplineSet
429 15 m 1
 263 15 160 116 160 242 c 0
 160 385 265 590 429 730 c 1033
335 833 m 17
 558 640 705 412 705 257 c 0
 705 116 597 15 429 15 c 1025
EndSplineSet
Colour: ff00ff
EndChar

StartChar: uniE03F
Encoding: 57407 57407 466
GlifName: uniE_03F_
Width: 948
Flags: HMW
LayerCount: 3
Fore
SplineSet
464 633 m 0
 664 633 766 370 766 179 c 0
 766 -177 508 -416 151 -505 c 0
 141 -508 132 -501 130 -493 c 0
 127 -483 134 -473 143 -471 c 0
 486 -385 731 -161 731 179 c 0
 731 351 642 599 464 599 c 0
 315 599 221 412 221 275 c 0
 221 116 324 50 482 50 c 0
 542 50 608 60 677 78 c 0
 687 81 696 74 698 65 c 0
 700 55 693 46 685 44 c 0
 614 25 546 15 482 15 c 0
 305 15 187 97 187 275 c 0
 187 432 293 633 464 633 c 0
EndSplineSet
Layer: 2
SplineSet
681 61 m 0
 431 -5 204 34 204 275 c 0
 204 435 316 616 464 616 c 0
 619 616 749 414 749 179 c 0
 749 -78 593 -374 147 -488 c 1024
EndSplineSet
Colour: ff00ff
EndChar

StartChar: uniE040
Encoding: 57408 57408 467
GlifName: uniE_040
Width: 0
Flags: HMW
LayerCount: 3
Fore
SplineSet
-51 1224 m 0
 -53 1233 -50 1242 -39 1245 c 0
 154 1289 278 1410 278 1543 c 0
 278 1607 252 1658 193 1658 c 0
 130 1658 72 1597 72 1525 c 0
 72 1454 141 1406 356 1370 c 0
 367 1368 370 1359 369 1350 c 0
 368 1342 361 1334 350 1336 c 0
 139 1371 38 1421 38 1525 c 0
 38 1615 107 1692 193 1692 c 0
 271 1692 314 1626 314 1543 c 0
 314 1386 170 1257 -31 1211 c 0
 -42 1209 -49 1216 -51 1224 c 0
-172 1561 m 0
 -172 1738 -13 1894 131 1905 c 0
 141 1906 148 1899 149 1889 c 0
 150 1879 143 1872 133 1871 c 0
 9 1862 -138 1718 -138 1561 c 0
 -138 1530 -132 1499 -120 1468 c 0
 -116 1459 -120 1450 -129 1446 c 0
 -138 1442 -148 1447 -152 1456 c 0
 -166 1491 -172 1526 -172 1561 c 0
EndSplineSet
Layer: 2
SplineSet
353 1353 m 0
 140.343324251 1388.44277929 55 1437.70134228 55 1525 c 0
 55 1606.02173913 118.46 1675 193 1675 c 0
 256.576642336 1675 296 1622.5631068 296 1543 c 0
 296 1398.15407855 162.034974548 1272.68834474 -35 1228 c 1024
132 1888 m 0
 -2 1878 -155 1728 -155 1561 c 0
 -155 1528 -149 1495 -136 1462 c 1024
EndSplineSet
Colour: ff00ff
EndChar

StartChar: uniE041
Encoding: 57409 57409 468
GlifName: uniE_041
Width: 0
Flags: HMW
LayerCount: 3
Fore
SplineSet
-1 1335 m 0
 -4 1344 0 1354 9 1357 c 2
 414 1501 l 2
 423 1504 433 1500 436 1491 c 0
 439 1482 435 1472 426 1469 c 2
 21 1325 l 2
 12 1322 2 1326 -1 1335 c 0
EndSplineSet
Layer: 2
SplineSet
15 1341 m 1
 420 1485 l 1025
EndSplineSet
Colour: ff00ff
EndChar

StartChar: uniE042
Encoding: 57410 57410 469
GlifName: uniE_042
Width: 0
Flags: HMW
LayerCount: 3
Fore
SplineSet
-51 1224 m 0
 -53 1233 -50 1242 -39 1245 c 0
 154 1289 278 1410 278 1543 c 0
 278 1607 252 1658 193 1658 c 0
 130 1658 72 1597 72 1525 c 0
 72 1454 141 1406 356 1370 c 0
 367 1368 370 1359 369 1350 c 0
 368 1342 361 1334 350 1336 c 0
 139 1371 38 1421 38 1525 c 0
 38 1615 107 1692 193 1692 c 0
 271 1692 314 1626 314 1543 c 0
 314 1386 170 1257 -31 1211 c 0
 -42 1209 -49 1216 -51 1224 c 0
EndSplineSet
Layer: 2
SplineSet
353 1353 m 0
 140.343324251 1388.44277929 55 1437.70134228 55 1525 c 0
 55 1606.02173913 118.46 1675 193 1675 c 0
 256.576642336 1675 296 1622.5631068 296 1543 c 0
 296 1398.15407855 162.034974548 1272.68834474 -35 1228 c 1024
EndSplineSet
Colour: ff00ff
EndChar

StartChar: uniE043
Encoding: 57411 57411 470
GlifName: uniE_043
Width: 0
Flags: HMW
LayerCount: 3
Fore
SplineSet
-2 1360 m 0
 -2 1419 27 1483 62 1529 c 0
 68 1537 79 1538 87 1532 c 0
 95 1526 96 1515 90 1507 c 0
 59 1467 34 1407 34 1360 c 0
 34 1304 65 1282 110 1282 c 0
 165 1282 217 1337 222 1443 c 0
 222 1451 228 1458 237 1459 c 0
 247 1460 255 1453 256 1443 c 0
 262 1336 309 1280 364 1280 c 0
 413 1280 446 1305 446 1374 c 0
 446 1435 421 1510 402 1553 c 0
 398 1562 402 1572 411 1576 c 0
 420 1580 430 1576 434 1567 c 0
 455 1520 480 1443 480 1374 c 0
 480 1289 431 1246 364 1246 c 0
 306 1246 262 1287 239 1350 c 1
 215 1287 168 1246 110 1246 c 0
 49 1246 -2 1284 -2 1360 c 0
EndSplineSet
Layer: 2
SplineSet
418 1560 m 0
 438 1515 463 1439 463 1374 c 0
 463 1297 422 1263 364 1263 c 0
 295 1263 245 1332 239 1442 c 1
 234 1332 179 1264 110 1264 c 0
 57 1264 16 1294 16 1360 c 0
 16 1413 43 1475 76 1518 c 1024
EndSplineSet
Colour: ff00ff
EndChar

StartChar: uniE044
Encoding: 57412 57412 471
GlifName: uniE_044
Width: 0
Flags: HMW
LayerCount: 3
Fore
SplineSet
20 1434 m 0
 20 1532 93 1606 176 1606 c 0
 270 1606 330 1530 330 1452 c 0
 330 1352 260 1280 175 1280 c 0
 85 1280 20 1356 20 1434 c 0
54 1434 m 0
 54 1374 105 1314 175 1314 c 0
 238 1314 296 1368 296 1452 c 0
 296 1512 248 1572 176 1572 c 0
 115 1572 54 1514 54 1434 c 0
EndSplineSet
Layer: 2
SplineSet
176 1589 m 0
 259 1589 313 1521 313 1452 c 0
 313 1360 249 1297 175 1297 c 0
 95 1297 37 1365 37 1434 c 0
 37 1523 104 1589 176 1589 c 0
EndSplineSet
Colour: ff00ff
EndChar

StartChar: uniE045
Encoding: 57413 57413 472
GlifName: uniE_045
Width: 0
Flags: HMW
LayerCount: 3
Fore
SplineSet
14 1267 m 0
 54 1336 118 1386 194 1386 c 0
 234 1386 275 1371 316 1343 c 0
 357 1316 391 1306 419 1306 c 0
 479 1306 523 1356 555 1424 c 0
 559 1433 570 1436 579 1432 c 0
 588 1428 591 1417 587 1408 c 0
 553 1338 501 1270 419 1270 c 0
 383 1270 341 1284 296 1315 c 0
 259 1341 226 1352 194 1352 c 0
 134 1352 80 1312 44 1249 c 0
 39 1241 28 1238 20 1243 c 0
 12 1248 9 1259 14 1267 c 0
EndSplineSet
Layer: 2
SplineSet
571 1416 m 0
 538 1347 490 1288 419 1288 c 0
 387 1288 349 1300 306 1329 c 0
 267 1356 230 1369 194 1369 c 0
 126 1369 67 1324 29 1258 c 1024
EndSplineSet
Colour: ff00ff
EndChar

StartChar: uniE046
Encoding: 57414 57414 473
GlifName: uniE_046
Width: 0
Flags: HMW
LayerCount: 3
Fore
SplineSet
-1 1214 m 0
 -4 1222 -2 1232 8 1236 c 2
 214 1308 l 1
 120 1314 55 1371 55 1469 c 0
 55 1581 139 1663 251 1663 c 0
 271 1663 305 1661 324 1658 c 0
 332 1657 338 1649 338 1641 c 0
 338 1631 329 1622 318 1624 c 0
 303 1627 269 1629 251 1629 c 0
 158 1629 89 1562 89 1469 c 0
 89 1383 144 1341 233 1341 c 0
 279 1341 342 1353 414 1377 c 0
 425 1381 432 1374 435 1366 c 0
 438 1356 432 1347 425 1345 c 2
 20 1204 l 2
 10 1200 2 1206 -1 1214 c 0
EndSplineSet
Layer: 2
SplineSet
321 1641 m 0
 304 1644 270 1646 251 1646 c 0
 148 1646 72 1571 72 1469 c 0
 72 1378 132 1324 233 1324 c 0
 282 1324 346 1337 419 1361 c 1
 14 1220 l 1025
EndSplineSet
Colour: ff00ff
EndChar

StartChar: uniE047
Encoding: 57415 57415 474
GlifName: uniE_047
Width: 0
Flags: HMW
LayerCount: 3
Fore
SplineSet
421 1415 m 0
 429 1410 432 1399 427 1391 c 2
 261 1122 l 2
 254 1109 238 1112 232 1120 c 2
 40 1361 l 2
 34 1368 36 1380 43 1386 c 0
 50 1392 62 1390 68 1383 c 2
 244 1161 l 1
 397 1409 l 2
 402 1417 413 1420 421 1415 c 0
EndSplineSet
Colour: ff00ff
EndChar

StartChar: uniE048
Encoding: 57416 57416 475
GlifName: uniE_048
Width: 1782
Flags: HMW
LayerCount: 3
Fore
SplineSet
142 373 m 0
 142 447 159 543 184 594 c 0
 188 603 199 606 208 602 c 0
 217 598 220 587 216 578 c 0
 195 537 178 441 178 373 c 0
 178 81 528 32 843 32 c 0
 1137 32 1548 88 1548 383 c 0
 1548 468 1523 566 1493 618 c 0
 1488 626 1491 637 1499 642 c 0
 1507 647 1518 644 1523 636 c 0
 1557 576 1584 474 1584 383 c 0
 1584 46 1127 -2 843 -2 c 0
 536 -2 142 41 142 373 c 0
EndSplineSet
Layer: 2
SplineSet
1508 627 m 0
 1540 571 1566 471 1566 383 c 0
 1566 67 1132 15 843 15 c 0
 532 15 160 61 160 373 c 0
 160 444 177 540 200 586 c 1024
EndSplineSet
Colour: ff00ff
EndChar

StartChar: uniE049
Encoding: 57417 57417 476
GlifName: uniE_049
Width: 1500
Flags: HMW
LayerCount: 3
Back
SplineSet
723 -442 m 4
 382 -442 182 -262 182 30 c 4
 182 147 205 265 241 399 c 4
 243.958259381 410.011298808 253 413 262 411 c 4
 270 409 278.200961394 401.736858445 275 390 c 4
 239 258 216 142 216 29 c 4
 216 -245 396 -408 716 -408 c 4
 1036 -408 1219 -246 1219 14 c 4
 1219 148 1186 279 1134 436 c 4
 1130.11092269 447.742021874 1137 455 1145 457 c 4
 1154 459 1163.32562737 455.793469591 1167 445 c 4
 1215 304 1255 158 1255 12 c 4
 1255 -268 1060 -442 723 -442 c 4
EndSplineSet
Fore
SplineSet
174 21 m 0
 174 178 217 342 265 462 c 0
 269 472 280 475 288 472 c 0
 296 469 301 461 297 450 c 0
 251 334 208 172 208 21 c 0
 208 -270 409 -407 703 -407 c 0
 1044 -407 1262 -214 1262 123 c 0
 1262 359 1168 643 985 643 c 0
 846 643 742 494 742 320 c 0
 742 165 827 99 982 99 c 0
 1067 99 1130 114 1206 137 c 0
 1217 140 1225 134 1227 125 c 0
 1229 116 1227 106 1216 103 c 0
 1140 80 1071 63 982 63 c 0
 809 63 708 149 708 320 c 0
 708 502 818 679 985 679 c 0
 1195 679 1296 374 1296 123 c 0
 1296 -231 1063 -443 703 -443 c 0
 391 -443 174 -287 174 21 c 0
EndSplineSet
Layer: 2
SplineSet
281 456 m 0
 234 338 191 175 191 21 c 0
 191 -279 401 -425 703 -425 c 0
 1052 -425 1279 -224 1279 123 c 0
 1279 427 1152 661 985 661 c 0
 821 661 725 498 725 320 c 0
 725 158 817 81 982 81 c 0
 1069 81 1135 97 1211 120 c 1024
EndSplineSet
Colour: ff00ff
EndChar

StartChar: uniE04A
Encoding: 57418 57418 477
GlifName: uniE_04A_
Width: 0
Flags: HMW
LayerCount: 3
Fore
SplineSet
-21 1205 m 0
 1 1272 8 1319 8 1389 c 0
 8 1456 5 1504 -3 1581 c 0
 -4 1590 3 1599 12 1600 c 0
 21 1601 30 1594 31 1585 c 0
 39 1508 44 1458 44 1389 c 0
 44 1317 37 1264 13 1193 c 0
 10 1184 0 1179 -9 1182 c 0
 -18 1185 -24 1196 -21 1205 c 0
EndSplineSet
Layer: 2
SplineSet
14 1583 m 17
 22 1506 26 1457 26 1389 c 0
 26 1318 19 1268 -4 1199 c 1033
EndSplineSet
Colour: ff00ff
EndChar

StartChar: uniE04B
Encoding: 57419 57419 478
GlifName: uniE_04B_
Width: 1777
Flags: HMW
LayerCount: 3
Fore
SplineSet
169 355 m 0
 169 433 184 520 212 598 c 0
 216 608 226 611 235 608 c 0
 243 605 248 597 244 586 c 0
 218 512 203 429 203 355 c 0
 203 82 518 28 838 28 c 0
 1260 28 1575 88 1575 389 c 0
 1575 671 1505 955 1278 955 c 0
 1109 955 1040 790 1040 622 c 0
 1040 465 1139 401 1287 401 c 0
 1360 401 1452 417 1525 439 c 0
 1536 443 1544 435 1546 427 c 0
 1548 419 1545 408 1535 405 c 0
 1458 381 1364 367 1287 367 c 0
 1124 367 1006 445 1006 622 c 0
 1006 805 1086 989 1278 989 c 0
 1532 989 1609 685 1609 389 c 0
 1609 54 1275 -6 838 -6 c 0
 507 -6 169 54 169 355 c 0
EndSplineSet
Layer: 2
SplineSet
228 592 m 0
 201 516 186 431 186 355 c 0
 186 124 401 11 838 11 c 0
 1400 11 1592 135 1592 389 c 0
 1592 743 1469 972 1278 972 c 0
 1125 972 1023 830 1023 622 c 0
 1023 468 1117 384 1287 384 c 0
 1362 384 1455 399 1530 422 c 1024
EndSplineSet
Colour: ff00ff
EndChar

StartChar: uniE04C
Encoding: 57420 57420 479
GlifName: uniE_04C_
Width: 1904
Flags: HMW
LayerCount: 3
Fore
SplineSet
169 360 m 0
 169 438 181 514 206 598 c 0
 210 610 220 614 229 611 c 0
 237 608 244 599 240 588 c 0
 215 506 203 434 203 360 c 0
 203 103 456 32 788 32 c 0
 1073 32 1438 56 1438 309 c 0
 1438 495 1185 773 1021 939 c 0
 1018 942 1015 946 1015 951 c 0
 1015 958 1021 966 1028 968 c 2
 1761 1217 l 2
 1773 1221 1782 1214 1784 1205 c 0
 1786 1197 1782 1187 1771 1183 c 2
 1065 943 l 1
 1227 777 1472 503 1472 309 c 0
 1472 27 1095 -2 788 -2 c 0
 443 -2 169 78 169 360 c 0
EndSplineSet
Layer: 2
SplineSet
1766 1200 m 1
 1033 951 l 1
 1276 705 1455 466 1455 309 c 0
 1455 108 1221 15 788 15 c 0
 388 15 186 126 186 360 c 0
 186 436 198 510 223 593 c 1024
EndSplineSet
Colour: ff00ff
EndChar

StartChar: uniE04D
Encoding: 57421 57421 480
GlifName: uniE_04D_
Width: 1440
Flags: HMW
LayerCount: 3
Fore
SplineSet
723 -442 m 0
 382 -442 182 -262 182 30 c 0
 182 147 205 265 241 399 c 0
 243.958259381 410.011298808 253 413 262 411 c 0
 270 409 278.200961394 401.736858445 275 390 c 0
 239 258 216 142 216 29 c 0
 216 -245 396 -408 716 -408 c 0
 1036 -408 1219 -246 1219 14 c 0
 1219 148 1186 279 1134 436 c 0
 1130.11092269 447.742021874 1137 455 1145 457 c 0
 1154 459 1163.32562737 455.793469591 1167 445 c 0
 1215 304 1255 158 1255 12 c 0
 1255 -268 1060 -442 723 -442 c 0
EndSplineSet
Layer: 2
SplineSet
258 394 m 0
 227 261 200 144 200 29 c 0
 200 -253 390 -425 718 -425 c 0
 1046 -425 1236 -254 1236 14 c 0
 1236 150 1197 283 1150 441 c 1024
EndSplineSet
Colour: ff00ff
EndChar

StartChar: uniE04E
Encoding: 57422 57422 481
GlifName: uniE_04E_
Width: 1454
Flags: HMW
LayerCount: 3
Fore
SplineSet
173 -3 m 0
 173 82 184 179 206 291 c 0
 208 301 217 306 226 305 c 0
 235 304 242 297 240 285 c 0
 218 175 207 78 207 -3 c 0
 207 -309 404 -408 714 -408 c 0
 990 -408 1260 -304 1260 -106 c 0
 1260 20.1764705882 1137 32.5294117647 994 44 c 0
 829 59 650 77 650 298 c 0
 650 514 824 685 1041 685 c 0
 1114 685 1189 672 1252 642 c 0
 1262 637 1263 626 1259 618 c 0
 1255 610 1247 605 1236 610 c 0
 1177 638 1108 651 1041 651 c 0
 843 651 684 495 684 298 c 0
 684 105 845 89 1003 74 c 0
 1155 61.4 1294 48.8 1294 -106 c 0
 1294 -331 1004 -442 714 -442 c 0
 391 -442 173 -329 173 -3 c 0
EndSplineSet
Layer: 2
SplineSet
1244 626 m 0
 1183 655 1111 668 1041 668 c 0
 832 668 667 503 667 298 c 0
 667 -82.7254477447 1277 186 1277 -106 c 0
 1277 -284 1067 -425 714 -425 c 0
 371 -425 190 -296 190 -3 c 0
 190 80 201 177 223 288 c 1024
EndSplineSet
Colour: ff00ff
EndChar

StartChar: uniE04F
Encoding: 57423 57423 482
GlifName: uniE_04F_
Width: 1937
Flags: HMW
LayerCount: 3
Back
SplineSet
142 414 m 0
 142 478 154 550 179 628 c 0
 182 637 192 643 201 640 c 0
 210 637 216 627 213 618 c 0
 189 542 178 474 178 414 c 0
 178 174 361 32 711 32 c 0
 1188 32 1477 205 1549 559 c 0
 1551 567 1558 573 1566 573 c 0
 1576 573 1584 565 1583 555 c 0
 1581 523 1580 494 1580 465 c 0
 1580 171 1675 62 1937 62 c 2
 3985 62 l 2
 3995 62 4002 55 4002 45 c 0
 4002 35 3995 28 3985 28 c 2
 1937 28 l 2
 1671 28 1557 146 1546 427 c 1
 1430 136 1138 -2 711 -2 c 0
 353 -2 142 148 142 414 c 0
EndSplineSet
Fore
SplineSet
142 414 m 0
 142 478 154 550 179 628 c 0
 182 637 192 643 201 640 c 0
 210 637 216 627 213 618 c 0
 189 542 178 474 178 414 c 0
 178 174 361 32 711 32 c 0
 1188 32 1477 205 1549 559 c 0
 1551 567 1558 573 1566 573 c 0
 1576 573 1584 565 1583 555 c 0
 1581 523 1580 494 1580 465 c 0
 1580 171 1674 62 1936 62 c 2
 1937 62 l 2
 1947 62 1954 55 1954 45 c 0
 1954 35 1947 28 1937 28 c 2
 1936 28 l 2
 1670 28 1557 146 1546 427 c 1
 1430 136 1138 -2 711 -2 c 0
 353 -2 142 148 142 414 c 0
EndSplineSet
Layer: 2
SplineSet
1937 45 m 16
 1666 45 1563 164 1563 465 c 0
 1563 494 1564 524 1566 556 c 1
 1492 191 1192 15 711 15 c 0
 357 15 160 161 160 414 c 0
 160 476 172 546 196 623 c 1024
EndSplineSet
Colour: ffff
EndChar

StartChar: uniE050
Encoding: 57424 57424 483
GlifName: uniE_050
Width: 924
Flags: HMW
LayerCount: 3
Fore
SplineSet
-17 45 m 0
 -17 55 -10 62 -0 62 c 0
 190 62 362 67 465 91 c 0
 652 135 727 179 727 389 c 0
 727 671 642 955 430 955 c 0
 271 955 192 790 192 622 c 0
 192 465 291 401 439 401 c 0
 510 401 602 416 677 439 c 0
 688 443 696 435 698 427 c 0
 700 419 697 408 687 405 c 0
 609 381 515 367 439 367 c 0
 276 367 158 445 158 622 c 0
 158 805 248 989 430 989 c 0
 669 989 761 685 761 389 c 0
 761 168 674 104 473 57 c 0
 365 32 191 28 -0 28 c 0
 -10 28 -17 35 -17 45 c 0
EndSplineSet
Layer: 2
SplineSet
0 45 m 0
 599 45 744 109.067382812 744 389 c 0
 744 743.313476562 620.831054688 972 430 972 c 0
 277 972 175 830 175 622 c 0
 175 468.030273438 268.961914062 384 439 384 c 0
 512.5390625 384 605.48046875 398.534179688 682 422 c 1024
EndSplineSet
Colour: ff00ff
EndChar

StartChar: uniE051
Encoding: 57425 57425 484
GlifName: uniE_051
Width: 944
Flags: HMW
LayerCount: 3
Back
SplineSet
-17 45 m 0
 -17 55 -10 62 0 62 c 0
 347 62 734 208 734 499 c 0
 734 663 638 790 483 790 c 0
 326 790 210 663 210 504 c 0
 210 210 575 62 943 62 c 2
 2992 62 l 2
 3002 62 3009 55 3009 45 c 0
 3009 35 3002 28 2992 28 c 2
 943 28 l 2
 575 28 176 174 176 504 c 0
 176 681 305 826 483 826 c 0
 662 826 770 677 770 499 c 0
 770 172 347 28 0 28 c 0
 -10 28 -17 35 -17 45 c 0
EndSplineSet
Fore
SplineSet
-17 45 m 0
 -17 55 -10 62 0 62 c 0
 347 62 734 208 734 499 c 0
 734 663 638 790 483 790 c 0
 326 790 210 663 210 504 c 0
 210 210 575 62 943 62 c 2
 944 62 l 2
 954 62 961 55 961 45 c 0
 961 35 954 28 944 28 c 2
 943 28 l 2
 575 28 176 174 176 504 c 0
 176 681 305 826 483 826 c 0
 662 826 770 677 770 499 c 0
 770 172 347 28 0 28 c 0
 -10 28 -17 35 -17 45 c 0
EndSplineSet
Layer: 2
SplineSet
483 808 m 1
 650 808 752 670 752 499 c 0
 752 190 347 45 0 45 c 1025
945 45 m 17
 577 45 193 192 193 504 c 0
 193 672 316 808 483 808 c 1025
EndSplineSet
Colour: ffff
EndChar

StartChar: uniE052
Encoding: 57426 57426 485
GlifName: uniE_052
Width: 645
Flags: HMW
LayerCount: 3
Fore
SplineSet
123 1460 m 0
 114 1462 108 1472 110 1481 c 0
 136 1596 255 1696 362 1696 c 0
 416 1696 479 1677 551 1636 c 0
 613 1601 664 1584 705 1584 c 0
 769 1584 817 1624 865 1708 c 0
 870 1716 881 1719 889 1714 c 0
 897 1709 900 1698 895 1690 c 0
 845 1602 787 1550 705 1550 c 0
 654 1550 597 1569 533 1606 c 0
 465 1645 408 1662 362 1662 c 0
 275 1662 166 1572 144 1473 c 0
 142 1464 132 1458 123 1460 c 0
383 1164 m 0
 382 1173 389 1182 398 1183 c 0
 407 1184 416 1177 417 1168 c 0
 449 928 462 795 462 531 c 0
 462 366 456 166 442 0 c 0
 441 -9 432 -17 423 -16 c 0
 414 -15 406 -7 407 2 c 0
 421 166 428 366 428 531 c 0
 428 793 415 924 383 1164 c 0
EndSplineSet
Layer: 2
SplineSet
880 1699 m 0
 831 1613 778 1567 705 1567 c 0
 659 1567 605 1585 542 1621 c 0
 472 1661 412 1679 362 1679 c 0
 265 1679 151 1584 127 1477 c 1024
EndSplineSet
Colour: ff00ff
EndChar

StartChar: uniE054
Encoding: 57428 57428 486
GlifName: uniE_054
Width: 2019
Flags: HMW
LayerCount: 3
Back
SplineSet
169 360 m 0
 169 438 181 514 206 598 c 0
 210 610 220 614 229 611 c 0
 237 608 244 599 240 588 c 0
 215 506 203 434 203 360 c 0
 203 103 456 32 788 32 c 0
 1073 32 1438 56 1438 309 c 0
 1438 495 1185 773 1021 939 c 0
 1018 942 1015 946 1015 951 c 0
 1015 958 1021 966 1028 968 c 2
 1761 1217 l 2
 1773 1221 1782 1214 1784 1205 c 0
 1786 1197 1782 1187 1771 1183 c 2
 1065 943 l 1
 1227 777 1472 503 1472 309 c 0
 1472 27 1095 -2 788 -2 c 0
 443 -2 169 78 169 360 c 0
1414 421 m 0
 1410 432 1416 441 1424 444 c 0
 1432 447 1441 444 1445 434 c 0
 1558 151 1662 62 2018 62 c 2
 4067 62 l 2
 4077 62 4084 55 4084 45 c 0
 4084 35 4077 28 4067 28 c 2
 2018 28 l 2
 1647 28 1529 127 1414 421 c 0
EndSplineSet
Fore
SplineSet
169 360 m 0
 169 438 181 514 206 598 c 0
 210 610 220 614 229 611 c 0
 237 608 244 599 240 588 c 0
 215 506 203 434 203 360 c 0
 203 103 456 32 788 32 c 0
 1073 32 1438 56 1438 309 c 0
 1438 495 1185 773 1021 939 c 0
 1018 942 1015 946 1015 951 c 0
 1015 958 1021 966 1028 968 c 2
 1761 1217 l 2
 1773 1221 1782 1214 1784 1205 c 0
 1786 1197 1782 1187 1771 1183 c 2
 1065 943 l 1
 1227 777 1472 503 1472 309 c 0
 1472 27 1095 -2 788 -2 c 0
 443 -2 169 78 169 360 c 0
1414 421 m 0
 1410 432 1416 441 1424 444 c 0
 1432 447 1441 444 1445 434 c 0
 1558 151 1662 62 2018 62 c 2
 2019 62 l 2
 2029 62 2036 55 2036 45 c 0
 2036 35 2029 28 2019 28 c 2
 2018 28 l 2
 1647 28 1529 127 1414 421 c 0
EndSplineSet
Layer: 2
SplineSet
1429 427 m 1
 1547 112 1687 45 2019 45 c 1025
EndSplineSet
Colour: ffff
EndChar

StartChar: uniE055
Encoding: 57429 57429 487
GlifName: uniE_055
Width: 560
Flags: HMW
LayerCount: 3
Fore
SplineSet
-17 45 m 0
 -17 55 -10 62 0 62 c 0
 226 62 334 127.08203125 334 339 c 0
 334 405 323 551 295 651 c 0
 292.442382812 660.135742188 298 670 307 673 c 0
 316 676 326.48828125 670.1484375 329 661 c 0
 357 559 370 411 370 339 c 0
 370 110.069335938 246.924151457 28 0 28 c 0
 -10 28 -17 35 -17 45 c 0
EndSplineSet
Layer: 2
SplineSet
312 656 m 1
 340 555 352 408 352 339 c 0
 352 118.65625 239.592331878 45 0 45 c 1032
EndSplineSet
Colour: ff00ff
EndChar

StartChar: uniE056
Encoding: 57430 57430 488
GlifName: uniE_056
Width: 811
Flags: HMW
LayerCount: 3
Back
SplineSet
-18 45 m 0
 -18 55 -10 62 0 62 c 0
 325 62 389.888671875 169.7421875 386.998046875 511.091796875 c 0
 386.913085938 521.141601562 395.627929688 529.409179688 405.58984375 528.538085938 c 0
 414.5546875 527.752929688 421.0703125 521.166992188 421.217773438 512.11328125 c 0
 426.712890625 173.344726562 472 62 810 62 c 2
 2859 62 l 2
 2869 62 2876 55 2876 45 c 0
 2876 35 2869 28 2859 28 c 2
 810 28 l 2
 549 28 438.887695312 95.0322265625 406.349609375 285.067382812 c 1
 366.078125 100.397460938 257 28 0 28 c 0
 -10 28 -18 35 -18 45 c 0
EndSplineSet
Fore
SplineSet
-18 45 m 0
 -18 55 -10 62 0 62 c 0
 325 62 389.888671875 169.7421875 386.998046875 511.091796875 c 0
 386.913085938 521.141601562 395.627929688 529.409179688 405.58984375 528.538085938 c 0
 414.5546875 527.752929688 421.0703125 521.166992188 421.217773438 512.11328125 c 0
 426.712890625 173.344726562 472 62 810 62 c 2
 811 62 l 2
 821 62 828 55 828 45 c 0
 828 35 821 28 811 28 c 2
 810 28 l 2
 549 28 437.887695312 95.0322265625 406.349609375 285.067382812 c 1
 365.078125 100.397460938 257 28 0 28 c 0
 -10 28 -18 35 -18 45 c 0
EndSplineSet
Layer: 2
SplineSet
0 45 m 0
 343 45 397.419921875 172.497070312 395 512 c 1
 400.495117188 173.232421875 461 45 811 45 c 1024
EndSplineSet
Colour: ffff
EndChar

StartChar: uniE057
Encoding: 57431 57431 489
GlifName: uniE_057
Width: 1390
Flags: HMW
LayerCount: 3
Back
SplineSet
162 -62 m 0
 162 85 204 254 267 425 c 0
 270 434 280 438 289 435 c 0
 298 432 303 422 300 413 c 0
 238 244 198 79 198 -62 c 0
 198 -314 323 -492 703 -492 c 0
 1022 -492 1184 -362 1184 -234 c 0
 1184 -119 1063 -7 773 28 c 0
 765 29 759 36 758 44 c 0
 757 54 765 62 775 62 c 2
 3438 62 l 2
 3448 62 3455 55 3455 45 c 0
 3455 35 3448 28 3438 28 c 2
 951 28 l 1
 1128 -25 1218 -122 1218 -234 c 0
 1218 -394 1026 -528 703 -528 c 0
 307 -528 162 -332 162 -62 c 0
EndSplineSet
Fore
SplineSet
162 -62 m 0
 162 85 204 254 267 425 c 0
 270 434 280 438 289 435 c 0
 298 432 303 422 300 413 c 0
 238 244 198 79 198 -62 c 0
 198 -314 323 -492 703 -492 c 0
 1022 -492 1184 -362 1184 -234 c 0
 1184 -119 1063 -7 773 28 c 0
 765 29 759 36 758 44 c 0
 757 54 765 62 775 62 c 2
 1390 62 l 2
 1400 62 1407 55 1407 45 c 0
 1407 35 1400 28 1390 28 c 2
 951 28 l 1
 1128 -25 1218 -122 1218 -234 c 0
 1218 -394 1026 -528 703 -528 c 0
 307 -528 162 -332 162 -62 c 0
EndSplineSet
Layer: 2
SplineSet
1390 45 m 1
 775 45 l 1
 1067 10 1201 -104 1201 -234 c 0
 1201 -378 1024 -510 703 -510 c 0
 315 -510 180 -323 180 -62 c 0
 180 82 221 249 283 419 c 1024
EndSplineSet
Colour: ffff
EndChar

StartChar: uniE05F
Encoding: 57439 57439 490
GlifName: uniE_05F_
Width: 574
Flags: HMW
LayerCount: 3
Back
SplineSet
216 398 m 0
 216 632 224 930 224 1179 c 0
 224 1189 231 1196 241 1196 c 0
 251 1196 258 1189 258 1179 c 0
 258 929 252 633 252 398 c 0
 252 141 298 62 573 62 c 2
 2622 62 l 2
 2632 62 2639 55 2639 45 c 0
 2639 35 2632 28 2622 28 c 2
 573 28 l 2
 287 28 216 123 216 398 c 0
EndSplineSet
Fore
SplineSet
216 398 m 0
 216 632 224 930 224 1179 c 0
 224 1189 231 1196 241 1196 c 0
 251 1196 258 1189 258 1179 c 0
 258 929 252 633 252 398 c 0
 252 141 298 62 573 62 c 2
 574 62 l 2
 584 62 591 55 591 45 c 0
 591 35 584 28 574 28 c 2
 573 28 l 2
 287 28 216 123 216 398 c 0
EndSplineSet
Layer: 2
SplineSet
241 1179 m 1
 241 900 234 585 234 398 c 0
 234 142 284 45 574 45 c 1025
EndSplineSet
Colour: ffff
EndChar

StartChar: uniE060
Encoding: 57440 57440 491
GlifName: uniE_060
Width: 1392
Flags: HMW
LayerCount: 3
Back
SplineSet
399 798 m 0
 536 798 930 593 1128 522 c 0
 1136 519 1139 513 1139 506 c 0
 1139 498 1134.99902344 490.010742188 1126 489 c 0
 571.92578125 426.784179688 177 190.876953125 177 -134 c 0
 177 -392 425 -530 713 -530 c 0
 848 -530 1015 -505 1132 -460 c 0
 1142 -455 1152 -461 1155 -470 c 0
 1159 -480 1153 -488 1144 -492 c 0
 1023 -539 852 -564 713 -564 c 0
 410 -564 143 -414 143 -134 c 0
 143 199 522.806640625 441.993164062 1061 510 c 1
 876 585 510 764 399 764 c 0
 308 764 264 664 225 554 c 0
 223 546 212 539 202 543 c 0
 195 546 186 556 191 566 c 0
 232 685 287 798 399 798 c 0
905 463 m 0
 905 473 912 480 922 480 c 0
 932 480 940 473 940 463 c 0
 940 201 1144 62 1391 62 c 2
 3440 62 l 2
 3450 62 3457 55 3457 45 c 0
 3457 35 3450 28 3440 28 c 2
 1391 28 l 2
 1130 28 905 181 905 463 c 0
EndSplineSet
Fore
SplineSet
399 798 m 0
 536 798 930 593 1128 522 c 0
 1136 519 1139 513 1139 506 c 0
 1139 498 1134.99902344 490.010742188 1126 489 c 0
 571.92578125 426.784179688 177 190.876953125 177 -134 c 0
 177 -392 425 -530 713 -530 c 0
 848 -530 1015 -505 1132 -460 c 0
 1142 -455 1152 -461 1155 -470 c 0
 1159 -480 1153 -488 1144 -492 c 0
 1023 -539 852 -564 713 -564 c 0
 410 -564 143 -414 143 -134 c 0
 143 199 522.806640625 441.993164062 1061 510 c 1
 876 585 510 764 399 764 c 0
 308 764 264 664 225 554 c 0
 223 546 212 539 202 543 c 0
 195 546 186 556 191 566 c 0
 232 685 287 798 399 798 c 0
905 463 m 0
 905 473 912 480 922 480 c 0
 932 480 940 473 940 463 c 0
 940 201 1144 62 1391 62 c 2
 1392 62 l 2
 1402 62 1409 55 1409 45 c 0
 1409 35 1402 28 1392 28 c 2
 1391 28 l 2
 1130 28 905 181 905 463 c 0
EndSplineSet
Layer: 2
SplineSet
1138 -476 m 0
 1019 -522 850 -547 713 -547 c 0
 375 -547 160 -374 160 -134 c 0
 160 201 533 425 1122 506 c 1
 902 584 525 781 399 781 c 0
 317 781 264 719 208 560 c 1024
1392 45 m 2
 1391 45 l 2
 1132.13702883 45 922 194.88671875 922 463 c 1024
EndSplineSet
Colour: ffff
EndChar

StartChar: uniE061
Encoding: 57441 57441 492
GlifName: uniE_061
Width: 1299
Flags: HMW
LayerCount: 3
Fore
SplineSet
367 740 m 0
 455 740 563 692 722 610 c 0
 820 559 940 505 1089 442 c 0
 1096 439 1099 432 1099 426 c 0
 1099 420 1096.23676895 414.684596439 1091 411 c 0
 730 157 387 28 0 28 c 0
 -10 28 -18 35 -18 45 c 0
 -18 55 -10 62 0 62 c 0
 367 62 697 181 1044 423 c 1
 909 481 799 530 706 578 c 0
 547 660 443 704 367 704 c 0
 291 704 225 633 147 468 c 0
 143 460 133 454 123 459 c 0
 115 463 110 473 115 482 c 0
 193 649 269 740 367 740 c 0
EndSplineSet
Layer: 2
SplineSet
131 475 m 0
 209 641 280 722 367 722 c 0
 449 722 555 676 714 594 c 0
 813 543 933 489 1082 426 c 1
 722 173 382 45 0 45 c 1024
EndSplineSet
Colour: ff00ff
EndChar

StartChar: uniE062
Encoding: 57442 57442 493
GlifName: uniE_062
Width: 1321
Flags: HMW
LayerCount: 3
Back
SplineSet
367 740 m 0
 455 740 563 692 722 610 c 0
 820 559 940 505 1089 442 c 0
 1096 439 1099 432 1099 426 c 0
 1099 420 1096.23632812 414.684570312 1091 411 c 0
 730 157 387 28 0 28 c 0
 -10 28 -18 35 -18 45 c 0
 -18 55 -10 62 0 62 c 0
 367 62 697 181 1044 423 c 1
 909 481 799 530 706 578 c 0
 547 660 443 704 367 704 c 0
 291 704 225 633 147 468 c 0
 143 460 133 454 123 459 c 0
 115 463 110 473 115 482 c 0
 193 649 269 740 367 740 c 0
936 337 m 0
 936 347 943 354 953 354 c 0
 963 354 970 347 970 337 c 0
 970 141 1096 62 1320 62 c 2
 3369 62 l 18
 3379 62 3386 55 3386 45 c 0
 3386 35 3379 28 3369 28 c 10
 1320 28 l 2
 1083 28 936 117 936 337 c 0
EndSplineSet
Fore
SplineSet
367 740 m 0
 455 740 563 692 722 610 c 0
 820 559 940 505 1089 442 c 0
 1096 439 1099 432 1099 426 c 0
 1099 420 1096.23632812 414.684570312 1091 411 c 0
 730 157 387 28 0 28 c 0
 -10 28 -18 35 -18 45 c 0
 -18 55 -10 62 0 62 c 0
 367 62 697 181 1044 423 c 1
 909 481 799 530 706 578 c 0
 547 660 443 704 367 704 c 0
 291 704 225 633 147 468 c 0
 143 460 133 454 123 459 c 0
 115 463 110 473 115 482 c 0
 193 649 269 740 367 740 c 0
936 337 m 0
 936 347 943 354 953 354 c 0
 963 354 970 347 970 337 c 0
 970 141 1096 62 1320 62 c 2
 1321 62 l 18
 1331 62 1338 55 1338 45 c 0
 1338 35 1331 28 1321 28 c 10
 1320 28 l 2
 1083 28 936 117 936 337 c 0
EndSplineSet
Layer: 2
SplineSet
131 475 m 0
 209 641 280 722 367 722 c 0
 449 722 555 676 714 594 c 0
 813 543 933 489 1082 426 c 1
 722 173 382 45 0 45 c 1024
953 337 m 1
 953 129 1090 45 1320 45 c 2
 1321 45 l 1025
EndSplineSet
Colour: ffff
EndChar

StartChar: uniE063
Encoding: 57443 57443 494
GlifName: uniE_063
Width: 1121
Flags: HMW
LayerCount: 3
Back
SplineSet
144 61 m 0
 147 70 157 74 166 71 c 0
 238 44 313 32 389 32 c 0
 591 32 750 107 750 297 c 0
 750 331 742 363 731 394 c 0
 728 403 732 413 741 416 c 0
 750 419 760 415 763 406 c 0
 776 371 786 335 786 297 c 0
 786 79 597 -2 389 -2 c 0
 309 -2 230 10 154 39 c 0
 145 42 141 52 144 61 c 0
569 773 m 0
 565 782 568 793 577 797 c 0
 586 801 597 798 601 789 c 0
 669 653 709 571 758 426 c 0
 823 240 894 62 1120 62 c 2
 3169 62 l 2
 3179 62 3186 55 3186 45 c 0
 3186 35 3179 28 3169 28 c 2
 1120 28 l 2
 868 28 789 230 724 414 c 0
 675 557 637 637 569 773 c 0
EndSplineSet
Fore
SplineSet
144 61 m 0
 147 70 157 74 166 71 c 0
 238 44 313 32 389 32 c 0
 591 32 750 107 750 297 c 0
 750 331 742 363 731 394 c 0
 728 403 732 413 741 416 c 0
 750 419 760 415 763 406 c 0
 776 371 786 335 786 297 c 0
 786 79 597 -2 389 -2 c 0
 309 -2 230 10 154 39 c 0
 145 42 141 52 144 61 c 0
569 773 m 0
 565 782 568 793 577 797 c 0
 586 801 597 798 601 789 c 0
 669 653 709 571 758 426 c 0
 823 240 894 63 1120 62 c 2
 1121 62 l 2
 1131 62 1138 55 1138 45 c 0
 1138 35 1131 28 1121 28 c 2
 1120 28 l 2
 868 29 789 230 724 414 c 0
 675 557 637 637 569 773 c 0
EndSplineSet
Layer: 2
SplineSet
750 400 m 0
 762 367 768 333 768 297 c 0
 768 93 594 15 389 15 c 0
 311 15 234 27 160 55 c 1024
1120 45 m 0
 880 45 806 235 741 420 c 0
 692 564 653 645 585 781 c 1024
EndSplineSet
Colour: ffff
EndChar

StartChar: uniE064
Encoding: 57444 57444 495
GlifName: uniE_064
Width: 947
Flags: HMW
LayerCount: 3
Back
SplineSet
536 500 m 0
 547 504 557 497 559 488 c 0
 591 365 608 249 608 140 c 0
 608 -192 438 -414 166 -505 c 0
 156 -508 147 -502 144 -494 c 0
 140 -484 146 -474 154 -471 c 0
 413 -384 574 -180 574 140 c 0
 574 245 557 359 525 480 c 0
 522 490 528 497 536 500 c 0
525 480 m 0
 523 489 529 499 538 501 c 0
 547 503 557 497 559 488 c 0
 620 231 661 62 946 62 c 2
 2995 62 l 2
 3005 62 3012 55 3012 45 c 0
 3012 35 3005 28 2995 28 c 2
 946 28 l 2
 633 28 588 215 525 480 c 0
EndSplineSet
Fore
SplineSet
536 500 m 0
 547 504 557 497 559 488 c 0
 591 365 608 249 608 140 c 0
 608 -192 438 -414 166 -505 c 0
 156 -508 147 -502 144 -494 c 0
 140 -484 146 -474 154 -471 c 0
 413 -384 574 -180 574 140 c 0
 574 245 557 359 525 480 c 0
 522 490 528 497 536 500 c 0
525 480 m 0
 523 489 529 499 538 501 c 0
 547 503 557 497 559 488 c 0
 620 231 661 62 946 62 c 2
 947 62 l 2
 957 62 964 55 964 45 c 0
 964 35 957 28 947 28 c 2
 946 28 l 2
 633 28 588 215 525 480 c 0
EndSplineSet
Layer: 2
SplineSet
542 484 m 17
 574 362 591 247 591 140 c 0
 591 -160 457 -388 160 -488 c 1024
947 45 m 16
 818 45 738 76 682 134 c 0
 610 209 579 329 542 484 c 1025
EndSplineSet
Colour: ffff
EndChar

StartChar: uniE065
Encoding: 57445 57445 496
GlifName: uniE_065
Width: 2430
Flags: HMW
LayerCount: 3
Back
SplineSet
162 -58 m 0
 162 77 202 227 260 366 c 0
 264 375 274 379 283 375 c 0
 292 371 296 361 292 352 c 0
 236 215 198 71 198 -58 c 0
 198 -280 337 -456 664 -456 c 0
 978 -456 1122 -270 1122 -23 c 0
 1122 100 1093 239 1042 376 c 0
 1039 385 1043 395 1052 398 c 0
 1061 401 1071 397 1074 388 c 0
 1126 247 1158 106 1158 -23 c 0
 1158 -286 996 -490 664 -490 c 0
 321 -490 162 -300 162 -58 c 0
1042 376 m 0
 1039 385 1043 395 1052 398 c 0
 1061 401 1071 397 1074 388 c 0
 1164 149 1247 38 1382 38 c 0
 1518 38 1600 106 1635 412 c 0
 1636 421 1645 428 1654 427 c 0
 1663 426 1670 417 1669 408 c 0
 1634 98 1542 2 1382 2 c 0
 1223 2 1132 135 1042 376 c 0
1622 255 m 0
 1622 310 1627 354 1635 412 c 0
 1636 421 1645 428 1654 427 c 0
 1663 426 1670 417 1669 408 c 0
 1661 350 1658 308 1658 255 c 0
 1658 95 1768 34 1886 34 c 0
 2033 34 2113 152 2113 309 c 0
 2113 374 2106 443 2093 510 c 0
 2091 519 2098 528 2107 530 c 0
 2116 532 2125 525 2127 516 c 0
 2140 447 2149 376 2149 309 c 0
 2149 147 2063 -2 1886 -2 c 0
 1746 -2 1622 81 1622 255 c 0
2093 510 m 0
 2091 519 2098 528 2107 530 c 0
 2116 532 2125 525 2127 516 c 0
 2179 209 2211 62 2429 62 c 2
 4478 62 l 2
 4488 62 4495 55 4495 45 c 0
 4495 35 4488 28 4478 28 c 2
 2429 28 l 2
 2183 28 2145 207 2093 510 c 0
EndSplineSet
Fore
SplineSet
162 -58 m 0
 162 77 202 227 260 366 c 0
 264 375 274 379 283 375 c 0
 292 371 296 361 292 352 c 0
 236 215 198 71 198 -58 c 0
 198 -280 337 -456 664 -456 c 0
 978 -456 1122 -270 1122 -23 c 0
 1122 100 1093 239 1042 376 c 0
 1039 385 1043 395 1052 398 c 0
 1061 401 1071 397 1074 388 c 0
 1126 247 1158 106 1158 -23 c 0
 1158 -286 996 -490 664 -490 c 0
 321 -490 162 -300 162 -58 c 0
1042 376 m 0
 1039 385 1043 395 1052 398 c 0
 1061 401 1071 397 1074 388 c 0
 1164 149 1247 38 1382 38 c 0
 1518 38 1600 106 1635 412 c 0
 1636 421 1645 428 1654 427 c 0
 1663 426 1670 417 1669 408 c 0
 1634 98 1542 2 1382 2 c 0
 1223 2 1132 135 1042 376 c 0
1622 255 m 0
 1622 310 1627 354 1635 412 c 0
 1636 421 1645 428 1654 427 c 0
 1663 426 1670 417 1669 408 c 0
 1661 350 1658 308 1658 255 c 0
 1658 95 1768 34 1886 34 c 0
 2033 34 2113 152 2113 309 c 0
 2113 374 2106 443 2093 510 c 0
 2091 519 2098 528 2107 530 c 0
 2116 532 2125 525 2127 516 c 0
 2140 447 2149 376 2149 309 c 0
 2149 147 2063 -2 1886 -2 c 0
 1746 -2 1622 81 1622 255 c 0
2093 510 m 0
 2091 519 2098 528 2107 530 c 0
 2116 532 2125 525 2127 516 c 0
 2179 209 2211 62 2429 62 c 2
 2430 62 l 2
 2440 62 2447 55 2447 45 c 0
 2447 35 2440 28 2430 28 c 2
 2429 28 l 2
 2183 28 2145 207 2093 510 c 0
EndSplineSet
Layer: 2
SplineSet
276 359 m 17
 219 221 180 74 180 -58 c 0
 180 -290 329 -473 664 -473 c 0
 987 -473 1140 -278 1140 -23 c 0
 1140 103 1110 243 1058 382 c 1025
1058 382 m 1
 1148 142 1235 20 1382 20 c 0
 1530 20 1617 102 1652 410 c 1025
1652 410 m 1
 1644 352 1640 309 1640 255 c 0
 1640 87.958984375 1757 16 1876 16 c 0
 2058 16 2131 149.334960938 2131 309 c 0
 2131 375 2123 445 2110 513 c 1025
2110 513 m 1
 2162 208 2197 45 2430 45 c 1025
EndSplineSet
Colour: ffff
EndChar

StartChar: uniE066
Encoding: 57446 57446 497
GlifName: uniE_066
Width: 1652
Flags: HMW
LayerCount: 3
Fore
SplineSet
-17 45 m 0
 -17 55 -10 62 -0 62 c 0
 230 62 352 241 371 466 c 0
 372 478 381 483 389 482 c 0
 397 481 405 475 405 464 c 0
 385 223 249 28 -0 28 c 0
 -10 28 -17 35 -17 45 c 0
357 297 m 0
 357 357 360 392 371 468 c 0
 372 478 381 483 389 482 c 0
 397 481 405 474 405 462 c 0
 394 386 391 355 391 297 c 0
 391 153 471 42 611 42 c 0
 801 42 890 238 910 450 c 0
 911 461 920 466 929 465 c 0
 937 464 945 458 944 446 c 0
 922 219 833 8 611 8 c 0
 451 8 357 136 357 297 c 0
902 347 m 0
 902 379 905 413 910 450 c 0
 911 461 920 466 929 465 c 0
 938 464 946 457 944 446 c 0
 939 411 936 377 936 347 c 0
 936 166 1029 44 1191 44 c 0
 1369 44 1431 156 1431 339 c 0
 1431 396 1423 462 1405 535 c 0
 1402 546 1408 553 1416 555 c 0
 1425 558 1436 555 1439 543 c 0
 1457 468 1465 400 1465 339 c 0
 1465 140 1388 10 1191 10 c 0
 1002 10 902 150 902 347 c 0
EndSplineSet
Layer: 2
SplineSet
388 465 m 0
 366 206 216 45 0 45 c 1024
927 448 m 0
 901 179 781 25 611 25 c 0
 470 25 374 135 374 297 c 0
 374 356 377 389 388 465 c 1024
1422 539 m 0
 1440 465 1448 398 1448 339 c 0
 1448 140 1371 27 1191 27 c 0
 1031 27 919 137 919 347 c 0
 919 378 922 412 927 448 c 1024
EndSplineSet
Colour: ff00ff
EndChar

StartChar: uniE067
Encoding: 57447 57447 498
GlifName: uniE_067
Width: 1817
Flags: HMW
LayerCount: 3
Back
SplineSet
-17 45 m 0
 -17 55 -10 62 -0 62 c 0
 230 62 352 241 371 466 c 0
 372 478 381 483 389 482 c 0
 397 481 405 475 405 464 c 0
 385 223 249 28 -0 28 c 0
 -10 28 -17 35 -17 45 c 0
357 297 m 0
 357 357 360 392 371 468 c 0
 372 478 381 483 389 482 c 0
 397 481 405 474 405 462 c 0
 394 386 391 355 391 297 c 0
 391 153 471 42 611 42 c 0
 801 42 890 238 910 450 c 0
 911 461 920 466 929 465 c 0
 937 464 945 458 944 446 c 0
 922 219 833 8 611 8 c 0
 451 8 357 136 357 297 c 0
902 347 m 0
 902 379 905 413 910 450 c 0
 911 461 920 466 929 465 c 0
 938 464 946 457 944 446 c 0
 939 411 936 377 936 347 c 0
 936 166 1029 44 1191 44 c 0
 1369 44 1431 156 1431 339 c 0
 1431 396 1423 462 1405 535 c 0
 1402 546 1408 553 1416 555 c 0
 1425 558 1436 555 1439 543 c 0
 1457 468 1465 400 1465 339 c 0
 1465 140 1388 10 1191 10 c 0
 1002 10 902 150 902 347 c 0
1405 535 m 0
 1403 546 1408 553 1416 555 c 0
 1425 558 1436 554 1439 543 c 0
 1493 299 1603 62 1816 62 c 2
 3865 62 l 2
 3875 62 3882 55 3882 45 c 0
 3882 35 3875 28 3865 28 c 2
 1816 28 l 2
 1582 28 1461 280 1405 535 c 0
EndSplineSet
Fore
SplineSet
-17 45 m 0
 -17 55 -10 62 -0 62 c 0
 230 62 352 241 371 466 c 0
 372 478 381 483 389 482 c 0
 397 481 405 475 405 464 c 0
 385 223 249 28 -0 28 c 0
 -10 28 -17 35 -17 45 c 0
357 297 m 0
 357 357 360 392 371 468 c 0
 372 478 381 483 389 482 c 0
 397 481 405 474 405 462 c 0
 394 386 391 355 391 297 c 0
 391 153 471 42 611 42 c 0
 801 42 890 238 910 450 c 0
 911 461 920 466 929 465 c 0
 937 464 945 458 944 446 c 0
 922 219 833 8 611 8 c 0
 451 8 357 136 357 297 c 0
902 347 m 0
 902 379 905 413 910 450 c 0
 911 461 920 466 929 465 c 0
 938 464 946 457 944 446 c 0
 939 411 936 377 936 347 c 0
 936 166 1029 44 1191 44 c 0
 1369 44 1431 156 1431 339 c 0
 1431 396 1423 462 1405 535 c 0
 1402 546 1408 553 1416 555 c 0
 1425 558 1436 555 1439 543 c 0
 1457 468 1465 400 1465 339 c 0
 1465 140 1388 10 1191 10 c 0
 1002 10 902 150 902 347 c 0
1405 535 m 0
 1403 546 1408 553 1416 555 c 0
 1425 558 1436 554 1439 543 c 0
 1493 299 1603 62 1816 62 c 2
 1817 62 l 2
 1827 62 1834 55 1834 45 c 0
 1834 35 1827 28 1817 28 c 2
 1816 28 l 2
 1582 28 1461 280 1405 535 c 0
EndSplineSet
Layer: 2
SplineSet
388 465 m 0
 366 206 216 45 0 45 c 1024
927 448 m 0
 901 179 781 25 611 25 c 0
 470 25 374 135 374 297 c 0
 374 356 377 389 388 465 c 1024
1422 539 m 1
 1440 465 1448 398 1448 339 c 0
 1448 140 1371 27 1191 27 c 0
 1031 27 919 137 919 347 c 0
 919 378 922 412 927 448 c 1024
1817 45 m 1
 1628 45 1494 214 1422 539 c 1025
EndSplineSet
Colour: ffff
EndChar

StartChar: uniE068
Encoding: 57448 57448 499
GlifName: uniE_068
Width: 2452
Flags: HMW
LayerCount: 3
Back
SplineSet
172 -51 m 0
 172 65 206 211 262 347 c 0
 266 357 277 359 285 356 c 0
 293 353 299 344 294 333 c 0
 239 201 208 59 208 -51 c 0
 208 -316 388 -456 663 -456 c 0
 953 -456 1132 -302 1132 -19 c 0
 1132 94 1118 244 1049 382 c 0
 1044 392 1049 400 1057 404 c 0
 1065 408 1077 406 1081 395 c 0
 1136 247 1168 100 1168 -19 c 0
 1168 -318 971 -490 663 -490 c 0
 370 -490 172 -333 172 -51 c 0
1049 382 m 0
 1044 393 1049 401 1057 404 c 0
 1065 407 1077 406 1081 395 c 0
 1179 158 1333 32 1635 32 c 0
 1956 32 2158 169 2158 363 c 0
 2158 507 2051 592 1901 592 c 0
 1706 592 1531 448 1374 143 c 0
 1369 133 1358 131 1350 135 c 0
 1342 139 1337 148 1342 159 c 0
 1501 468 1686 628 1901 628 c 0
 2070 628 2192 525 2192 363 c 0
 2192 139 1962 -2 1635 -2 c 0
 1310 -2 1159 141 1049 382 c 0
2116 201 m 0
 2111 209 2115 220 2123 225 c 0
 2131 230 2142 226 2147 218 c 0
 2205 111 2272 62 2451 62 c 2
 4500 62 l 2
 4510 62 4517 55 4517 45 c 0
 4517 35 4510 28 4500 28 c 2
 2451 28 l 2
 2262 28 2179 84 2116 201 c 0
EndSplineSet
Fore
SplineSet
172 -51 m 0
 172 65 206 211 262 347 c 0
 266 357 277 359 285 356 c 0
 293 353 299 344 294 333 c 0
 239 201 208 59 208 -51 c 0
 208 -316 388 -456 663 -456 c 0
 953 -456 1132 -302 1132 -19 c 0
 1132 94 1118 244 1049 382 c 0
 1044 392 1049 400 1057 404 c 0
 1065 408 1077 406 1081 395 c 0
 1136 247 1168 100 1168 -19 c 0
 1168 -318 971 -490 663 -490 c 0
 370 -490 172 -333 172 -51 c 0
1049 382 m 0
 1044 393 1049 401 1057 404 c 0
 1065 407 1077 406 1081 395 c 0
 1179 158 1333 32 1635 32 c 0
 1956 32 2158 169 2158 363 c 0
 2158 507 2051 592 1901 592 c 0
 1706 592 1531 448 1374 143 c 0
 1369 133 1358 131 1350 135 c 0
 1342 139 1337 148 1342 159 c 0
 1501 468 1686 628 1901 628 c 0
 2070 628 2192 525 2192 363 c 0
 2192 139 1962 -2 1635 -2 c 0
 1310 -2 1159 141 1049 382 c 0
2116 201 m 0
 2111 209 2115 220 2123 225 c 0
 2131 230 2142 226 2147 218 c 0
 2205 111 2272 62 2451 62 c 2
 2452 62 l 2
 2462 62 2469 55 2469 45 c 0
 2469 35 2462 28 2452 28 c 2
 2451 28 l 2
 2262 28 2179 84 2116 201 c 0
EndSplineSet
Layer: 2
SplineSet
2452 45 m 25
 2451 45 l 2
 2268.77274288 45 2193 95 2132 210 c 1024
1065 388 m 1
 1119.91788932 241.219459462 1150 97.1737055682 1150 -19.0166015625 c 0
 1150 -304.144490964 968.845004544 -473 662.9296875 -473 c 0
 367.061784467 -473 190 -315.054605699 190 -51.0888671875 c 0
 190 61.8901075608 222.435903638 206.050839127 278 340 c 1033
1358 151 m 17
 1515.74518798 458.020835658 1695.46736601 610 1900.69433594 610 c 0
 2065.76562392 610 2175 511.676107128 2175 363.090820312 c 0
 2175 154.21650571 1959.13950391 15 1635.13867188 15 c 0
 1344.4848415 15 1173.48867905 126.870272511 1065 388 c 1025
EndSplineSet
Colour: ffff
EndChar

StartChar: uniE069
Encoding: 57449 57449 500
GlifName: uniE_069
Width: 1694
Flags: HMW
LayerCount: 3
Fore
SplineSet
-17 45 m 0
 -17 55 -10 62 -0 62 c 0
 251 62 393 219 401 475 c 0
 401.343582276 485.994632837 410 491 419 491 c 0
 427 490 435.404154078 485.034810322 435 473 c 0
 426 205 270 28 -0 28 c 0
 -10 28 -17 35 -17 45 c 0
401 472 m 0
 400 483 406 489 414 491 c 0
 423 493 433 488 435 476 c 0
 471 181 653 52 976 52 c 0
 1216 52 1459 136 1459 376 c 0
 1459 515 1335 607 1199 607 c 0
 901 607 691 231 574 -57 c 0
 569 -67 558 -70 550 -66 c 0
 543 -63 538 -54 542 -43 c 0
 662 254 882 641 1199 641 c 0
 1354 641 1493 535 1493 376 c 0
 1493 114 1230 18 976 18 c 0
 639 18 440 159 401 472 c 0
EndSplineSet
Layer: 2
SplineSet
418 474 m 1
 409 214 262 45 0 45 c 1025
558 -50 m 1
 722 354 945 624 1199 624 c 0
 1347 624 1476 523 1476 376 c 0
 1476 139 1239 35 976 35 c 0
 650 35 456 166 418 474 c 1025
EndSplineSet
Colour: ff00ff
EndChar

StartChar: uniE06A
Encoding: 57450 57450 501
GlifName: uniE_06A_
Width: 1791
Flags: HMW
LayerCount: 3
Back
SplineSet
-17 45 m 0
 -17 55 -10 62 -0 62 c 0
 251 62 393 219 401 475 c 0
 401.343582276 485.994632837 410 491 419 491 c 0
 427 490 435.404154078 485.034810322 435 473 c 0
 426 205 270 28 -0 28 c 0
 -10 28 -17 35 -17 45 c 0
401 472 m 0
 400 483 406 489 414 491 c 0
 423 493 433 488 435 476 c 0
 471 181 653 52 976 52 c 0
 1216 52 1459 136 1459 376 c 0
 1459 515 1335 607 1199 607 c 0
 901 607 691 231 574 -57 c 0
 569 -67 558 -70 550 -66 c 0
 543 -63 538 -54 542 -43 c 0
 662 254 882 641 1199 641 c 0
 1354 641 1493 535 1493 376 c 0
 1493 114 1230 18 976 18 c 0
 639 18 440 159 401 472 c 0
1440 251 m 0
 1437 260 1441 270 1450 273 c 0
 1459 276 1469 272 1472 263 c 0
 1523 126 1591 62 1790 62 c 2
 3839 62 l 2
 3849 62 3856 55 3856 45 c 0
 3856 35 3849 28 3839 28 c 2
 1790 28 l 2
 1581 28 1495 102 1440 251 c 0
EndSplineSet
Fore
SplineSet
-17 45 m 0
 -17 55 -10 62 -0 62 c 0
 251 62 393 219 401 475 c 0
 401.343582276 485.994632837 410 491 419 491 c 0
 427 490 435.404154078 485.034810322 435 473 c 0
 426 205 270 28 -0 28 c 0
 -10 28 -17 35 -17 45 c 0
401 472 m 0
 400 483 406 489 414 491 c 0
 423 493 433 488 435 476 c 0
 471 181 653 52 976 52 c 0
 1216 52 1459 136 1459 376 c 0
 1459 515 1335 607 1199 607 c 0
 901 607 691 231 574 -57 c 0
 569 -67 558 -70 550 -66 c 0
 543 -63 538 -54 542 -43 c 0
 662 254 882 641 1199 641 c 0
 1354 641 1493 535 1493 376 c 0
 1493 114 1230 18 976 18 c 0
 639 18 440 159 401 472 c 0
1440 251 m 0
 1437 260 1441 270 1450 273 c 0
 1459 276 1469 272 1472 263 c 0
 1523 126 1591 62 1790 62 c 2
 1791 62 l 2
 1801 62 1808 55 1808 45 c 0
 1808 35 1801 28 1791 28 c 2
 1790 28 l 2
 1581 28 1495 102 1440 251 c 0
EndSplineSet
Layer: 2
SplineSet
1791 45 m 25
 1790 45 l 2
 1607.77246094 45 1515 91 1456 258 c 1024
418 474 m 1
 409.28125 214.299804688 262 45 0 45 c 1025
558 -50 m 1
 722 354 945 624 1199 624 c 0
 1347 624 1476 523 1476 376 c 0
 1476 139 1239 35 976 35 c 0
 650 35 456 166 418 474 c 1025
EndSplineSet
Colour: ffff
EndChar

StartChar: uniE06B
Encoding: 57451 57451 502
GlifName: uniE_06B_
Width: 1619
Flags: HMW
LayerCount: 3
Back
SplineSet
143 48 m 0
 144 56 151 64 162 62 c 0
 306 42 445 32 570 32 c 0
 956 32 1272 123 1272 376 c 0
 1272 514 1169 601 1030 601 c 0
 751 601 544 276 439 16 c 0
 435 6 425 4 417 7 c 0
 409 10 402 18 407 30 c 0
 517 303 731 635 1030 635 c 0
 1188 635 1306 535 1306 376 c 0
 1306 93 968 -2 570 -2 c 0
 443 -2 304 8 158 28 c 0
 146 30 142 39 143 48 c 0
516 1216 m 0
 514 1227 522 1234 530 1235 c 0
 538 1236 548 1231 550 1220 c 0
 576 1042 586 799 586 593 c 0
 586 469 582 360 572 286 c 0
 571 276 562 271 554 271 c 0
 545 272 536 278 538 290 c 0
 548 360 552 469 552 593 c 0
 552 797 541 1040 516 1216 c 0
1254 259 m 0
 1250 268 1254 278 1263 282 c 0
 1272 286 1282 282 1286 273 c 0
 1348 128 1459 62 1618 62 c 2
 3667 62 l 2
 3677 62 3684 55 3684 45 c 0
 3684 35 3677 28 3667 28 c 2
 1618 28 l 2
 1449 28 1322 98 1254 259 c 0
EndSplineSet
Fore
SplineSet
143 48 m 0
 144 56 151 64 162 62 c 0
 306 42 445 32 570 32 c 0
 956 32 1272 123 1272 376 c 0
 1272 514 1169 601 1030 601 c 0
 751 601 544 276 439 16 c 0
 435 6 425 4 417 7 c 0
 409 10 402 18 407 30 c 0
 517 303 731 635 1030 635 c 0
 1188 635 1306 535 1306 376 c 0
 1306 93 968 -2 570 -2 c 0
 443 -2 304 8 158 28 c 0
 146 30 142 39 143 48 c 0
516 1216 m 0
 514 1227 522 1234 530 1235 c 0
 538 1236 548 1231 550 1220 c 0
 576 1042 586 799 586 593 c 0
 586 469 582 360 572 286 c 0
 571 276 562 271 554 271 c 0
 545 272 536 278 538 290 c 0
 548 360 552 469 552 593 c 0
 552 797 541 1040 516 1216 c 0
1254 259 m 0
 1250 268 1254 278 1263 282 c 0
 1272 286 1282 282 1286 273 c 0
 1348 128 1459 62 1618 62 c 2
 1619 62 l 2
 1629 62 1636 55 1636 45 c 0
 1636 35 1629 28 1619 28 c 2
 1618 28 l 2
 1449 28 1322 98 1254 259 c 0
EndSplineSet
Layer: 2
SplineSet
1619 45 m 25
 1618 45 l 2
 1440 45 1334 119 1269 267 c 1024
160 45 m 0
 305 25 444 15 570 15 c 0
 1056 15 1289 147 1289 376 c 0
 1289 521 1183 618 1030 618 c 0
 798 618 572 394 423 23 c 1025
533 1218 m 17
 557 1041 569 798 569 593 c 0
 569 469 565 360 555 288 c 1033
EndSplineSet
Colour: ffff
EndChar

StartChar: uniE06C
Encoding: 57452 57452 503
GlifName: uniE_06C_
Width: 1178
Flags: HMW
LayerCount: 3
Fore
SplineSet
-17 45 m 0
 -17 55 -10 62 -0 62 c 2
 270 62 l 2
 593 62 972 86 972 376 c 0
 972 515 870 601 730 601 c 0
 440 601 249 288 149 39 c 0
 145 29 133 27 125 31 c 0
 118 34 113 43 117 53 c 0
 221 313 421 635 730 635 c 0
 888 635 1006 534 1006 376 c 0
 1006 60 615 28 270 28 c 2
 -0 28 l 2
 -10 28 -17 35 -17 45 c 0
216 1216 m 0
 214 1227 222 1234 230 1235 c 0
 239 1236 249 1231 250 1220 c 0
 274 1042 286 799 286 593 c 0
 286 469 282 363 272 289 c 0
 270 278 262 273 253 274 c 0
 244 275 236 281 238 293 c 0
 248 363 252 469 252 593 c 0
 252 797 240 1040 216 1216 c 0
EndSplineSet
Layer: 2
SplineSet
133 46 m 1
 272.6953125 393.825195312 484 618 730 618 c 0
 883 618 989 521 989 376 c 0
 989 147 782 45 270 45 c 0
 144 45 56 45 -0 45 c 1033
233 1218 m 17
 257 1041 269 798 269 593 c 0
 269 469 265 364 255 292 c 1033
EndSplineSet
Colour: ff00ff
EndChar

StartChar: uniE06D
Encoding: 57453 57453 504
GlifName: uniE_06D_
Width: 1269
Flags: HMW
LayerCount: 3
Back
SplineSet
-17 45 m 0
 -17 55 -10 62 0 62 c 2
 270 62 l 2
 593 62 972 86 972 376 c 0
 972 515 870 601 730 601 c 0
 440 601 249 288 149 39 c 0
 145 29 133 27 125 31 c 0
 118 34 113 43 117 53 c 0
 221 313 421 635 730 635 c 0
 888 635 1006 534 1006 376 c 0
 1006 60 615 28 270 28 c 2
 0 28 l 2
 -10 28 -17 35 -17 45 c 0
216 1216 m 0
 214 1227 222 1234 230 1235 c 0
 239 1236 249 1231 250 1220 c 0
 274 1042 286 799 286 593 c 0
 286 469 282 363 272 289 c 0
 270 278 262 273 253 274 c 0
 244 275 236 281 238 293 c 0
 248 363 252 469 252 593 c 0
 252 797 240 1040 216 1216 c 0
926 204 m 0
 922 213 926 223 935 227 c 0
 944 231 954 227 958 218 c 0
 1012 104 1121 62 1268 62 c 2
 3317 62 l 2
 3327 62 3334 55 3334 45 c 0
 3334 35 3327 28 3317 28 c 2
 1268 28 l 2
 1115 28 986 76 926 204 c 0
EndSplineSet
Fore
SplineSet
-17 45 m 0
 -17 55 -10 62 0 62 c 2
 270 62 l 2
 593 62 972 86 972 376 c 0
 972 515 870 601 730 601 c 0
 440 601 249 288 149 39 c 0
 145 29 133 27 125 31 c 0
 118 34 113 43 117 53 c 0
 221 313 421 635 730 635 c 0
 888 635 1006 534 1006 376 c 0
 1006 60 615 28 270 28 c 2
 0 28 l 2
 -10 28 -17 35 -17 45 c 0
216 1216 m 0
 214 1227 222 1234 230 1235 c 0
 239 1236 249 1231 250 1220 c 0
 274 1042 286 799 286 593 c 0
 286 469 282 363 272 289 c 0
 270 278 262 273 253 274 c 0
 244 275 236 281 238 293 c 0
 248 363 252 469 252 593 c 0
 252 797 240 1040 216 1216 c 0
926 204 m 0
 922 213 926 223 935 227 c 0
 944 231 954 227 958 218 c 0
 1012 104 1121 62 1268 62 c 2
 1269 62 l 2
 1279 62 1286 55 1286 45 c 0
 1286 35 1279 28 1269 28 c 2
 1268 28 l 2
 1115 28 986 76 926 204 c 0
EndSplineSet
Layer: 2
SplineSet
133 46 m 1
 272.6953125 393.825195312 484 618 730 618 c 0
 883 618 989 521 989 376 c 0
 989 147 782 45 270 45 c 0
 144 45 56 45 -0 45 c 1033
233 1218 m 17
 257 1041 269 798 269 593 c 0
 269 469 265 364 255 292 c 1033
1269 45 m 25
 1268 45 l 2
 1090 45 994 104 941 212 c 1024
EndSplineSet
Colour: ffff
EndChar

StartChar: uniE06E
Encoding: 57454 57454 505
GlifName: uniE_06E_
Width: 1132
Flags: HMW
LayerCount: 3
Back
SplineSet
168 -285 m 0
 168 -105 295 51 578 237 c 0
 794 379 874 476 874 570 c 0
 874 679 767 758 586 758 c 0
 444 758 305 709 201 621 c 0
 192 612 182 616 176 623 c 0
 171 630 170 640 179 647 c 0
 289 741 436 794 586 794 c 0
 773 794 908 709 908 570 c 0
 908 454 814 349 598 207 c 0
 317 21 202 -125 202 -285 c 0
 202 -512 435 -628 703 -628 c 0
 775 -628 853 -621 932 -606 c 0
 943 -604 951 -612 952 -620 c 0
 953 -629 949 -638 938 -640 c 0
 857 -655 777 -662 703 -662 c 0
 415 -662 168 -534 168 -285 c 0
177 622 m 0
 169 630 172 640 179 646 c 0
 186 652 196 654 203 646 c 0
 600 225 751 62 1131 62 c 2
 3180 62 l 2
 3190 62 3197 55 3197 45 c 0
 3197 35 3190 28 3180 28 c 2
 1131 28 l 2
 736 28 577 198 177 622 c 0
EndSplineSet
Fore
SplineSet
168 -285 m 0
 168 -105 295 51 578 237 c 0
 794 379 874 476 874 570 c 0
 874 679 767 758 586 758 c 0
 444 758 305 709 201 621 c 0
 192 612 182 616 176 623 c 0
 171 630 170 640 179 647 c 0
 289 741 436 794 586 794 c 0
 773 794 908 709 908 570 c 0
 908 454 814 349 598 207 c 0
 317 21 202 -125 202 -285 c 0
 202 -512 435 -628 703 -628 c 0
 775 -628 853 -621 932 -606 c 0
 943 -604 951 -612 952 -620 c 0
 953 -629 949 -638 938 -640 c 0
 857 -655 777 -662 703 -662 c 0
 415 -662 168 -534 168 -285 c 0
177 622 m 0
 169 630 172 640 179 646 c 0
 186 652 196 654 203 646 c 0
 600 225 751 62 1131 62 c 2
 1132 62 l 2
 1142 62 1149 55 1149 45 c 0
 1149 35 1142 28 1132 28 c 2
 1131 28 l 2
 736 28 577 198 177 622 c 0
EndSplineSet
Layer: 2
SplineSet
190 634 m 0
 297 725 440 776 586 776 c 0
 770 776 891 694 891 570 c 0
 891 465 804 364 588 222 c 0
 306 36 185 -115 185 -285 c 0
 185 -504 388 -645 703 -645 c 0
 776 -645 855 -638 935 -623 c 1024
1132 45 m 0
 797 45 634 147 190 634 c 1024
EndSplineSet
Colour: ffff
EndChar

StartChar: uniE06F
Encoding: 57455 57455 506
GlifName: uniE_06F_
Width: 1023
Flags: HMW
LayerCount: 3
Fore
SplineSet
-18 45 m 0
 -18 55 -10 62 -0 62 c 0
 197 62 331 80 530 132 c 0
 647 163 731 179 829 190 c 0
 841 191 847 183 848 174 c 0
 849 166 844 157 833 156 c 0
 737 145 655 129 538 98 c 0
 337 46 199 28 -0 28 c 0
 -10 28 -18 35 -18 45 c 0
168 437 m 0
 168 643 332 818 530 818 c 0
 606 818 682 796 738 758 c 0
 747 752 747 741 742 734 c 0
 737 727 727 724 718 730 c 0
 668 764 600 784 530 784 c 0
 354 784 202 625 202 437 c 0
 202 283 332 166 510 166 c 0
 603 166 702 174 829 190 c 0
 839 191 847 182 848 174 c 0
 849 166 845 157 833 156 c 0
 683 138 605 132 510 132 c 0
 316 132 168 261 168 437 c 0
EndSplineSet
Layer: 2
SplineSet
831 188 m 0
 735.328125 168.587890625 651 146 534 115 c 0
 334 63 198 45 0 45 c 1024
728 744 m 0
 675 780 603 801 530 801 c 0
 343 801 185 634 185 437 c 0
 185 272 324 149 510 149 c 0
 604 149 683.139648438 156.995117188 831 188 c 1024
EndSplineSet
Colour: ff00ff
EndChar

StartChar: uniE070
Encoding: 57456 57456 507
GlifName: uniE_070
Width: 1094
Flags: HMW
LayerCount: 3
Back
SplineSet
-18 45 m 0
 -18 55 -10 62 -0 62 c 0
 305 62 878 239 878 494 c 0
 878 617 764 704 575 704 c 0
 439 704 285 646 190 551 c 0
 182 543 171 545 165 552 c 0
 160 559 158 569 166 577 c 0
 271 676 429 740 575 740 c 0
 772 740 914 645 914 494 c 0
 914 213 325 28 -0 28 c 0
 -10 28 -18 35 -18 45 c 0
165 552 m 0
 157 560 160 571 166 577 c 0
 173 583 183 584 191 576 c 0
 486 263 703 62 1093 62 c 2
 3142 62 l 2
 3152 62 3159 55 3159 45 c 0
 3159 35 3152 28 3142 28 c 2
 1093 28 l 2
 690 28 472 245 165 552 c 0
EndSplineSet
Fore
SplineSet
-18 45 m 0
 -18 55 -10 62 -0 62 c 0
 305 62 878 239 878 494 c 0
 878 617 764 704 575 704 c 0
 439 704 285 646 190 551 c 0
 182 543 171 545 165 552 c 0
 160 559 158 569 166 577 c 0
 271 676 429 740 575 740 c 0
 772 740 914 645 914 494 c 0
 914 213 325 28 -0 28 c 0
 -10 28 -18 35 -18 45 c 0
165 552 m 0
 157 560 160 571 166 577 c 0
 173 583 183 584 191 576 c 0
 486 263 703 62 1093 62 c 2
 1094 62 l 2
 1104 62 1111 55 1111 45 c 0
 1111 35 1104 28 1094 28 c 2
 1093 28 l 2
 690 28 472 245 165 552 c 0
EndSplineSet
Layer: 2
SplineSet
178 564 m 0
 279.282657759 660.268664801 434.392405063 722 575 722 c 0
 767.940789474 722 896 631.042056075 896 494 c 0
 896 274.776785714 419 45 0 45 c 1024
1094 45 m 0
 763.748554913 45 556.711658534 162.305839761 178 564 c 1024
EndSplineSet
Colour: ffff
EndChar

StartChar: uniE071
Encoding: 57457 57457 508
GlifName: uniE_071
Width: 1857
Flags: HMW
LayerCount: 3
Back
SplineSet
142 336 m 0
 142 405 159 487 195 583 c 0
 198 592 208 596 217 593 c 0
 226 590 231 580 228 571 c 0
 193 477 178 399 178 336 c 0
 178 70 464 32 840 32 c 0
 1259 32 1675 130 1675 484 c 0
 1675 656 1592 764 1428 764 c 0
 1288 764 1181 650 1181 472 c 0
 1181 176 1486 62 1856 62 c 2
 3905 62 l 2
 3915 62 3922 55 3922 45 c 0
 3922 35 3915 28 3905 28 c 2
 1856 28 l 2
 1486 28 1147 142 1147 472 c 0
 1147 664 1266 800 1428 800 c 0
 1614 800 1711 668 1711 484 c 0
 1711 94 1255 -2 840 -2 c 0
 474 -2 142 30 142 336 c 0
EndSplineSet
Fore
SplineSet
142 336 m 0
 142 405 159 487 195 583 c 0
 198 592 208 596 217 593 c 0
 226 590 231 580 228 571 c 0
 193 477 178 399 178 336 c 0
 178 70 464 32 840 32 c 0
 1259 32 1675 130 1675 484 c 0
 1675 656 1592 764 1428 764 c 0
 1288 764 1181 650 1181 472 c 0
 1181 176 1486 62 1856 62 c 2
 1857 62 l 2
 1867 62 1874 55 1874 45 c 0
 1874 35 1867 28 1857 28 c 2
 1856 28 l 2
 1486 28 1147 142 1147 472 c 0
 1147 664 1266 800 1428 800 c 0
 1614 800 1711 668 1711 484 c 0
 1711 94 1255 -2 840 -2 c 0
 474 -2 142 30 142 336 c 0
EndSplineSet
Layer: 2
SplineSet
1427 782 m 1
 1602 782 1692 662 1692 484 c 0
 1692 112 1257 15 840 15 c 0
 469 15 160 50 160 336 c 0
 160 402 176 482 211 577 c 1024
1857 45 m 1
 1487 45 1163 159 1163 472 c 0
 1163 657 1276 782 1427 782 c 1025
EndSplineSet
Colour: ffff
EndChar

StartChar: uniE072
Encoding: 57458 57458 509
GlifName: uniE_072
Width: 1521
Flags: HMW
LayerCount: 3
Back
SplineSet
985 644 m 0
 1198 644 1296 328 1296 78 c 0
 1296 -276 1063 -488 703 -488 c 0
 391 -488 174 -332 174 -24 c 0
 174 133 217 297 265 417 c 0
 268 425 278 431 288 427 c 0
 296 423 301 415 297 405 c 0
 251 289 208 127 208 -24 c 0
 208 -315 409 -452 703 -452 c 0
 1044 -452 1262 -259 1262 78 c 0
 1262 312 1171 608 985 608 c 0
 836 608 742 449 742 275 c 0
 742 120 827 62 982 62 c 2
 3569 62 l 2
 3579 62 3586 55 3586 45 c 0
 3586 35 3579 28 3569 28 c 2
 982 28 l 2
 809 28 708 104 708 275 c 0
 708 457 806 644 985 644 c 0
EndSplineSet
Fore
SplineSet
985 644 m 0
 1198 644 1296 328 1296 78 c 0
 1296 -276 1063 -488 703 -488 c 0
 391 -488 174 -332 174 -24 c 0
 174 133 217 297 265 417 c 0
 268 425 278 431 288 427 c 0
 296 423 301 415 297 405 c 0
 251 289 208 127 208 -24 c 0
 208 -315 409 -452 703 -452 c 0
 1044 -452 1262 -259 1262 78 c 0
 1262 312 1171 608 985 608 c 0
 836 608 742 449 742 275 c 0
 742 120 827 62 982 62 c 2
 1521 62 l 2
 1531 62 1538 55 1538 45 c 0
 1538 35 1531 28 1521 28 c 2
 982 28 l 2
 809 28 708 104 708 275 c 0
 708 457 806 644 985 644 c 0
EndSplineSet
Layer: 2
SplineSet
281 411 m 0
 234 293 191 130 191 -24 c 0
 191 -324 401 -470 703 -470 c 0
 1052 -470 1279 -269 1279 78 c 0
 1279 382 1152 626 985 626 c 0
 821 626 725 453 725 275 c 0
 725 113 817 45 982 45 c 2
 1501 45 l 1024
EndSplineSet
Colour: ffff
EndChar

StartChar: uniE073
Encoding: 57459 57459 510
GlifName: uniE_073
Width: 1800
Flags: HMW
LayerCount: 3
Back
SplineSet
142 363 m 0
 142 433 163 510 195 581 c 0
 199 590 209 594 218 590 c 0
 227 586 231 576 227 567 c 0
 197 500 178 427 178 363 c 0
 178 77 478 34 786 34 c 0
 1081 34 1372 149 1372 431 c 0
 1372 667 1357 995 1329 1209 c 0
 1328 1218 1335 1227 1344 1228 c 0
 1353 1229 1362 1222 1363 1213 c 0
 1391 997 1408 669 1408 431 c 0
 1408 117 1083 -2 786 -2 c 0
 484 -2 142 39 142 363 c 0
1373 431 m 0
 1373 441 1380 448 1390 448 c 0
 1400 448 1408 441 1408 431 c 0
 1408 173 1592 62 1799 62 c 2
 3848 62 l 18
 3858 62 3865 55 3865 45 c 0
 3865 35 3858 28 3848 28 c 10
 1799 28 l 2
 1576 28 1373 153 1373 431 c 0
EndSplineSet
Fore
SplineSet
142 363 m 0
 142 433 163 510 195 581 c 0
 199 590 209 594 218 590 c 0
 227 586 231 576 227 567 c 0
 197 500 178 427 178 363 c 0
 178 77 478 34 786 34 c 0
 1081 34 1372 149 1372 431 c 0
 1372 667 1357 995 1329 1209 c 0
 1328 1218 1335 1227 1344 1228 c 0
 1353 1229 1362 1222 1363 1213 c 0
 1391 997 1408 669 1408 431 c 0
 1408 117 1083 -2 786 -2 c 0
 484 -2 142 39 142 363 c 0
1373 431 m 0
 1373 441 1380 448 1390 448 c 0
 1400 448 1408 441 1408 431 c 0
 1408 173 1592 62 1799 62 c 2
 1800 62 l 18
 1810 62 1817 55 1817 45 c 0
 1817 35 1810 28 1800 28 c 10
 1799 28 l 2
 1576 28 1373 153 1373 431 c 0
EndSplineSet
Layer: 2
SplineSet
1346 1211 m 0
 1374 996 1390 668 1390 431 c 0
 1390 133 1082 16 786 16 c 0
 481 16 160 58 160 363 c 0
 160 430 180 505 211 574 c 1033
1772 45 m 0
 1557 45 1390 163 1390 431 c 1024
EndSplineSet
Colour: ffff
EndChar

StartChar: uniE074
Encoding: 57460 57460 511
GlifName: uniE_074
Width: 1022
Flags: HMW
LayerCount: 3
Fore
SplineSet
-17 45 m 0
 -17 55 -10 62 -0 62 c 0
 267 62 565 78 565 309 c 0
 565 489 312 773 148 939 c 0
 145 942 142 946 142 951 c 0
 142 958 148 966 155 968 c 2
 888 1217 l 2
 900 1221 908 1214 911 1206 c 0
 914 1197 910 1187 898 1183 c 2
 192 943 l 1
 354 777 599 497 599 309 c 0
 599 51 292 28 -0 28 c 0
 -10 28 -17 35 -17 45 c 0
EndSplineSet
Layer: 2
SplineSet
893 1200 m 1
 160 951 l 1
 403 705 582 466 582 309 c 0
 582 108 399 45 0 45 c 1024
EndSplineSet
Colour: ff00ff
EndChar

